<svg width="546" height="432" viewBox="0 0 546 432" fill="none" xmlns="http://www.w3.org/2000/svg">
<path fill-rule="evenodd" clip-rule="evenodd" d="M334.026 114.292C340.652 110.572 344.521 103.903 348.35 97.3006C348.926 96.3077 349.501 95.3167 350.084 94.3374C350.475 93.6816 350.902 93.0056 351.337 92.3166V92.316C352.486 90.4954 353.694 88.5828 354.446 86.71C354.776 85.8909 355.061 84.6893 355.348 83.4748C355.688 82.0423 356.031 80.592 356.457 79.7329C357.388 77.8565 364.454 77.0024 369.266 76.4209C370.855 76.2287 372.199 76.0666 372.994 75.9064C381.452 74.2092 391.561 73.1912 398.473 79.8128C400.116 81.3865 401.956 82.838 403.803 84.2945C406.017 86.0401 408.239 87.7932 410.141 89.7721C413.196 92.9503 417.31 98.2965 418.76 102.542C411.315 103.977 398.943 108.373 395.979 116.187C385.064 106.168 380.457 122.855 378.04 131.611C377.893 132.145 377.753 132.65 377.621 133.118C371.677 130.545 371.986 122.719 372.212 116.987V116.987C372.244 116.184 372.274 115.422 372.285 114.722C372.301 113.683 372.459 112.6 372.613 111.544C373.128 108.004 373.601 104.763 368.544 104.477C363.637 104.202 358.872 106.2 354.446 108.07C348.925 110.406 343.132 113.898 338.673 117.91L334.026 114.292ZM323.302 98.6852C323.301 98.8756 323.298 99.0653 323.297 99.255C323.279 100.943 323.263 102.625 323.776 104.253C324.072 105.193 324.077 106.569 324.081 107.889C324.084 108.847 324.087 109.776 324.202 110.49C319.409 109.031 310.504 106.866 305.61 108.834C300.932 110.715 300.343 119.414 300.178 123.645C300.136 124.714 300.286 125.998 300.442 127.33C300.706 129.592 300.986 131.994 300.375 133.732C299.904 135.071 299.92 135.467 299.951 135.563C299.87 135.516 299.503 135.502 298.158 136.472C297.559 136.904 296.907 137.248 296.251 137.593C295.47 138.004 294.685 138.418 293.979 138.987C292.103 140.5 291.462 142.175 290.693 144.184C290.495 144.702 290.288 145.243 290.049 145.809C288.918 148.49 285.904 150.872 282.539 150.775C282.967 149.999 283.421 149.232 283.874 148.466C286.284 144.395 288.657 140.384 286.844 135.537C285.249 131.275 287.959 126.287 290.18 122.203L290.31 121.963C290.445 121.713 290.833 121.156 291.354 120.409C293.67 117.082 298.612 109.986 295.634 109.383C293.518 108.954 288.952 117.792 287.263 121.059C287.063 121.447 286.903 121.758 286.793 121.963C283.893 120.003 282.59 117.586 284.822 114.633C285.611 113.589 286.484 112.614 287.358 111.637C288.382 110.493 289.41 109.345 290.31 108.078C291.104 106.962 291.891 105.781 292.69 104.585C294.616 101.701 296.602 98.7264 298.877 96.3335C304.528 90.3898 314.392 86.3435 322.529 86.3072C322.347 88.6227 322.611 90.8473 322.879 93.102C323.095 94.9225 323.314 96.7621 323.302 98.6852ZM299.971 135.59C299.973 135.586 299.969 135.574 299.951 135.563C299.959 135.588 299.968 135.593 299.971 135.59ZM346.252 193.651C347.856 190.282 349.257 187.337 350.084 185.849C355.086 176.85 360.038 167.927 364.727 158.761C361.008 160.179 357.859 162.353 354.668 164.555C354.187 164.887 353.705 165.22 353.219 165.551C351.538 166.697 349.704 167.732 347.861 168.772C345.094 170.334 342.304 171.908 339.978 173.889C339.451 174.337 339.025 174.834 338.618 175.308C337.69 176.389 336.866 177.349 335.191 177.332C334.046 177.321 332.424 176.139 330.974 175.081C330.13 174.465 329.343 173.891 328.744 173.616C327.562 173.076 326.588 172.368 325.624 171.668C324.538 170.879 323.464 170.1 322.123 169.58C321.289 169.257 320.608 169.149 319.98 169.049C318.918 168.881 318.01 168.737 316.779 167.617C315.986 172.306 304.963 170.097 297.812 168.664C295.437 168.188 293.49 167.798 292.485 167.775C292.103 167.766 291.707 167.754 291.3 167.742C287.727 167.638 283.287 167.509 280.174 168.846C277.789 169.87 274.97 172.182 272.525 174.188C271.58 174.963 270.692 175.692 269.905 176.284C266.025 179.201 263.259 182.921 260.403 186.959C256.738 192.14 262.211 191.64 266.16 191.28C266.432 191.255 266.698 191.231 266.952 191.209C275.953 190.445 284.7 191.961 293.377 194.017C301.127 195.853 308.176 198.673 315.596 201.651C316.97 202.203 319.468 203.499 322.285 204.962C328.028 207.943 335.099 211.614 336.693 211.071C338.209 210.553 342.721 201.071 346.252 193.651Z" fill="#FF5678"/>
<path fill-rule="evenodd" clip-rule="evenodd" d="M396.546 135.278C399.67 135.118 402.781 135.816 405.905 135.512C403.192 133.149 400.48 130.787 397.767 128.425C396.569 130.529 396.481 132.923 396.546 135.278ZM322.424 86.7101C314.337 86.7458 304.473 90.8075 298.855 96.7395C295.879 99.8833 293.419 104.105 290.902 107.637C289.214 110.007 287.565 112.294 285.516 114.377C282.527 117.412 283.383 118.106 286.75 120.391C287.816 118.395 293.466 107.718 295.834 108.198C299.432 108.929 292.483 120.206 291.724 121.611C289.476 125.768 285.845 131.574 287.477 135.958C289.629 141.745 286.508 145.043 283.798 149.974C286.644 150.057 286.924 148.947 287.905 146.52C289.165 143.401 290.539 140.795 293.202 138.638C295.265 136.968 298.639 136.265 299.608 134.249C300.806 131.756 300.054 126.835 300.151 124.062C300.299 119.849 300.31 109.889 304.952 108.017C309.817 106.055 318.563 107.904 323.318 109.357C322.724 105.644 320.851 103.219 320.877 99.093C320.904 94.774 322.094 90.9211 322.424 86.7101ZM260.3 155.613C264.53 154.274 268.54 152.863 272.892 151.95C277.446 150.995 277.751 149.902 280.318 145.996C282.264 143.035 284.625 140.728 284.074 137.102C283.72 134.776 282.447 133.643 282.83 131.028C283.067 129.406 283.824 127.637 284.37 126.095C285.041 124.204 286.43 122.059 283.2 121.965C281.416 121.914 281.329 122.855 280.122 124.435C277.894 127.353 275.33 130.003 272.96 132.802C268.843 137.662 264.476 142.834 259.88 147.332C254.821 152.281 250.454 158.251 247.184 164.588C246.579 165.758 242.907 172.651 244.474 174.002C245.913 175.244 253.915 172.348 255.374 172.01C261.673 170.548 268.822 170.026 274.772 167.371C277.804 166.017 284.494 164.402 286.889 162.309C289.115 160.363 289.015 155.649 287.723 152.906C284.108 155.155 257.969 163.642 260.3 155.613ZM338.993 116.932C343.214 113.12 348.202 110.061 353.414 107.795C358.076 105.768 363.867 103.508 369.053 103.86C375.515 104.298 372.815 109.503 372.791 113.935C372.761 119.817 370.184 128.289 377.206 131.34C379.498 123.197 384.33 103.94 395.906 114.611C398.864 106.781 409.415 104.13 416.844 102.692C415.498 98.7363 411.407 95.1554 408.572 92.186C405.026 88.4718 402.226 84.1178 398.672 80.4742C391.653 73.2773 378.937 75.5884 370.05 77.3826C367.085 77.9806 358.485 78.7322 357.049 80.9107C356.147 82.2769 356.651 85.6147 355.983 87.2855C355.062 89.5868 353.49 91.7205 352.228 93.8463C347.625 101.603 342.942 109.41 335.065 113.852L338.993 116.932ZM364.752 158.721C360.584 160.32 357.518 162.994 353.822 165.245C349.34 167.976 344.084 170.533 340.062 173.906C338.59 175.139 337.763 177.27 335.732 177.408C333.965 177.528 331.272 175.476 329.705 174.758C327.077 173.551 324.567 171.723 321.926 170.648C319.756 169.765 318.795 169.945 316.917 168.227C315.863 174.496 296.701 168.636 292.681 168.54C288.961 168.452 283.859 168.893 280.398 170.387C277.1 171.811 274.521 174.946 271.698 177.082C267.828 180.011 264.136 182.973 261.286 187.027C257.378 192.585 263.275 191.012 267.207 190.676C276.184 189.909 284.917 192.047 293.571 194.11C301.306 195.954 308.945 198.167 316.35 201.157C320.515 202.839 324.897 204.385 328.814 206.571C330.879 207.724 334.228 210.546 336.598 209.733C338.77 208.988 340.936 202.759 342.253 200.271C344.811 195.442 347.503 190.694 350.144 185.912C355.134 176.879 360.075 167.922 364.752 158.721ZM313.467 278.271C316.036 276.797 320.223 277.194 323.063 276.576C326.272 275.877 329.499 274.739 332.559 273.553C335.658 272.352 338.586 271.123 341.418 269.62C342.713 268.933 344.439 268.256 345.636 267.303C346.601 266.534 346.952 265.106 347.841 264.409C350.161 262.589 350.843 263.731 351.154 260.221C351.492 256.409 349.353 254.25 346.69 251.396C344.306 248.843 341.209 246.637 338.214 244.84C336.889 244.046 335.474 243.152 334.122 242.394C332.076 241.246 329.334 239.337 328.261 241.801C330.497 242.372 330.99 245.227 328.971 246.253C327.864 246.817 326.186 245.989 324.937 246.588C323.008 247.512 321.153 250.093 319.501 251.482C314.082 256.045 308.899 257.756 301.805 258.122C286.984 258.886 271.463 257.196 256.926 254.999C253.184 254.433 249.449 255.046 245.673 254.911C241.999 254.78 238.168 253.977 234.556 253.356C227.6 252.161 220.267 251.177 213.418 249.419C205.136 247.292 196.824 244.542 189.048 240.979C181.589 237.561 173.158 231.914 164.779 231.478C168.355 234.979 173.712 236.327 178.013 238.634C181.527 240.517 187.024 241.726 189.245 244.83C190.69 246.85 191.415 250.561 192.508 252.93C193.715 255.551 194.829 258.214 195.948 260.875C197.071 263.552 198.24 266.231 199.152 268.987C199.717 270.698 199.96 274.245 201.294 275.414C203.421 277.281 210.542 278.109 213.409 278.73C218.762 279.89 224.868 279.736 230.328 279.816C232.584 279.849 234.858 280.157 237.014 280.199C240.042 280.257 239.753 279.733 239.71 277.104C239.685 275.526 239.717 272.655 241.828 273.955C243.267 274.841 242.277 278.764 242.011 280.159C254.062 281.359 266.637 281.963 278.632 281.561C290.428 281.166 301.815 279.645 313.467 278.271ZM367.895 250.606C370.022 235.336 372.613 219.81 375.513 204.737C378.445 189.506 381.969 174.413 385.933 159.239C383.315 158.612 380.696 157.987 378.078 157.361C377.98 160.558 376.899 163.335 376.438 166.518C375.802 170.91 374.586 175.176 373.858 179.555C372.475 187.877 369.912 196.021 367.654 204.137C365.353 212.411 364.583 220.935 362.469 229.251C360.727 236.101 359.836 243.648 358.863 250.69C356.502 267.777 353.139 284.896 350.579 301.991C348.178 318.018 347.937 334.371 348.075 350.548C348.16 360.424 349.667 370.272 349.588 380.162C349.569 382.607 349.774 385.044 349.901 387.484C349.991 389.206 349.066 393.98 349.85 395.422C350.347 396.335 352.481 397.178 353.236 398.446C354.43 400.452 354.682 402.851 356.601 404.369C358.156 398.096 357.421 389.816 357.082 383.414C356.753 377.246 357.391 370.87 357.517 364.607C357.763 352.321 358.414 340.214 359.044 327.922C359.734 314.441 361.698 300.632 363.616 287.253C365.361 275.087 366.524 262.706 367.895 250.606ZM310.975 59.1002C310.132 59.0216 309.289 58.9436 308.445 58.8651C308.571 60.642 308.196 63.5199 309.449 64.4465C310.398 65.1489 312.32 64.9187 313.471 65.1428C317.242 65.8802 321.612 66.4967 325.356 65.1538C326.811 64.6319 325.877 63.8147 327.88 64.1542C330.293 64.5644 329.412 64.9463 330.109 66.4512C330.645 67.613 330.922 69.5901 331.531 70.9845C332.346 72.8511 333.999 76.1914 333.292 78.3466C332.606 80.4416 330.044 81.0747 328.955 83.4473C328.145 85.2113 328.336 87.7755 327.915 89.7182C327.354 92.3094 326.644 94.8907 326.331 97.5298C325.936 100.855 326.071 104.756 330.191 105.271C334.014 105.751 336.748 104.522 339.311 101.738C344.208 96.4221 349.799 88.9188 352.676 82.2321C353.011 81.4511 353.839 80.1475 353.723 79.3112C353.495 77.6571 353.396 79.3315 352.871 78.1827C352.371 77.0842 351.586 76.0876 351.124 74.8688C349.463 70.4903 348.285 65.9005 347.62 61.2652C347.318 59.1653 347.216 57.0911 347.269 54.9709C347.285 54.247 347.72 52.0728 347.461 51.5773C347.197 51.075 345.819 50.8435 345.39 50.3449C344.593 49.4208 343.226 46.8119 342.344 46.1199C341.259 45.2701 338.832 45.943 338.391 44.2527C337.686 41.5473 354.37 37.1405 346.576 33.5303C340.756 30.8348 331.83 44.4608 329.795 33.7387C329.443 31.8815 330.115 29.3604 329.3 27.6584C328.399 25.7772 325.949 25.074 324.237 24.1585C322.052 22.9914 319.845 21.7919 317.722 20.5136C316.266 19.6375 314.167 17.311 312.618 17.0979C313.228 20.2558 312.058 23.3859 312.039 26.5376C315.396 25.6291 317.707 25.6097 321.021 27.2253C322.599 27.9942 328.545 32.3578 325.532 34.4566C323.092 33.0139 320.481 31.7626 317.76 30.9143C316.687 30.5793 315.347 30.1238 314.206 30.1007C311.556 30.0475 311.929 30.3246 310.935 32.3223C309.976 34.2466 310.182 39.2656 308.076 40.4944C305.9 41.7653 307.578 39.9865 305.72 40.3972C304.659 40.6318 303.504 41.4202 302.534 41.8653C303.864 43.3089 306.548 44.6266 307.429 46.2298C308.716 48.5674 308.27 53.4015 308.471 55.9589C310.155 55.3559 311.928 55.3314 313.636 54.8838C315.24 54.4619 317.466 52.6383 317.634 55.3197C317.82 58.3075 313.097 59.1002 310.975 59.1002ZM332.896 137.772C333.027 135.19 333.171 132.609 333.458 130.037C333.652 128.31 335.292 123.303 334.365 121.786C333.357 120.136 329.98 120.031 328.354 119.635C325.238 118.875 322.25 118.253 319.083 117.752C316.17 117.291 313.426 117.194 310.491 117.06C307.294 116.916 306.502 116.068 305.795 119.59C305.24 122.359 304.495 125.244 304.392 128.08C304.294 130.741 305.098 133.052 302.461 134.845C308.253 134.845 315.796 129.688 321.082 134.3C328.643 140.894 315.485 142.794 312.015 144.25C314.9 145.652 319.182 146.753 320.539 149.954C322.062 153.543 319.852 155.069 316.469 155.356C316.787 156.739 318.005 157.638 318.368 159.301C318.899 161.739 317.176 160.932 319.375 162.819C322.271 165.302 328.232 166.962 331.783 168.544C332.615 168.916 333.457 169.265 334.308 169.591C335.638 170.775 336.62 170.55 337.255 168.914C339.077 167.761 340.699 165.188 342.315 163.692C345.91 160.362 349.878 157.439 354.151 155.035C352.38 154.301 350.261 155.959 348.562 155.152C347.188 154.5 347.706 153.313 346.883 152.425C347.213 151.266 346.865 150.842 345.839 151.154C345.325 151.208 344.848 151.121 344.407 150.893C343.547 149.828 343.161 149.479 343.104 147.834C343.043 146.089 344.054 145.473 344.442 144.076C345.703 143.217 345.675 142.373 344.356 141.545C343.814 140.659 343.519 139.698 343.47 138.661C343.219 134.812 346.733 133.26 349.412 131.224C344.614 130.697 344.797 125.069 348.117 122.609C351.558 120.059 358.843 121.103 363.005 121.678C363.87 121.797 366.207 122.913 367.082 122.202C367.619 121.766 367.24 118.078 367.265 117.428C367.321 115.95 367.68 114.189 367.445 112.719C366.952 109.641 367.996 111.191 365.781 111.106C360.508 110.901 353.794 115.504 349.155 117.674C343.963 120.103 340.626 120.476 340.572 126.499C340.52 132.202 338.921 137.884 338.223 143.496C337.918 145.946 337.7 158.679 333.214 153.98C331.475 152.158 332.589 149.355 332.718 147.107C332.894 144.014 332.79 140.873 332.896 137.772ZM42.8385 328.666C45.4057 329.122 49.5859 327.648 52.3864 327.494C57.2826 327.225 62.3249 326.758 67.1223 325.739C70.8751 324.942 75.1518 324.24 77.1756 320.607C78.9851 317.361 79.6243 313.295 80.5987 309.752C81.1163 307.871 82.4518 305.143 82.4512 303.197C82.4506 300.667 82.1098 301.166 79.4714 299.781C76.1317 298.029 72.8824 295.587 69.2799 294.593C68.19 294.38 67.0995 294.171 66.0084 293.967C64.5968 293.148 63.8004 293.551 63.6156 295.174C62.2377 296.626 61.4303 299.303 60.2741 301.002C57.6387 304.876 54.5091 307.516 50.4204 309.75C43.0626 313.768 36.2071 316.87 28.3268 319.498C23.9838 320.946 19.9792 322.977 15.7342 324.574C12.3334 325.853 7.63995 326.242 5.02761 329.089C2.08008 332.301 6.61061 333.469 9.12876 335.64C11.1921 337.419 11.2323 337.828 14.0547 336.964C16.1574 336.319 18.0215 335.09 20.0406 334.255C26.9575 331.398 35.329 329.497 42.8385 328.666ZM200.913 379.612C198.335 379.054 195.757 378.497 193.18 377.94C195.714 382.673 201.046 389.598 197.22 395.075C195.789 397.121 193.41 397.705 191.285 398.743C188.713 400 186.338 401.609 183.907 403.107C173.88 409.281 163.689 415.541 153.124 420.839C156.432 421.907 161.517 422.645 164.924 421.715C168.89 420.631 172.563 418.144 176.635 417.057C183.942 415.107 191.632 413.446 199.054 412.446C205.122 411.629 220.309 413.476 219.571 404.351C218.871 395.688 213.696 387.423 212.156 378.859C208.378 379.698 204.773 379.551 200.913 379.612ZM354.564 240.955C357.502 226.534 359.258 211.868 362.723 197.551C364.452 190.409 365.671 183.168 367.36 176.024C368.146 172.7 368.74 169.343 369.505 166.026C370.28 162.667 371.948 159.568 372.33 156.095C369.522 156.79 368.872 163.221 368.021 165.64C366.46 170.078 364.757 174.343 362.751 178.592C359.562 185.347 356.178 191.863 352.58 198.412C348.787 205.319 344.781 211.961 340.042 218.268C338.484 220.341 336.372 221.965 335.368 224.238C333.79 227.814 333.126 232.076 331.619 235.798C332.681 236.337 335.423 236.471 336.725 236.728C339.146 237.206 340.843 237.631 343.169 238.782C347.266 240.811 350.708 243.215 353.446 246.865C354.134 244.992 354.313 242.937 354.564 240.955ZM240.359 350.982C240.31 337.093 240.113 323.086 240.341 309.301C240.404 305.473 240.716 301.343 241.271 297.544C241.619 295.157 243.67 290.081 242.322 288.937C241.169 287.958 235.087 288.603 233.595 288.568C230.7 288.501 227.814 288.372 224.914 288.154C224.914 293.301 226.925 299.146 227.859 304.238C228.73 308.987 229.446 313.763 230.165 318.534C231.721 328.867 232.164 339.341 233.853 349.701C235.383 359.094 237.403 368.448 238.516 377.84C239.127 382.995 240.363 387.86 241.324 393.012C241.826 395.699 243.656 406.765 245.959 407.853C246.447 403.884 244.457 399.09 244.1 395.076C243.733 390.931 243.447 386.759 242.776 382.593C241.987 377.702 241.588 372.691 241.285 367.739C241.101 364.71 241.045 361.689 240.783 358.662C240.593 356.465 239.762 353.136 240.359 350.982ZM312.736 165.265C312.832 163.753 308.918 163.814 308.189 162.075C306.71 158.545 310.081 159.181 312.153 158.815C311.414 156.852 297.577 157.567 300.801 152.268C303.037 148.591 311.517 154.219 313.784 150.725C315.273 148.431 311.22 148.114 309.611 147.885C307.192 147.538 301.493 148.658 301.68 145.519C301.917 141.574 312.997 138.852 316.105 137.693C315.761 134.992 302.425 138.832 300.495 139.926C296.127 142.405 292.78 146.851 292.139 151.793C291.392 157.543 294.308 162.071 300.051 163.482C302.446 164.07 304.215 164.135 306.431 165.02C307.889 165.602 312.607 167.052 313.606 165.584C313.316 165.478 313.027 165.371 312.736 165.265ZM391.024 129.502C391.245 127.046 393.312 122.424 390.93 120.811C387.597 118.553 386.217 122.273 385.462 124.508C384.538 127.237 380.656 133.916 384.051 135.617C384.84 136.012 388.582 135.552 389.242 135.291C391.081 135.77 391.674 135.082 391.024 133.224V129.502ZM309.692 327.79C309.483 321.079 312.488 313.011 314.19 306.438C316.121 298.991 317.137 291.395 319.183 284.03C316.908 284.304 314.612 284.528 312.364 284.984C309.298 285.607 309.242 285.509 309.463 288.517C309.791 293.034 309.361 297.463 309.128 301.979C308.66 311.021 309.799 320.211 309.042 329.195C309.717 329.366 309.933 328.898 309.692 327.79ZM394.596 151.91C401.963 153.038 409.025 155.374 415.729 158.512C419.425 160.242 423.495 162.101 427.625 162.792C432.213 163.56 437.079 163.2 441.765 163.496C443.416 163.6 447.759 164.402 449.369 163.431C450.965 162.468 450.84 160.837 450.915 158.893C451.108 153.892 448.844 148.995 446.809 144.508C445.063 140.658 443.742 137.718 441.033 134.407C437.553 130.154 434.523 125.564 431.264 121.125C428.807 117.779 426.325 114.48 423.82 111.138C422.029 108.745 422.114 107.921 419.413 108.189C416.755 108.453 414.077 110.025 411.573 110.858C407.856 112.094 403.354 112.773 399.964 114.75C397.773 116.028 397.675 116.263 397.7 118.494C397.724 120.572 398.395 123.107 399.637 124.732C402.219 128.107 406.5 129.893 410.173 131.576C412.298 132.55 414.134 133.931 416.026 135.274C418.064 136.722 422.176 137.575 423.736 139.225C428.277 144.032 420.011 143.082 417.701 142.937C412.717 142.623 407.76 142.671 402.74 142.667C397.259 142.664 391.823 142.409 386.42 142.587C383.256 142.691 379.625 141.086 377.575 138.411C376.582 137.115 376.195 135.89 374.897 134.545C373.196 132.785 371.716 130.93 369.647 129.567C366.261 127.338 360.108 126.077 356.077 126.909C357.52 127.11 364.309 129.421 361.32 132.326C360.956 132.68 356.589 132.911 355.641 133.347C353.928 134.134 351.769 135.277 350.764 136.938C353.689 136.448 364.538 135.881 359.004 141.493C357.645 142.871 353.745 144.246 357.064 145.711C357.826 146.048 359.352 145.571 360.333 145.874C361.792 146.326 362.984 147.534 364.351 148.178C368.227 150.007 373.571 151.134 377.616 150.734C383.21 150.179 389.04 151.178 394.596 151.91ZM246.249 321.026C246.44 329.089 246.149 337.199 246.321 345.299C246.505 353.949 247.615 362.426 248.143 370.989C248.619 378.663 249.654 386.191 250.496 393.829C250.981 398.228 251.539 402.435 252.283 406.801C252.981 410.887 253.1 414.487 248.215 415.585C238.877 417.687 237.426 404.253 235.621 398.592C232.927 390.144 231.2 381.276 229.865 372.518C227.38 356.209 224.075 340.126 222.786 323.678C221.992 313.55 220.84 303.525 220.187 293.406C220.059 291.423 220.565 288.368 218.823 287.485C217.776 286.955 214.891 286.95 213.569 286.566C209.886 285.494 206.488 283.917 202.895 282.279C205.445 295.616 206.288 308.887 208.201 322.341C209.216 329.479 211.159 336.876 212.842 343.903C214.587 351.184 214.974 359.023 216.986 366.145C217.873 369.285 218.623 370.564 217.337 373.786C215.759 377.741 216.806 378.687 218.785 382.572C222.425 389.718 225.204 398.152 224.587 406.208C224.084 412.788 219.113 416.232 212.954 418.008C205.251 420.227 197.184 419.965 189.434 422.486C182.682 424.682 175.822 426.305 169.265 429.204C166.621 430.373 164.109 431.76 161.173 431.975C157.147 432.267 154.431 429.931 150.629 429.443C148.252 429.14 144.772 430.274 143.402 427.782C142.317 425.807 143.545 421.497 144.908 419.906C148.736 415.438 156.402 411.545 161.564 408.907C167.514 405.869 173.271 402.065 178.783 398.142C182.125 395.764 185.532 393.483 188.871 391.1C191.08 389.523 191.919 389.514 191.694 387.008C191.514 385.011 190.614 383.073 190.456 381.028C190.335 379.461 190.884 377.325 190.144 376.302C189.599 375.548 187.555 375.016 186.751 374.445C183.811 372.361 183.143 369.783 181.808 366.613C178.775 359.412 175.291 352.414 172.363 345.156C166.076 329.572 162.239 313.185 157.027 297.283C151.702 281.036 146.94 263.981 144.008 247.126C140.084 248.32 136.38 253.605 133.254 256.219C129.032 259.753 124.706 263.17 120.566 266.8C113.779 272.751 106.907 278.539 101.299 285.667C98.5962 289.099 96.3839 292.794 93.9377 296.4C92.5248 298.483 91.2071 300.842 89.677 302.824C89.4314 303.142 89.424 303.795 89.1594 304.066C88.5767 304.661 87.4634 303.868 87.0901 304.26C84.7839 306.672 84.814 313.519 84.0956 316.7C83.1051 321.086 81.9932 326.127 78.5694 329.15C73.2802 333.817 63.5266 334.541 56.8332 334.783C48.2431 335.094 39.9102 337.488 31.7604 340.059C27.959 341.257 24.2571 342.66 20.4415 343.824C18.247 344.495 15.7435 345.831 13.3999 345.574C10.5735 345.264 8.34189 342.886 6.27161 341.119C2.9596 338.291 -0.106808 335.504 0.00285512 330.865C0.119457 325.954 2.77969 322.247 6.97042 319.808C15.0724 315.092 24.1343 312.069 32.8674 308.81C36.2138 307.56 39.0788 306.177 42.2785 304.496C46.8001 302.118 52.0045 300.178 56.0165 297.039C57.1991 296.112 61.5464 293.275 61.9166 291.812C61.9651 291.621 60.8789 289.386 60.874 289.032C60.8636 288.12 61.4033 287.133 61.7355 286.353C63.825 281.44 67.3298 276.71 70.0094 272.078C74.9166 263.593 79.8429 255.063 85.5324 247.083C96.8776 231.174 109.622 215.596 123.377 201.708C130.083 194.937 135.878 187.257 142.678 180.581C145.372 177.936 148.216 175.782 151.536 174.065C155.236 172.152 159.39 171.777 163.632 171.192C173.91 169.778 182.494 172.818 192.144 175.464C201.267 177.965 210.4 180.075 219.574 182.68C229.649 185.541 239.621 188.285 249.664 191.403C255.03 193.068 260.55 194.091 265.942 195.69C268.538 196.458 278.353 201.279 280.517 199.695C273.699 196.495 266.714 193.579 259.419 191.648C257.27 191.08 255.898 191.709 255.978 189.242C256.021 187.897 257.534 186.08 258.078 184.973C259.381 182.321 260.857 179.73 262.133 177.07C257.508 178.384 245.077 182.929 241.592 178.23C237.945 173.312 240.989 163.67 243.275 158.855C249.242 146.285 259.39 135.796 269.278 126.32C271.418 124.272 276.028 121.597 277.169 118.987C277.515 118.194 276.76 117.029 277.543 115.998C278.008 115.385 279.876 114.966 280.622 114.305C283.341 111.898 285.511 106.834 287.389 103.678C289.357 100.374 291.13 96.7954 293.602 93.8303C297.647 88.982 301.822 83.8427 308.371 82.7086C311.582 82.1529 314.994 82.4495 318.072 81.3399C321.795 79.9983 325.332 77.8849 329.091 76.4953C328.158 74.5778 327.403 71.5292 325.593 71.3198C323.851 71.1178 321.296 72.6154 319.302 72.6043C316.39 72.5883 313.905 72.1223 311.094 71.5678C307.984 70.9526 306.96 71.0644 305.825 67.6903C304.637 64.156 304.936 60.0507 304.946 56.3795C304.95 54.5853 305.307 52.3589 305.154 50.5979C304.925 47.9447 304.409 47.8428 302.329 46.1555C299.731 44.0476 296.527 41.2581 299.71 37.5952C301.43 35.616 304.965 37.1552 306.488 35.0286C308.04 32.8626 307.965 27.4214 308.437 24.8772C303.654 27.2284 305.408 18.4387 305.407 16.3237C305.406 13.2461 303.344 7.71152 306.313 5.15107C307.693 3.96233 308.717 4.94574 310.295 4.26264C312.095 3.48296 313.229 1.43822 315.144 0.645466C318.95 -0.930779 322.837 0.967333 326.744 0.653938C331.227 0.294983 335.63 -0.39818 340.138 0.321265C342.273 0.660878 343.172 1.47218 344.979 2.38148C346.717 3.25602 348.48 3.49537 350.367 4.05805C352.047 4.55903 353.519 4.81219 354.654 6.27576C355.551 7.43362 355.186 9.38116 356.091 10.3792C356.985 11.3627 358.753 11.2198 359.817 12.3877C360.84 13.5085 361.451 15.3611 361.983 16.7559C362.701 18.6348 362.785 19.3403 364.049 20.844C365.151 22.1562 366.738 23.2114 367.658 24.7081C369.825 28.2365 369.88 33.3388 369.188 37.308C368.953 38.6596 366.995 42.1533 367.301 43.3034C367.593 44.3982 369.43 44.1102 370.262 44.8022C370.981 45.4009 371.613 48.0663 372.18 48.229C373.404 48.5802 374.915 46.1616 375.843 45.7987C377.456 45.1682 378.13 44.5216 379.024 46.8985C379.686 48.6619 378.763 51.056 378.278 52.739C377.66 54.8819 376.977 57.4626 375.34 59.083C373.416 60.9877 371.875 59.9463 369.752 60.9724C366.57 62.5099 367.508 67.3176 363.593 68.6912C359.861 70.0009 355.75 65.8814 352.928 63.9884C353.513 68.5849 355.713 73.0139 354.657 77.7252C363.239 74.3629 371.727 69.5907 381.08 68.5395C385.849 68.0029 390.667 67.3674 395.169 69.3476C400.439 71.6649 403.667 76.7766 407.234 81.0237C413.937 89.006 420.816 96.7641 427.249 105.004C433.151 112.562 438.126 121.319 444.622 128.395C451.208 135.572 456.179 147.215 455.457 157.153C455.393 158.05 454.698 160.088 454.806 161.055C454.891 161.796 455.565 162.735 455.554 163.333C455.517 165.344 454.853 166.502 452.936 167.617C449.613 169.552 444.662 170.532 440.907 171.012C435.917 171.65 429.807 171.719 424.815 171.038C419.667 170.333 415.142 167.452 410.407 165.71C406.255 164.182 402.084 163.228 397.721 162.253C395.314 161.715 392.649 160.226 391.161 161.667C389.795 162.991 389.512 169.787 389.194 171.594C385.741 191.181 381.638 210.104 378.004 229.59C373.886 251.678 371.07 273.757 368.206 296.031C365.603 316.28 364.752 336.757 364.169 356.986C363.892 366.635 363.851 376.182 363.91 385.84C363.943 391.248 366.647 409.3 358.63 409.991C353.918 410.399 350.15 403.644 348.887 399.961C346.99 394.426 346.002 388.466 345.7 382.652C345.088 370.882 344.286 359.103 343.811 347.329C343.297 334.572 343.951 321.58 345 308.865C346.055 296.066 348.715 283.453 349.53 270.634C347.083 274.126 346.3 274.782 342.224 276.302C337.959 277.895 333.857 279.778 329.553 281.263C328.089 281.768 325.804 282.084 324.604 282.911C322.389 284.436 323.844 282.705 323.137 285.674C322.382 288.846 322.239 292.654 322.039 295.913C321.096 311.208 316.859 326.394 314.904 341.609C314.433 345.282 315.106 360.877 308.784 355.962C303.915 352.177 304.012 340.289 303.319 334.721C302.397 327.298 302.911 319.666 303.056 312.198C303.223 303.694 303.366 294.773 305.395 286.469C301.764 285.848 296.713 287.541 293.059 287.826C289.894 288.072 286.741 288.228 283.594 288.402C276.09 288.814 268.36 289.142 260.729 288.995C259.339 288.968 250.264 287.697 249.104 288.721C248.727 289.054 248.612 293.63 248.542 294.189C248.275 296.292 247.912 298.392 247.642 300.483C246.78 307.167 246.002 314.344 246.249 321.026Z" fill="black"/>
<path fill-rule="evenodd" clip-rule="evenodd" d="M381.027 384.547C386.754 386.785 392.832 387.597 398.608 389.636C403.771 391.459 408.566 393.91 413.651 395.762C413.948 393.404 414.106 389.41 413.235 387.188C412.002 384.04 408.757 383.963 405.562 382.842C397.784 380.113 389.604 379.538 381.883 376.35C383.205 378.895 382.615 382.264 381.027 384.547ZM479.89 376.316C467.521 376.679 455.7 379.557 443.51 381.337C437.578 382.203 431.641 382.976 425.703 383.784C423.418 384.095 419.254 383.729 417.593 385.707C416.217 387.345 417.725 392.938 417.114 395.339C419.614 395.524 424.053 393.188 426.766 392.802C430.992 392.201 435.161 391.359 439.431 391.092C446.192 390.665 452.835 390.303 459.585 389.55C466.449 388.785 473.092 387.363 480.011 386.844C483.374 386.591 484.727 387.221 484.925 383.671C485.003 382.282 485.193 379.959 484.804 378.59C485.426 376.907 484.874 376.09 483.148 376.138C482.052 376.014 480.966 376.074 479.89 376.316ZM455.967 364.984C459.312 364.67 462.671 364.22 466.024 364.032C466.704 363.993 470.153 364.201 470.716 363.569C471.514 362.675 470.625 359.403 470.479 358.391C469.982 354.95 469.432 352.948 465.678 352.941C462.509 352.933 459.229 353.603 456.073 353.912C441.746 355.316 427.492 355.909 413.323 358.576C414.185 362.249 415.164 366.038 414.133 369.794C420.93 370.144 428.392 368.837 435.035 367.495C441.824 366.124 449.028 365.443 455.967 364.984ZM433.291 330.404C428.172 330.427 422.762 332.681 417.711 332.178C417.636 333.118 419.252 332.339 419.699 333.218C420.652 333.22 420.984 333.531 420.693 334.153C420.711 334.577 420.494 334.825 420.043 334.897C419.82 334.917 419.597 334.936 419.375 334.955C418.398 334.987 418.238 335.645 418.896 336.933C418.613 338.528 419.037 340.554 419.098 342.155C428.175 340.92 436.994 339.635 446.135 339.084C450.451 338.824 454.763 338.825 459.073 338.47C463.815 338.079 468.992 338.917 473.628 338.029C476.107 337.554 475.847 337.587 475.666 334.364C475.556 332.406 475.597 330.081 474.003 328.653C471.34 326.267 465.277 327.646 462.094 327.73C452.504 327.983 442.753 328.874 433.291 330.404ZM438.531 376.431C452.243 375.186 465.853 372.458 479.643 372.458C478.668 371.484 476.544 371.233 475.331 370.701C473.947 370.096 472.641 368.806 471.289 368.276C468.576 367.214 465.814 368.69 463.027 369.328C456.305 370.867 449.407 370.919 442.673 372.43C435.712 373.99 428.66 375.429 421.57 376.223C418.194 376.6 414.572 377.366 411.236 376.474C410.965 376.281 410.693 376.087 410.423 375.894C410.131 374.653 409.322 374.321 407.994 374.899C406.308 374.578 404.162 374.993 402.464 375.035C402.395 375.713 408.666 377.839 409.861 378.366C412.742 379.635 414.696 380.563 417.772 380.02C424.7 378.796 431.515 377.335 438.531 376.431ZM390.293 336.34C390.829 338.429 393.079 337.479 395.016 337.709C397.617 338.017 400.204 338.914 402.722 339.59C407.296 340.819 411.871 342.032 416.425 343.331C416.246 341.491 416.653 337.304 415.681 335.672C414.661 333.962 409.825 333.212 407.574 332.69C401.897 331.377 395.834 332.124 390.068 332.4C390.17 333.712 390.245 335.024 390.293 336.34ZM444.816 349.41C450.201 348.953 455.593 348.598 460.994 348.409C467.169 348.193 462.681 347.206 462.55 343.44C454.434 344.734 446.247 344.99 438.156 346.096C431.453 347.014 423.468 349.41 416.632 348.123C413.407 347.517 410.114 347.283 406.684 346.939C403.447 346.616 400.394 345.108 397.197 344.734C393.608 344.313 389.942 346.33 386.372 346.863C384.859 347.089 384.507 348.115 383.793 346.294C383.052 344.405 385.174 342.861 386.01 341.731C386.986 340.412 386.58 342.554 387.123 340.493C387.274 339.916 386.863 338.465 386.787 337.843C386.596 336.271 386.101 334.565 386.025 332.995C385.953 331.553 385.941 329.353 387.506 328.512C388.461 327.998 389.138 328.747 389.971 328.602C396.47 327.471 404.115 327.379 410.706 328.47C417.852 329.652 424.002 326.522 431.044 325.253C439.307 323.764 447.655 323.541 455.988 322.912C463.114 322.374 476.133 319.586 478.847 328.687C479.616 331.265 480.736 338.365 478.668 340.559C475.954 343.44 469.671 342.52 466.161 343.269C466.686 344.762 468.249 345.778 467.708 347.556C472.626 347.788 473.495 352.433 474.266 356.769C475.063 361.256 473.508 363.039 477.796 365.375C483.771 368.631 490.102 371.92 489.985 379.674C489.926 383.573 489.49 389.453 485.487 391.475C481.571 393.454 475.194 393.12 470.878 393.838C462.52 395.23 454.132 396.863 445.723 397.698C436.77 398.588 427.667 399.319 418.698 399.716C413.811 399.934 409.59 400.672 404.871 399.028C400.231 397.411 395.692 396.23 390.904 395.03C386.178 393.846 371.71 392.251 375.926 384.169C376.6 382.875 378.906 381.847 379.278 380.624C379.879 378.652 377.85 377.112 377.935 375.33C378.09 372.068 381.77 371.659 384.31 371.659C379.955 368.935 385.787 365.711 385.753 363.398C385.691 359.324 380.624 356.68 380.338 353.264C379.641 344.953 406.006 353.607 410.064 355.405C406.941 360.036 392.45 356.029 388.134 355.326C388.723 356.873 389.286 358.263 389.456 359.847C389.594 361.137 389.101 362.612 389.552 363.91C390.264 365.964 390.24 365.571 392.762 366.131C394.627 366.544 396.472 367.023 398.331 367.462C401.187 368.135 405.68 369.944 408.51 369.845C410.993 369.758 410.502 370.528 410.957 367.771C411.202 366.29 410.784 364.715 410.534 363.263C410.013 360.221 409.251 357.342 411.907 355.16C414.44 353.078 419.78 352.087 422.887 351.354C429.782 349.725 437.741 349.325 444.816 349.41Z" fill="black"/>
<path fill-rule="evenodd" clip-rule="evenodd" d="M477.63 297.49C470.14 296.235 462.531 295.926 454.954 296.306C455.365 298.181 455.775 300.056 456.187 301.93C463.285 300.102 470.487 299.031 477.63 297.49ZM416.733 312.035C413.73 311.815 415.819 313.158 416.561 315.124C417.472 317.539 417.277 320.593 417.486 323.135C426.274 319.784 436.498 317.823 445.841 316.695C450.271 316.161 454.767 316.007 459.222 315.779C460.539 315.711 465.295 316.262 466.259 315.376C466.974 314.718 466.472 311.083 465.785 310.28C462.045 305.921 447.59 309.685 442.36 310.076C433.786 310.716 425.367 312.248 416.733 312.035ZM429.214 300.354C436.994 301.101 444.508 301.03 452.289 302.196C451.699 297.25 452.404 295.988 446.793 295.725C441.793 295.491 436.809 295.302 431.832 295.305C420.641 295.311 409.475 295.097 398.271 295.097V300.124C408.634 299.063 418.831 300.979 429.214 300.354ZM391.798 318.838C396.709 318.817 401.35 320.669 406.261 321.149C409.2 321.437 408.277 321.802 410.316 323.278C413.492 325.577 414.407 324.352 414.009 321.228C412.659 310.661 399.28 313.03 391.571 312.443C392.077 314.963 390.912 317.1 389.197 318.838H391.798ZM444.875 305.271C437.812 305.385 430.741 305.787 423.727 305.64C420.588 305.574 416.521 304.952 413.444 305.488C411.19 305.879 409.305 307.028 406.833 307.454C410.464 309.41 412.305 308.089 416.123 307.644C419.937 307.2 423.808 307.208 427.638 306.976C433.927 306.595 440.632 305.089 446.829 305.499C446.942 304.626 446.291 304.549 444.875 305.271ZM388.855 328.157C385.614 328.149 390.073 324.464 390.658 324.099C387.07 324.099 386.202 321.946 387.241 318.49C388.221 315.233 388.945 316.23 386.481 313.518C384.626 311.477 384.345 309.972 386.532 307.69C388.757 305.367 393.264 306.024 395.236 304.107C398.593 300.845 394.261 294.346 398.912 291.847C402.056 290.158 407.124 290.367 410.595 290.01C413.95 289.665 417.423 289.599 420.801 289.553C428.163 289.452 435.811 290.687 443.14 291.367C445.813 291.613 448.817 292.693 451.45 292.695C454.135 292.698 456.947 292.1 459.719 292.169C462.942 292.25 466.047 292.012 469.37 292.541C471.917 292.947 477.862 293.16 479.809 295.053C486.294 301.361 470.915 304.258 468.268 304.967C470.961 307.917 470.85 311.818 470.444 315.532C471.726 315.532 473.936 314.974 474.599 316.412C475.423 318.197 472.373 318.661 471.651 318.869C467.502 320.068 462.646 319.739 458.37 320.174C449.821 321.044 441.375 321.546 432.915 323.166C428.792 323.955 424.693 324.932 420.573 325.7C419.862 325.833 419.147 325.939 418.428 326.02C417.326 325.926 416.969 326.617 417.358 328.099C416.214 328.658 411.951 327.266 410.632 327.053C403.085 325.828 396.332 326.337 388.855 328.157Z" fill="black"/>
<path fill-rule="evenodd" clip-rule="evenodd" d="M541.266 401.449C536.398 405.28 531.873 408.895 526.601 412.224C530.327 412.108 542.721 406.164 541.266 401.449ZM539.365 395.205C536.708 392.922 534.068 393.155 530.78 392.463C527.751 391.826 524.808 390.729 521.786 389.998C519.414 389.425 517.067 388.65 514.703 388.109C511.366 387.344 511.037 388.186 507.968 389.934C497.083 396.138 484.903 400.404 473.439 405.439C476.805 408.403 484.377 408.53 488.584 409.475C491.656 410.164 494.578 411.107 497.52 412.198C500.26 413.216 504.673 415.555 507.562 415.633C510.001 415.698 511.983 413.299 514.083 412.006C516.844 410.305 519.594 408.634 522.377 406.976C528.268 403.466 533.775 399.165 539.365 395.205ZM490.176 420.331C488.919 419.122 485.137 419.175 483.562 418.806C480.458 418.081 477.401 417.327 474.256 416.783C469.152 415.9 461.091 415.505 460.537 408.884C460.075 403.382 466.723 402.076 470.611 400.212C476.459 397.408 482.424 394.821 488.42 392.347C494.042 390.03 499.745 388.069 505.469 386.066C506.585 385.676 507.492 385.73 508.403 384.836C509.122 384.131 508.9 382.762 509.688 382.026C511.492 380.338 513.833 381.226 516.001 381.659C520.925 382.641 526.037 383.93 530.732 385.752C535.61 387.645 539.973 388.041 541.145 393.571C543.64 392.401 545.515 392.231 545.217 395.669C545.13 396.68 544.396 397.779 544.22 398.821C543.961 400.357 544.414 401.976 544.158 403.517C543.224 409.117 535.673 413.266 530.994 415.465C525.224 418.176 517.779 422.182 511.337 422.712C504.472 423.276 496.991 420.58 490.176 420.331Z" fill="black"/>
<path fill-rule="evenodd" clip-rule="evenodd" d="M402.796 327.418C400.749 327.431 398.702 327.444 396.656 327.457C398.698 327.073 400.746 327.069 402.796 327.418Z" fill="black"/>
<path fill-rule="evenodd" clip-rule="evenodd" d="M283.063 110.868C282.448 111.891 281.835 112.914 281.22 113.938C281.43 112.619 281.898 111.489 283.063 110.868Z" fill="black"/>
<path fill-rule="evenodd" clip-rule="evenodd" d="M402.796 356.766C404.027 356.777 405.257 356.786 406.48 356.798C405.247 356.789 404.022 356.778 402.796 356.766Z" fill="black"/>
<path fill-rule="evenodd" clip-rule="evenodd" d="M431.041 289.97C429.607 289.893 428.175 289.815 426.743 289.738C428.175 289.815 429.607 289.893 431.041 289.97Z" fill="black"/>
<path fill-rule="evenodd" clip-rule="evenodd" d="M406.48 327.448C405.252 327.436 404.023 327.425 402.796 327.414C404.028 327.078 405.257 327.089 406.48 327.448Z" fill="black"/>
<path fill-rule="evenodd" clip-rule="evenodd" d="M455.347 153.235C455.312 152.007 455.277 150.778 455.242 149.551C455.278 150.78 455.312 152.007 455.347 153.235Z" fill="black"/>
<path fill-rule="evenodd" clip-rule="evenodd" d="M246.567 338.669C246.541 337.645 246.516 336.621 246.49 335.599C246.516 336.623 246.541 337.646 246.567 338.669Z" fill="black"/>
<path fill-rule="evenodd" clip-rule="evenodd" d="M279.992 288.625C280.814 288.625 281.634 288.626 282.449 288.627C281.626 288.627 280.809 288.626 279.992 288.625Z" fill="black"/>
<path fill-rule="evenodd" clip-rule="evenodd" d="M389.902 68.0826C388.878 68.1569 387.854 68.2306 386.832 68.3048C387.855 68.2306 388.879 68.1569 389.902 68.0826Z" fill="black"/>
<path fill-rule="evenodd" clip-rule="evenodd" d="M467.268 292.323C466.04 292.315 464.811 292.307 463.584 292.299C464.811 292.307 466.04 292.315 467.268 292.323Z" fill="black"/>
<path fill-rule="evenodd" clip-rule="evenodd" d="M363.852 368.141C363.821 367.322 363.79 366.501 363.76 365.685C363.791 366.506 363.821 367.324 363.852 368.141Z" fill="black"/>
<path fill-rule="evenodd" clip-rule="evenodd" d="M365.067 336.827C365.045 336.007 365.023 335.188 365.001 334.37C365.023 335.19 365.046 336.008 365.067 336.827Z" fill="black"/>
<path fill-rule="evenodd" clip-rule="evenodd" d="M344.113 350.949C344.143 351.769 344.173 352.589 344.201 353.405C344.172 352.584 344.143 351.767 344.113 350.949Z" fill="black"/>
<path fill-rule="evenodd" clip-rule="evenodd" d="M284.905 288.025C285.521 288.016 286.136 288.008 286.747 287.999C286.129 288.008 285.517 288.016 284.905 288.025Z" fill="black"/>
<path fill-rule="evenodd" clip-rule="evenodd" d="M462.97 319.981C463.586 319.955 464.201 319.928 464.812 319.901C464.194 319.928 463.581 319.955 462.97 319.981Z" fill="black"/>
<path fill-rule="evenodd" clip-rule="evenodd" d="M345.333 370.598C345.368 371.417 345.403 372.238 345.438 373.054C345.403 372.231 345.368 371.415 345.333 370.598Z" fill="black"/>
<path fill-rule="evenodd" clip-rule="evenodd" d="M411.147 366.299C411.106 367.12 411.064 367.939 411.023 368.755C411.064 367.935 411.106 367.117 411.147 366.299Z" fill="black"/>
<path fill-rule="evenodd" clip-rule="evenodd" d="M340.377 0.434804C339.51 0.324281 338.642 0.214678 337.774 0.104154C338.635 0.303096 339.577 -0.434645 340.377 0.434804Z" fill="black"/>
<path fill-rule="evenodd" clip-rule="evenodd" d="M303.054 315.336C303.03 316.156 303.006 316.975 302.982 317.792C303.005 316.97 303.03 316.153 303.054 315.336Z" fill="black"/>
<path fill-rule="evenodd" clip-rule="evenodd" d="M250.276 390.246C250.234 389.427 250.191 388.608 250.149 387.79C250.192 388.609 250.234 389.428 250.276 390.246Z" fill="black"/>
<path fill-rule="evenodd" clip-rule="evenodd" d="M448.847 321.188C449.465 321.175 450.08 321.162 450.689 321.15C450.072 321.164 449.46 321.176 448.847 321.188Z" fill="black"/>
<path fill-rule="evenodd" clip-rule="evenodd" d="M240.382 172.27C240.387 173.09 240.391 173.91 240.395 174.726C240.39 173.905 240.386 173.088 240.382 172.27Z" fill="black"/>
<path fill-rule="evenodd" clip-rule="evenodd" d="M227.499 356.475C227.496 357.295 227.493 358.116 227.489 358.931C227.491 358.11 227.495 357.292 227.499 356.475Z" fill="black"/>
<path fill-rule="evenodd" clip-rule="evenodd" d="M380.533 351.563C380.511 352.383 380.49 353.203 380.467 354.019C380.13 353.177 380.168 352.361 380.533 351.563Z" fill="black"/>
<path fill-rule="evenodd" clip-rule="evenodd" d="M364.43 347.879C364.423 347.059 364.417 346.24 364.41 345.423C364.417 346.244 364.423 347.061 364.43 347.879Z" fill="black"/>
<path fill-rule="evenodd" clip-rule="evenodd" d="M489.987 420.614C490.603 420.631 491.22 420.648 491.829 420.665C491.21 420.649 490.598 420.631 489.987 420.614Z" fill="black"/>
<path fill-rule="evenodd" clip-rule="evenodd" d="M467.882 342.67C468.293 342.663 468.704 342.656 469.11 342.649C468.697 342.656 468.29 342.663 467.882 342.67Z" fill="black"/>
<path fill-rule="evenodd" clip-rule="evenodd" d="M452.531 344.503C452.944 344.502 453.354 344.501 453.76 344.501C453.348 344.502 452.939 344.502 452.531 344.503Z" fill="black"/>
<path fill-rule="evenodd" clip-rule="evenodd" d="M213.408 348.493C213.384 347.879 213.359 347.264 213.335 346.651C213.36 347.266 213.384 347.88 213.408 348.493Z" fill="black"/>
<path fill-rule="evenodd" clip-rule="evenodd" d="M464.812 348.027C464.278 348.567 463.592 348.248 462.97 348.282C463.584 348.197 464.198 348.112 464.812 348.027Z" fill="black"/>
<path fill-rule="evenodd" clip-rule="evenodd" d="M391.744 328.382C390.933 328.765 390.113 328.818 389.288 328.408C390.107 328.4 390.925 328.391 391.744 328.382Z" fill="black"/>
<path fill-rule="evenodd" clip-rule="evenodd" d="M445.163 349.424C444.344 349.418 443.525 349.411 442.707 349.403C443.526 349.411 444.345 349.418 445.163 349.424Z" fill="black"/>
<path fill-rule="evenodd" clip-rule="evenodd" d="M410.778 328.035C409.96 327.961 409.14 327.886 408.322 327.812C409.14 327.886 409.96 327.961 410.778 328.035Z" fill="black"/>
<path fill-rule="evenodd" clip-rule="evenodd" d="M223.22 325.16C223.205 325.776 223.188 326.391 223.172 327.002C223.187 326.386 223.203 325.772 223.22 325.16Z" fill="black"/>
<path fill-rule="evenodd" clip-rule="evenodd" d="M364.373 358.317C364.404 357.702 364.436 357.087 364.467 356.475C364.436 357.092 364.404 357.704 364.373 358.317Z" fill="black"/>
<path fill-rule="evenodd" clip-rule="evenodd" d="M448.847 322.908C448.029 322.977 447.21 323.046 446.391 323.114C447.21 323.046 448.029 322.977 448.847 322.908Z" fill="black"/>
<path fill-rule="evenodd" clip-rule="evenodd" d="M246.554 320.862C246.537 320.247 246.52 319.632 246.503 319.02C246.52 319.636 246.537 320.249 246.554 320.862Z" fill="black"/>
<path fill-rule="evenodd" clip-rule="evenodd" d="M349.142 273.583C349.093 274.198 349.045 274.813 348.997 275.425C349.046 274.81 349.094 274.197 349.142 273.583Z" fill="black"/>
<path fill-rule="evenodd" clip-rule="evenodd" d="M461.128 292.163C460.307 292.588 459.49 292.534 458.672 292.159C459.49 292.16 460.309 292.162 461.128 292.163Z" fill="black"/>
<path fill-rule="evenodd" clip-rule="evenodd" d="M363.86 377.352C363.824 376.736 363.787 376.122 363.752 375.51C363.787 376.126 363.824 376.738 363.86 377.352Z" fill="black"/>
<path fill-rule="evenodd" clip-rule="evenodd" d="M363.845 382.264C363.819 381.649 363.793 381.035 363.767 380.422C363.794 381.037 363.82 381.65 363.845 382.264Z" fill="black"/>
<path fill-rule="evenodd" clip-rule="evenodd" d="M247.744 301.214C247.753 300.599 247.761 299.983 247.769 299.371C247.76 299.988 247.752 300.6 247.744 301.214Z" fill="black"/>
<path fill-rule="evenodd" clip-rule="evenodd" d="M422.445 399.166C422.855 399.154 423.267 399.143 423.673 399.132C423.259 399.145 422.852 399.155 422.445 399.166Z" fill="black"/>
<path fill-rule="evenodd" clip-rule="evenodd" d="M224.473 404.369C224.44 403.754 224.407 403.139 224.374 402.526C224.408 403.141 224.44 403.755 224.473 404.369Z" fill="black"/>
<path fill-rule="evenodd" clip-rule="evenodd" d="M357.359 409.575C357.77 409.583 358.181 409.591 358.587 409.601C358.174 409.592 357.766 409.583 357.359 409.575Z" fill="black"/>
<path fill-rule="evenodd" clip-rule="evenodd" d="M446.391 291.789C445.573 291.727 444.754 291.666 443.935 291.604C444.754 291.666 445.573 291.727 446.391 291.789Z" fill="black"/>
<path fill-rule="evenodd" clip-rule="evenodd" d="M450.689 292.437L448.847 292.183L450.689 292.437Z" fill="black"/>
<path fill-rule="evenodd" clip-rule="evenodd" d="M357.614 357.089C357.649 355.246 357.683 353.404 357.717 351.563C357.682 353.406 357.649 355.247 357.614 357.089Z" fill="black"/>
<path fill-rule="evenodd" clip-rule="evenodd" d="M309.74 289.547C309.761 290.981 309.782 292.415 309.804 293.845C309.783 292.41 309.762 290.978 309.74 289.547Z" fill="black"/>
<path fill-rule="evenodd" clip-rule="evenodd" d="M203.854 379.482C202.829 379.494 201.803 379.506 200.784 379.52C201.812 379.508 202.833 379.495 203.854 379.482Z" fill="black"/>
<path fill-rule="evenodd" clip-rule="evenodd" d="M287.975 257.335C286.949 257.319 285.923 257.302 284.905 257.287C285.933 257.304 286.954 257.32 287.975 257.335Z" fill="black"/>
<path fill-rule="evenodd" clip-rule="evenodd" d="M261.572 281.259C262.596 281.259 263.62 281.258 264.642 281.257C263.619 281.257 262.596 281.259 261.572 281.259Z" fill="black"/>
<path fill-rule="evenodd" clip-rule="evenodd" d="M275.08 256.677C274.259 256.69 273.438 256.705 272.624 256.717C273.448 256.704 274.264 256.69 275.08 256.677Z" fill="black"/>
<path fill-rule="evenodd" clip-rule="evenodd" d="M208.766 379.508C207.945 379.503 207.124 379.498 206.31 379.494C207.134 379.499 207.95 379.503 208.766 379.508Z" fill="black"/>
<path fill-rule="evenodd" clip-rule="evenodd" d="M319.29 65.8445C320.313 65.7733 321.337 65.702 322.36 65.6308C321.336 65.702 320.313 65.7733 319.29 65.8445Z" fill="black"/>
<path fill-rule="evenodd" clip-rule="evenodd" d="M333.048 137.885C333.086 136.861 333.124 135.838 333.162 134.815C333.123 135.839 333.086 136.862 333.048 137.885Z" fill="black"/>
<path fill-rule="evenodd" clip-rule="evenodd" d="M308.237 147.401C307.621 147.401 307.005 147.402 306.395 147.403C307.014 147.403 307.625 147.402 308.237 147.401Z" fill="black"/>
<path fill-rule="evenodd" clip-rule="evenodd" d="M256.046 254.845C255.43 254.852 254.813 254.859 254.204 254.865C254.822 254.859 255.433 254.852 256.046 254.845Z" fill="black"/>
<path fill-rule="evenodd" clip-rule="evenodd" d="M241.923 279.93C242.742 279.997 243.561 280.064 244.379 280.13C243.56 280.064 242.742 279.997 241.923 279.93Z" fill="black"/>
<path fill-rule="evenodd" clip-rule="evenodd" d="M240.369 311.038C240.382 310.218 240.396 309.4 240.407 308.582C240.394 309.402 240.382 310.22 240.369 311.038Z" fill="black"/>
<path fill-rule="evenodd" clip-rule="evenodd" d="M310.693 278.308C311.512 278.228 312.331 278.148 313.149 278.068C312.33 278.148 311.512 278.228 310.693 278.308Z" fill="black"/>
<path fill-rule="evenodd" clip-rule="evenodd" d="M366.803 263.758C366.852 262.939 366.9 262.119 366.949 261.302C366.9 262.123 366.851 262.941 366.803 263.758Z" fill="black"/>
<path fill-rule="evenodd" clip-rule="evenodd" d="M377.621 150.567C378.44 150.503 379.258 150.44 380.077 150.377C379.258 150.44 378.44 150.503 377.621 150.567Z" fill="black"/>
<path fill-rule="evenodd" clip-rule="evenodd" d="M294.115 257.934C293.499 257.928 292.883 257.922 292.273 257.917C292.891 257.922 293.503 257.928 294.115 257.934Z" fill="black"/>
<path fill-rule="evenodd" clip-rule="evenodd" d="M240.433 357.089C240.403 356.474 240.373 355.859 240.343 355.247C240.373 355.862 240.403 356.476 240.433 357.089Z" fill="black"/>
<path fill-rule="evenodd" clip-rule="evenodd" d="M309.276 325.774C310.618 329.102 309.865 326.746 309.899 327.514C308.756 327.667 308.548 327.087 309.276 325.774Z" fill="black"/>
<path fill-rule="evenodd" clip-rule="evenodd" d="M252.976 254.888C252.36 254.866 251.743 254.844 251.134 254.821C251.753 254.844 252.363 254.866 252.976 254.888Z" fill="black"/>
<path fill-rule="evenodd" clip-rule="evenodd" d="M378.484 192.532C378.523 191.713 378.563 190.894 378.601 190.076C378.561 190.896 378.523 191.714 378.484 192.532Z" fill="black"/>
<path fill-rule="evenodd" clip-rule="evenodd" d="M240.391 350.949C240.39 350.13 240.387 349.311 240.385 348.493C240.387 349.314 240.389 350.132 240.391 350.949Z" fill="black"/>
<path fill-rule="evenodd" clip-rule="evenodd" d="M240.324 332.528C240.367 331.914 240.41 331.299 240.452 330.686C240.41 331.302 240.367 331.916 240.324 332.528Z" fill="black"/>
<path fill-rule="evenodd" clip-rule="evenodd" d="M368.018 252.092C368.075 251.477 368.133 250.863 368.19 250.25C368.133 250.865 368.075 251.479 368.018 252.092Z" fill="black"/>
<path fill-rule="evenodd" clip-rule="evenodd" d="M232.324 334.37C232.378 334.986 232.434 335.601 232.488 336.213C232.433 335.598 232.378 334.985 232.324 334.37Z" fill="black"/>
<path fill-rule="evenodd" clip-rule="evenodd" d="M231.087 329.458C231.148 330.073 231.208 330.688 231.269 331.3C231.208 330.685 231.148 330.071 231.087 329.458Z" fill="black"/>
<path fill-rule="evenodd" clip-rule="evenodd" d="M353.913 245.338C353.959 244.724 354.004 244.109 354.05 243.496C354.004 244.111 353.958 244.724 353.913 245.338Z" fill="black"/>
<path fill-rule="evenodd" clip-rule="evenodd" d="M40.5254 328.634C41.3433 328.57 42.1624 328.505 42.9815 328.441C42.1605 328.505 41.3426 328.57 40.5254 328.634Z" fill="black"/>
<path fill-rule="evenodd" clip-rule="evenodd" d="M348.491 343.581C348.467 344.196 348.443 344.812 348.42 345.423C348.444 344.806 348.468 344.194 348.491 343.581Z" fill="black"/>
<path fill-rule="evenodd" clip-rule="evenodd" d="M358.211 345.423C358.257 344.809 358.302 344.194 358.348 343.581C358.302 344.196 358.257 344.809 358.211 345.423Z" fill="black"/>
<path fill-rule="evenodd" clip-rule="evenodd" d="M354.499 242.882C354.563 242.267 354.629 241.653 354.693 241.04C354.628 241.655 354.563 242.268 354.499 242.882Z" fill="black"/>
<path fill-rule="evenodd" clip-rule="evenodd" d="M45.4377 328.044C46.2568 327.964 47.0759 327.883 47.8938 327.802C47.0759 327.883 46.2556 327.964 45.4377 328.044Z" fill="black"/>
<path fill-rule="evenodd" clip-rule="evenodd" d="M305.781 257.305C305.37 257.309 304.958 257.314 304.553 257.318C304.966 257.314 305.374 257.309 305.781 257.305Z" fill="black"/>
<path fill-rule="evenodd" clip-rule="evenodd" d="M240.391 327.002C240.39 326.387 240.387 325.772 240.385 325.16C240.387 325.776 240.39 326.388 240.391 327.002Z" fill="black"/>
<path fill-rule="evenodd" clip-rule="evenodd" d="M359.556 325.774C359.338 325.139 359.231 324.514 359.651 323.932C359.619 324.547 359.588 325.161 359.556 325.774Z" fill="black"/>
<path fill-rule="evenodd" clip-rule="evenodd" d="M349.096 314.108C349.079 314.723 349.06 315.338 349.044 315.95C349.062 315.334 349.079 314.721 349.096 314.108Z" fill="black"/>
<path fill-rule="evenodd" clip-rule="evenodd" d="M349.626 374.896C349.665 375.51 349.703 376.126 349.741 376.738C349.703 376.122 349.665 375.508 349.626 374.896Z" fill="black"/>
<path fill-rule="evenodd" clip-rule="evenodd" d="M394.814 151.569C395.429 151.657 396.043 151.744 396.656 151.832C396.041 151.744 395.428 151.656 394.814 151.569Z" fill="black"/>
<path fill-rule="evenodd" clip-rule="evenodd" d="M392.358 151.626C393.182 151.676 394.087 151.28 394.814 151.86L392.358 151.626Z" fill="black"/>
<path fill-rule="evenodd" clip-rule="evenodd" d="M287.361 281.264C288.179 281.26 288.999 281.256 289.817 281.252C288.998 281.256 288.179 281.26 287.361 281.264Z" fill="black"/>
<path fill-rule="evenodd" clip-rule="evenodd" d="M305.781 150.979L308.237 151.193C307.418 151.122 306.6 151.051 305.781 150.979Z" fill="black"/>
<path fill-rule="evenodd" clip-rule="evenodd" d="M265.256 281.098C266.076 281.101 266.894 281.105 267.712 281.109C266.89 281.504 266.072 281.543 265.256 281.098Z" fill="black"/>
<path fill-rule="evenodd" clip-rule="evenodd" d="M242.914 384.106C242.868 383.49 242.822 382.875 242.774 382.264C242.822 382.88 242.868 383.493 242.914 384.106Z" fill="black"/>
<path fill-rule="evenodd" clip-rule="evenodd" d="M332.478 152.007C332.487 151.392 332.495 150.778 332.505 150.165C332.495 150.781 332.487 151.394 332.478 152.007Z" fill="black"/>
<path fill-rule="evenodd" clip-rule="evenodd" d="M280.606 281.357C281.426 281.291 282.244 281.225 283.063 281.158C282.243 281.225 281.426 281.291 280.606 281.357Z" fill="black"/>
<path fill-rule="evenodd" clip-rule="evenodd" d="M350.277 389.632C350.29 390.247 350.305 390.861 350.318 391.474C350.305 390.858 350.29 390.245 350.277 389.632Z" fill="black"/>
<path fill-rule="evenodd" clip-rule="evenodd" d="M352.447 136.467C353.265 136.389 354.084 136.311 354.903 136.233C354.084 136.311 353.265 136.389 352.447 136.467Z" fill="black"/>
<path fill-rule="evenodd" clip-rule="evenodd" d="M363.108 293.231C363.164 292.617 363.221 292.002 363.276 291.389C363.22 292.004 363.164 292.617 363.108 293.231Z" fill="black"/>
<path fill-rule="evenodd" clip-rule="evenodd" d="M391.367 129.288C391.414 128.673 391.461 128.059 391.507 127.446C391.461 128.062 391.413 128.675 391.367 129.288Z" fill="black"/>
<path fill-rule="evenodd" clip-rule="evenodd" d="M333.087 76.483C333.099 77.0976 333.11 77.7128 333.123 78.325C333.111 77.7091 333.099 77.0957 333.087 76.483Z" fill="black"/>
<path fill-rule="evenodd" clip-rule="evenodd" d="M311.307 65.0211C312.126 65.0892 312.946 65.158 313.763 65.2256C312.945 65.1574 312.126 65.0892 311.307 65.0211Z" fill="black"/>
<path fill-rule="evenodd" clip-rule="evenodd" d="M188.504 414.006C189.323 413.926 190.141 413.846 190.96 413.765C190.141 413.846 189.323 413.926 188.504 414.006Z" fill="black"/>
<path fill-rule="evenodd" clip-rule="evenodd" d="M312.535 58.9841C312.125 58.9834 311.713 58.9828 311.307 58.9828C311.72 58.9841 312.128 58.9841 312.535 58.9841Z" fill="black"/>
<path fill-rule="evenodd" clip-rule="evenodd" d="M161.487 422.003C162.307 421.581 163.125 421.701 163.943 422.006C163.125 422.005 162.305 422.004 161.487 422.003Z" fill="black"/>
<path fill-rule="evenodd" clip-rule="evenodd" d="M480.162 386.365C481.595 386.291 483.028 386.218 484.46 386.145C483.028 386.218 481.595 386.292 480.162 386.365Z" fill="black"/>
<path fill-rule="evenodd" clip-rule="evenodd" d="M480.162 375.788C479.341 375.807 478.52 375.826 477.706 375.845C478.529 375.827 479.346 375.807 480.162 375.788Z" fill="black"/>
<path fill-rule="evenodd" clip-rule="evenodd" d="M467.882 363.611C468.906 363.533 469.929 363.455 470.952 363.377C469.997 363.977 468.906 363.533 467.882 363.611Z" fill="black"/>
<path fill-rule="evenodd" clip-rule="evenodd" d="M456.216 364.876C457.239 364.801 458.262 364.727 459.286 364.653C458.263 364.727 457.239 364.801 456.216 364.876Z" fill="black"/>
<path fill-rule="evenodd" clip-rule="evenodd" d="M439.023 375.912C439.842 375.849 440.661 375.785 441.479 375.721C440.661 375.785 439.842 375.849 439.023 375.912Z" fill="black"/>
<path fill-rule="evenodd" clip-rule="evenodd" d="M443.321 375.914C444.14 375.849 444.959 375.784 445.777 375.72C444.959 375.784 444.14 375.849 443.321 375.914Z" fill="black"/>
<path fill-rule="evenodd" clip-rule="evenodd" d="M446.391 375.311C447.21 375.239 448.028 375.167 448.847 375.094C448.029 375.166 447.21 375.239 446.391 375.311Z" fill="black"/>
<path fill-rule="evenodd" clip-rule="evenodd" d="M450.689 354.321C450.074 354.325 449.458 354.329 448.847 354.332C449.466 354.327 450.078 354.324 450.689 354.321Z" fill="black"/>
<path fill-rule="evenodd" clip-rule="evenodd" d="M466.04 388.147C466.859 388.079 467.678 388.009 468.496 387.94C467.732 388.477 466.869 388.168 466.04 388.147Z" fill="black"/>
<path fill-rule="evenodd" clip-rule="evenodd" d="M442.707 339.093C443.526 339.015 444.344 338.936 445.163 338.858C444.344 338.936 443.526 339.015 442.707 339.093Z" fill="black"/>
<path fill-rule="evenodd" clip-rule="evenodd" d="M439.637 329.153C439.021 329.152 438.405 329.151 437.795 329.15C438.414 329.151 439.026 329.152 439.637 329.153Z" fill="black"/>
<path fill-rule="evenodd" clip-rule="evenodd" d="M433.497 330.376C433.086 330.379 432.675 330.381 432.269 330.382C432.682 330.38 433.089 330.378 433.497 330.376Z" fill="black"/>
<path fill-rule="evenodd" clip-rule="evenodd" d="M418.761 332.087C418.554 332.592 417.469 332.527 417.536 332.009C417.943 332.035 418.352 332.061 418.761 332.087Z" fill="black"/>
<path fill-rule="evenodd" clip-rule="evenodd" d="M390.171 334.37C390.196 334.985 390.221 335.6 390.246 336.213C390.221 335.597 390.196 334.983 390.171 334.37Z" fill="black"/>
<path fill-rule="evenodd" clip-rule="evenodd" d="M474.022 337.625C474.636 337.615 475.25 337.605 475.864 337.595C475.258 338.028 474.643 337.967 474.022 337.625Z" fill="black"/>
<path fill-rule="evenodd" clip-rule="evenodd" d="M450.689 328.529C450.279 328.535 449.867 328.541 449.461 328.546C449.875 328.54 450.282 328.535 450.689 328.529Z" fill="black"/>
<path fill-rule="evenodd" clip-rule="evenodd" d="M434.725 367.335C435.544 367.258 436.363 367.182 437.181 367.106C436.362 367.182 435.544 367.258 434.725 367.335Z" fill="black"/>
<path fill-rule="evenodd" clip-rule="evenodd" d="M424.901 368.555L427.357 368.342L424.901 368.555Z" fill="black"/>
<path fill-rule="evenodd" clip-rule="evenodd" d="M472.794 386.984C473.613 386.907 474.432 386.83 475.25 386.754C474.432 386.83 473.613 386.907 472.794 386.984Z" fill="black"/>
<path fill-rule="evenodd" clip-rule="evenodd" d="M443.321 390.681C444.142 390.382 444.961 390.279 445.777 390.689C444.958 390.686 444.14 390.684 443.321 390.681Z" fill="black"/>
<path fill-rule="evenodd" clip-rule="evenodd" d="M442.02 306.045L440.865 305.646C442.298 305.628 443.731 305.61 445.163 305.593C445.166 305.593 442.185 306.058 442.02 306.045Z" fill="black"/>
<path fill-rule="evenodd" clip-rule="evenodd" d="M431.041 295.382C430.015 295.381 428.989 295.38 427.971 295.379C428.998 295.38 430.02 295.382 431.041 295.382Z" fill="black"/>
<path fill-rule="evenodd" clip-rule="evenodd" d="M392.358 318.852C393.379 318.443 394.403 318.523 395.428 318.841C394.404 318.845 393.381 318.849 392.358 318.852Z" fill="black"/>
<path fill-rule="evenodd" clip-rule="evenodd" d="M454.374 308.878C453.758 308.885 453.141 308.892 452.531 308.9C453.15 308.892 453.761 308.885 454.374 308.878Z" fill="black"/>
<path fill-rule="evenodd" clip-rule="evenodd" d="M441.479 300.806C442.503 300.873 443.527 300.94 444.549 301.007C443.526 300.939 442.502 300.873 441.479 300.806Z" fill="black"/>
<path fill-rule="evenodd" clip-rule="evenodd" d="M428.585 307.155C429.609 307.083 430.632 307.011 431.655 306.938C430.632 307.011 429.609 307.083 428.585 307.155Z" fill="black"/>
<path fill-rule="evenodd" clip-rule="evenodd" d="M436.567 305.922C437.386 305.854 438.204 305.784 439.023 305.715C438.204 305.784 437.386 305.854 436.567 305.922Z" fill="black"/>
<path fill-rule="evenodd" clip-rule="evenodd" d="M429.813 300.192C430.632 300.259 431.451 300.326 432.269 300.393C431.45 300.326 430.631 300.259 429.813 300.192Z" fill="black"/>
<path fill-rule="evenodd" clip-rule="evenodd" d="M418.146 311.972C417.735 311.963 417.325 311.955 416.918 311.946C417.331 311.955 417.739 311.963 418.146 311.972Z" fill="black"/>
<path fill-rule="evenodd" clip-rule="evenodd" d="M431.041 305.857C430.63 305.832 430.219 305.806 429.813 305.781C430.226 305.806 430.633 305.832 431.041 305.857Z" fill="black"/>
<path fill-rule="evenodd" clip-rule="evenodd" d="M423.059 305.835C422.647 305.824 422.236 305.812 421.831 305.801C422.243 305.813 422.651 305.824 423.059 305.835Z" fill="black"/>
<path fill-rule="evenodd" clip-rule="evenodd" d="M445.163 305.264C445.163 305.423 447.013 304.616 447.005 305.367L445.163 305.264Z" fill="black"/>
<path fill-rule="evenodd" clip-rule="evenodd" d="M438.409 295.379C437.998 295.38 437.587 295.381 437.181 295.382C437.594 295.381 438.001 295.38 438.409 295.379Z" fill="black"/>
<path fill-rule="evenodd" clip-rule="evenodd" d="M220.433 266.261C221.098 263.548 220.916 261.425 223.285 263.159C224.584 264.111 226.727 268.938 226.564 270.573C226.364 272.59 225.444 273.394 223.546 272.753C221.363 272.013 220.498 268.291 220.433 266.261Z" fill="black"/>
<path fill-rule="evenodd" clip-rule="evenodd" d="M340.062 249.788C345.561 249.788 343.161 255.64 338.578 255.771C336.472 255.831 333.441 255.416 334.124 252.596C334.489 251.091 339.832 249.063 340.062 249.788Z" fill="black"/>
<path fill-rule="evenodd" clip-rule="evenodd" d="M281.082 261.302C285.051 263.223 279.466 271.657 275.86 269.569C271.241 266.897 279.45 262.506 281.082 261.302Z" fill="black"/>
<path fill-rule="evenodd" clip-rule="evenodd" d="M271.423 269.285C272.723 270.702 278.578 275.506 275.351 277.439C271.382 279.814 268.361 271.972 271.423 269.285Z" fill="black"/>
<path fill-rule="evenodd" clip-rule="evenodd" d="M204.884 265.6C203.593 263.103 205.37 256.568 209.313 257.763C213.281 258.965 207.068 264.937 204.884 265.6Z" fill="black"/>
<path fill-rule="evenodd" clip-rule="evenodd" d="M292.481 267.04C295.056 266.003 294.565 269.07 294.955 270.059C295.396 271.182 297.662 273.92 297.094 275.116C296.25 276.891 294.233 275.759 293.138 274.607C291.218 272.587 291.354 269.346 292.481 267.04Z" fill="black"/>
<path fill-rule="evenodd" clip-rule="evenodd" d="M253.246 269.882C251.1 269.882 245.978 263.695 248.988 262.657C252.723 261.369 255.847 270.336 253.246 269.882Z" fill="black"/>
<path fill-rule="evenodd" clip-rule="evenodd" d="M327.4 260.074C329.365 260.559 331.966 266.123 329.004 266.768C325.725 267.484 325.14 261.613 327.4 260.074Z" fill="black"/>
<path fill-rule="evenodd" clip-rule="evenodd" d="M315.484 270.513C313.943 267.544 313.563 261.191 317.326 266.291C318.142 267.395 318.983 266.948 318.564 268.771C318.198 270.362 316.738 270.513 315.484 270.513Z" fill="black"/>
<path fill-rule="evenodd" clip-rule="evenodd" d="M234.3 255.162C235.871 257.527 235.407 264.941 232.125 260.556C230.728 258.692 231.69 255.251 234.3 255.162Z" fill="black"/>
<path fill-rule="evenodd" clip-rule="evenodd" d="M313.265 32.3338C316.313 31.5469 317.043 38.7327 315.266 39.5248C312.777 40.6333 313.089 33.5358 313.265 32.3338Z" fill="black"/>
<path fill-rule="evenodd" clip-rule="evenodd" d="M506.047 397.399C503.218 397.234 499.255 396.462 503.54 394.455C506.259 393.182 510.301 393.094 513.171 393.616C515.15 393.976 518.119 395.616 515.1 397.742C513.332 398.985 508.196 397.46 506.047 397.399Z" fill="black"/>
<path fill-rule="evenodd" clip-rule="evenodd" d="M502.877 402.526C502.058 402.434 501.241 402.342 500.425 402.251C501.081 401.06 502.986 400.81 502.877 402.526Z" fill="black"/>
<path fill-rule="evenodd" clip-rule="evenodd" d="M506.565 397.28C507.386 397.298 508.207 397.317 509.021 397.334C508.198 397.317 507.381 397.298 506.565 397.28Z" fill="black"/>
</svg>
