<svg width="531" height="452" viewBox="0 0 531 452" fill="none" xmlns="http://www.w3.org/2000/svg">
<path fill-rule="evenodd" clip-rule="evenodd" d="M244.026 76.9637L244.53 76.4825C244.916 76.1145 245.215 75.8297 245.513 75.5448C245.384 75.5887 245.24 75.6129 245.094 75.6378C244.551 75.7288 243.972 75.8257 244.026 76.9637ZM290.874 119.84C287.442 118.533 284.279 118.035 280.77 117.483L280.763 117.481C280.449 117.432 280.133 117.382 279.812 117.331C280.217 117.295 280.621 117.258 281.026 117.221L281.081 117.216L281.093 117.215C281.544 117.174 281.993 117.133 282.444 117.092C281.438 116.387 280.179 116.073 278.93 115.762C278.267 115.597 277.608 115.433 276.99 115.212C275.975 114.848 275.033 114.381 274.091 113.914L274.09 113.913H274.09V113.913H274.089H274.088C273.349 113.546 272.609 113.179 271.833 112.862C270.183 112.186 268.526 111.532 266.868 110.878H266.867H266.867C264.278 109.856 261.685 108.833 259.112 107.725C258.768 107.576 258.401 107.445 258.028 107.312H258.028C257.01 106.95 255.952 106.572 255.223 105.792C255.041 105.563 254.86 105.333 254.68 105.103C254.607 104.144 254.223 103.95 253.529 104.521L253.342 104.596C253.201 104.653 253.059 104.71 252.918 104.766C252.364 104.393 251.869 103.953 251.435 103.447C249.352 101.136 247.937 98.0832 246.585 95.1681C246.184 94.3018 245.788 93.4473 245.382 92.6288C240.725 83.2385 235.965 73.4705 232.934 63.3966C230.928 56.7289 229.904 49.9185 228.877 43.0969V43.0963C228.52 40.7214 228.162 38.3451 227.763 35.9727C227.064 31.822 226.472 27.6316 225.88 23.4381C225.007 17.2521 224.133 11.0593 222.911 4.97781C222.88 4.8261 222.819 4.59122 222.745 4.30436C222.373 2.8747 221.667 0.15335 222.724 0.000130271C222.91 -0.0267814 224.319 4.12266 225.018 6.18078V6.18163L225.019 6.18556C225.204 6.72845 225.338 7.12505 225.388 7.25974C226.187 9.43611 226.821 11.6602 227.456 13.8909V13.891C228.124 16.2353 228.795 18.5869 229.661 20.8983C233.059 29.969 237.405 38.8565 242.051 47.2666C243.851 50.5248 245.277 53.931 246.704 57.3398V57.3405C248.639 61.9652 250.578 66.5952 253.456 70.869C255.566 74.0021 257.819 77.0266 260.073 80.0524H260.074V80.053L260.075 80.0537L260.075 80.0543V80.055L260.076 80.0556V80.0563H260.077V80.0569C261.393 81.8242 262.711 83.5921 263.999 85.3823C264.507 86.0882 265 86.794 265.49 87.4953L265.492 87.4979V87.4986C267.668 90.6167 269.775 93.6352 272.837 96.0802C276.637 99.1151 279.837 102.444 282.517 106.483C283.757 108.352 285.158 110.127 286.828 111.631C287.318 112.071 287.832 112.449 288.331 112.817C289.706 113.827 290.972 114.759 291.339 116.699C291.131 116.69 290.923 116.681 290.715 116.672L290.698 116.671L290.612 116.667C290.412 116.659 290.212 116.65 290.013 116.641C290.299 117.708 290.586 118.774 290.874 119.84ZM425.95 181.476L426.539 181.567C426.76 179.861 426.323 179.857 425.95 181.476ZM387.749 166.618C388.036 167.121 388.343 167.66 387.792 167.864C387.741 167.729 387.686 167.604 387.635 167.485C387.44 167.04 387.282 166.678 387.527 166.199C387.585 166.329 387.666 166.472 387.749 166.618ZM424.426 181.747C424.839 181.022 425.2 180.912 425.507 181.417C425.422 181.515 425.349 181.601 425.287 181.676L425.244 181.728L425.185 181.801C425.023 181.999 424.95 182.09 424.874 182.092C424.809 182.093 424.743 182.033 424.62 181.92C424.567 181.872 424.504 181.814 424.426 181.747ZM369.269 147.568C370.028 146.765 369.917 146.37 368.836 146.337C369.017 146.852 369.143 147.21 369.269 147.568ZM369.871 149.891C368.18 149.226 368.075 149.28 367.569 151.06L369.871 149.891ZM389.535 163.655H389.535H389.534L389.533 163.654H389.533C388.875 163.405 388.21 163.153 387.506 162.997C387.359 162.333 387.881 161.468 388.665 161.533C389.185 161.576 389.294 161.951 389.401 162.324C389.486 162.621 389.571 162.916 389.863 163.042C390.271 163.221 390.649 163.06 391.02 162.904C391.296 162.786 391.569 162.671 391.847 162.699C392.702 162.785 393.644 163.408 393.894 164.245C392.286 164.696 390.93 164.183 389.535 163.655ZM363.942 147.338C359.472 150.923 355.951 155.612 357.844 161.601C357.799 160.871 358.022 160.58 358.512 160.727C358.538 160.95 358.58 161.15 358.617 161.326L358.618 161.326C358.746 161.933 358.814 162.254 357.942 162.314C358.026 162.694 358.089 163.123 358.155 163.566V163.567C358.295 164.502 358.444 165.502 358.81 166.25C358.993 166.622 359.097 166.894 359.172 167.089C359.262 167.323 359.31 167.447 359.399 167.502C359.499 167.562 359.652 167.536 359.974 167.48C360.175 167.445 360.441 167.399 360.801 167.356C359.411 169.415 361.231 171.405 362.699 173.011C362.986 173.325 363.259 173.623 363.493 173.905C363.907 174.406 364.32 174.918 364.735 175.433C365.94 176.928 367.163 178.446 368.51 179.773C368.874 180.132 369.23 180.521 369.584 180.906C370.458 181.86 371.315 182.794 372.231 183.22C373.565 183.84 375.41 184.248 377.06 184.613C377.605 184.734 378.128 184.849 378.605 184.967C382.946 186.032 387.044 186.989 391.325 187.985C392.569 188.275 393.786 188.688 395.004 189.1V189.101H395.004H395.005H395.006V189.102H395.006H395.007H395.007V189.102H395.008C396.365 189.563 397.724 190.024 399.119 190.312C399.793 190.452 400.483 190.57 401.175 190.687L401.176 190.688C402.573 190.925 403.982 191.164 405.307 191.594C409.332 192.901 413.82 193.623 418.166 194.226C420.714 194.58 423.237 195.085 425.759 195.59L425.76 195.591H425.761C428.511 196.141 431.26 196.691 434.042 197.046C439.196 197.704 444.334 198.468 449.456 199.381C450.457 199.56 451.495 199.692 452.536 199.825H452.536H452.537H452.538H452.538L452.539 199.826H452.54C453.981 200.009 455.428 200.194 456.787 200.503C457.557 200.678 458.246 200.923 458.909 201.159C460.362 201.677 461.695 202.152 463.507 201.749C462.075 198.95 460.676 196.174 459.446 193.276C458.75 191.634 457.656 190.491 456.453 189.233C456.016 188.776 455.564 188.303 455.112 187.787C450.583 182.611 445.605 179.16 439.831 175.489C436.956 173.662 434.11 171.79 431.264 169.918L431.264 169.918C423.544 164.841 415.83 159.768 407.573 155.591C402.261 152.904 396.71 150.444 391.029 148.642C388.909 147.969 386.72 147.545 384.6 147.134L384.227 147.061L383.994 147.016C383.351 146.89 382.782 146.603 382.217 146.319C381.686 146.051 381.159 145.784 380.577 145.655C380.296 145.593 379.78 145.657 379.259 145.721C378.778 145.78 378.292 145.84 377.981 145.802C377.051 145.689 376.142 145.566 375.245 145.445C373.484 145.207 371.767 144.975 370.021 144.834C369.38 144.782 369.164 144.686 369.02 144.622C368.806 144.527 368.753 144.504 367.696 144.803C366.635 145.105 365.452 146.087 364.497 146.882C364.301 147.044 364.115 147.199 363.942 147.338ZM233.008 161.853C233.359 161.667 233.712 161.479 234.218 161.21L234.419 161.104C233.414 160.596 233.241 161.135 233.076 161.648C233.063 161.69 233.05 161.73 233.037 161.77L233.025 161.806C233.019 161.822 233.014 161.838 233.008 161.853ZM207.614 199.726C207.121 199.481 206.88 199.361 206.739 199.435C206.603 199.504 206.559 199.75 206.472 200.23C206.852 200.062 207.174 199.92 207.614 199.726H207.614ZM225.11 218.828C225.058 218.961 224.996 219.093 224.936 219.222C224.638 219.863 224.383 220.409 225.704 220.484C225.498 219.911 225.329 219.441 225.11 218.828ZM267.677 177.357C267.77 177.029 267.855 176.731 267.948 176.407L267.952 176.39L267.971 176.325C268.05 176.048 268.134 175.751 268.235 175.399C267.089 175.99 266.677 176.457 267.677 177.357ZM227.039 223.804C225.848 223.945 224.657 224.086 223.466 224.227L223.501 224.123L223.539 224.01C223.766 223.334 223.882 222.988 223.778 222.731C223.67 222.462 223.32 222.29 222.605 221.938L222.536 221.904C222.653 222.308 222.771 222.712 222.889 223.116L222.931 223.262L223.077 223.763L223.236 224.306L223.022 224.336L222.837 224.361C220.936 224.618 218.894 224.895 217.242 224.778C217.102 224.768 216.998 224.681 216.886 224.588C216.73 224.457 216.556 224.311 216.244 224.338C215.806 224.375 214.751 224.825 215.49 225.134C213.235 225.345 211.044 225.292 208.832 225.239H208.832H208.831H208.83H208.83H208.829H208.828H208.826H208.825H208.824H208.823H208.822H208.821H208.819H208.819H208.817H208.816H208.815C207.587 225.209 206.353 225.179 205.099 225.194C204.477 225.202 203.845 225.263 203.211 225.326H203.21H203.21H203.209H203.208H203.208C202.263 225.418 201.315 225.511 200.395 225.424C199.625 225.352 198.856 225.182 198.08 225.009H198.079C197.228 224.821 196.368 224.63 195.492 224.566C194.534 224.497 193.546 224.446 192.548 224.394C189.898 224.258 187.165 224.117 184.678 223.604L184.486 223.565C182.669 223.192 182.556 223.169 183.997 221.703C184.655 221.034 185.373 220.434 186.092 219.834C186.23 219.719 186.369 219.604 186.507 219.488C191.339 215.428 196.171 211.017 199.982 205.955C202.638 202.428 204.349 198.365 206.059 194.306C206.86 192.404 207.661 190.503 208.559 188.658C209.68 186.353 210.707 183.87 211.751 181.346C215.592 172.064 219.66 162.231 229.439 158.704C230.76 158.228 232.147 157.957 233.541 157.684H233.542L233.543 157.683H233.543C234.886 157.42 236.235 157.157 237.541 156.707C240.081 155.831 242.665 155.311 245.283 154.786L245.286 154.785C245.912 154.659 246.54 154.532 247.17 154.401C247.397 154.353 247.634 154.304 247.877 154.252C250.653 153.665 254.403 152.873 257.034 153.24C258.811 153.488 263.832 155.618 264.682 157.185C263.88 157.444 263.227 157.918 262.568 158.397C262.274 158.611 261.979 158.826 261.669 159.022C260.931 159.49 260.206 159.735 259.458 159.989H259.458C259.031 160.133 258.598 160.28 258.15 160.472C256.122 161.341 254.153 162.653 252.226 163.935V163.936H252.226L252.225 163.936C251.306 164.548 250.397 165.154 249.497 165.7C243.469 169.363 237.731 173.39 232.128 177.673C229.343 179.802 226.725 182.15 224.127 184.48C222.291 186.126 220.465 187.765 218.596 189.31C215.526 191.849 207.304 199.282 210.848 203.428C213.321 201.334 215.823 199.278 218.333 197.228C218.734 196.901 219.202 196.43 219.708 195.921C220.998 194.625 222.536 193.081 223.856 193.007C221.842 195.541 219.692 197.94 217.534 200.347C217.345 200.558 217.155 200.769 216.966 200.98C219.492 201.296 222.014 198.681 224.078 196.541C224.7 195.896 225.281 195.294 225.808 194.828C226.625 194.105 227.522 193.639 228.434 193.165C229.14 192.798 229.855 192.426 230.55 191.926C231.13 191.51 231.616 191.042 232.097 190.581C232.798 189.907 233.487 189.244 234.436 188.767C236.953 187.5 239.22 185.756 241.437 184.05C242.1 183.539 242.759 183.032 243.42 182.542C244.184 181.975 244.895 181.331 245.574 180.715C246.017 180.315 246.445 179.926 246.867 179.579C246.986 179.481 247.167 179.328 247.386 179.141L247.39 179.138L247.391 179.137C248.431 178.254 250.342 176.63 250.86 176.504C251.023 176.848 251.186 177.192 251.349 177.536C251.786 176.595 252.122 176.531 252.573 176.446C252.879 176.388 253.237 176.321 253.714 175.964C254.088 175.684 254.131 175.321 254.168 175.009C254.195 174.788 254.218 174.593 254.354 174.472C254.672 174.19 255.52 173.717 256.268 173.3C256.689 173.066 257.077 172.849 257.322 172.694C257.745 172.425 257.99 172.187 258.173 172.007C258.589 171.601 258.691 171.5 259.88 172.046C259.514 171.013 259.85 170.735 260.888 171.212L260.841 170.495L260.804 169.93L260.742 168.999V168.994L260.741 168.973C265.43 168.973 269.086 167.056 273.001 164.416C273.371 164.166 273.647 163.932 273.878 163.737V163.736C274.566 163.152 274.859 162.903 276.106 163.554C276.82 163.928 277.432 164.836 277.94 165.59L277.94 165.591V165.592C278.082 165.801 278.215 165.999 278.34 166.17C279.659 167.969 280.319 169.233 280.751 171.404C280.187 170.838 279.757 170.802 279.461 171.297C279.571 171.464 279.707 171.638 279.848 171.819C280.267 172.359 280.732 172.957 280.693 173.553C280.658 174.077 280.515 174.004 280.352 173.921C280.211 173.85 280.057 173.772 279.943 174.055C279.833 174.333 279.622 174.611 279.409 174.893C279.122 175.274 278.828 175.662 278.768 176.065C278.681 176.639 278.826 176.972 278.961 177.277C279.148 177.704 279.312 178.078 278.782 178.983C278.005 178.279 277.807 178.222 276.91 178.764L277.189 179.258C277.375 179.588 277.562 179.917 277.748 180.247C276.673 180.247 276.909 180.94 277.2 181.793C277.413 182.419 277.655 183.132 277.432 183.721C277.086 184.626 276.372 185.198 275.67 185.76C274.678 186.553 273.714 187.325 273.863 188.986L275.207 186.873C275.14 187.878 274.863 188.418 274.535 189.059C274.395 189.331 274.247 189.62 274.102 189.971C274.01 190.193 273.927 190.479 273.839 190.784C273.658 191.415 273.455 192.122 273.098 192.491C272.656 191.784 272.214 191.076 271.772 190.369C272.091 193.277 271.65 195.363 269.94 197.838C269.693 198.196 269.334 198.508 268.983 198.813C268.59 199.154 268.206 199.487 268.003 199.866C267.775 200.289 267.815 200.79 267.853 201.275C267.892 201.772 267.93 202.252 267.683 202.618C267.413 203.018 267.004 203.168 266.589 203.319L266.588 203.32C266.398 203.389 266.205 203.459 266.025 203.554C265.53 203.204 265.126 203.288 264.814 203.806C264.595 204.086 264.466 204.402 264.428 204.754C264.531 204.886 264.634 205.018 264.737 205.149L264.805 205.234C264.342 206.295 263.86 206.396 263.358 205.54C262.44 206.03 262.25 206.268 261.698 207.406C260.078 207.684 258.317 208.79 256.657 209.833C255.908 210.302 255.18 210.759 254.495 211.122C251.683 212.612 249.202 213.478 246.308 214.435C245.68 214.642 245.181 214.998 244.69 215.348C244.301 215.625 243.916 215.899 243.477 216.093C242.903 216.347 242.295 216.387 241.723 216.424C241.217 216.457 240.738 216.487 240.337 216.664C239.905 216.853 239.588 217.131 239.271 217.409C238.802 217.821 238.332 218.233 237.494 218.354C236.06 218.559 234.549 218.094 233.308 217.391L233.357 217.481L233.389 217.539L233.429 217.609L233.488 217.715L233.547 217.821C233.971 218.579 234.192 218.976 234.11 219.293C234.019 219.64 233.562 219.892 232.606 220.419L232.538 220.457L232.534 220.444C232.484 220.235 231.881 217.711 231.324 218.456C231.118 218.73 231.228 219.157 231.344 219.607C231.474 220.113 231.611 220.649 231.323 221.033C231.087 221.347 230.401 221.57 229.853 221.749C229.611 221.828 229.397 221.899 229.26 221.963C229.104 221.94 228.949 221.917 228.793 221.893L228.617 221.867L228.376 221.83L227.99 222.401L227.701 222.826L227.388 223.289L227.039 223.804ZM254.622 27.9577C254.622 28.7624 255.998 28.5267 255.976 27.9577H254.622ZM275.79 48.127C275.252 47.2876 275.354 46.896 276.096 46.953C276.158 47.2371 276.216 47.4421 276.258 47.592C276.318 47.8061 276.347 47.9083 276.309 47.9672C276.275 48.0209 276.186 48.0399 276.018 48.0759C275.954 48.0897 275.878 48.1054 275.79 48.127ZM269.978 65.7794C270.15 65.9031 270.156 66.258 270.167 66.9783C269.688 66.6024 269.299 66.2979 268.85 65.947C269.488 65.7558 269.811 65.6589 269.978 65.7794ZM251.373 41.4213C256.81 51.6615 262.478 61.9639 270.364 70.5822L270.386 70.5134L270.387 70.5089C270.612 69.8076 270.837 69.1057 271.061 68.4044C271.167 68.6735 271.266 68.9727 271.368 69.2805C271.605 69.9981 271.859 70.7649 272.259 71.3201C272.483 71.6318 272.733 71.751 272.985 71.8715C273.285 72.0149 273.591 72.1602 273.86 72.6356C273.98 72.8478 273.995 73.1981 274.01 73.5693C274.025 73.9465 274.042 74.3453 274.171 74.6406C274.598 75.6096 275.615 76.6246 276.54 77.5478C276.968 77.9747 277.377 78.3813 277.697 78.7552C280.912 82.5006 283.771 86.3658 286.668 90.2834L286.669 90.284C287.405 91.28 288.144 92.2792 288.892 93.2803C289.384 93.9397 289.88 94.6698 290.389 95.4189H290.39C291.699 97.3465 293.096 99.4019 294.738 100.711L294.849 100.8C295.538 101.349 295.807 101.565 295.88 101.511C295.927 101.477 295.892 101.332 295.835 101.092C295.777 100.849 295.697 100.51 295.654 100.093C295.537 98.9331 295.108 97.691 294.692 96.4914C294.485 95.891 294.281 95.301 294.121 94.7379C293.768 93.4859 293.311 92.1456 292.838 90.7568V90.7561L292.837 90.7548V90.7542H292.837V90.7529L292.836 90.7515V90.7509C291.312 86.282 289.616 81.305 290.626 77.113C291.695 72.6788 294.576 68.3428 297.178 64.4259C297.611 63.7737 298.036 63.1334 298.444 62.5061C298.619 62.2383 298.878 61.9083 299.161 61.5481V61.5475L299.161 61.5462H299.162C299.863 60.6517 300.714 59.5681 300.793 58.7699C300.883 57.8617 300.528 57.6122 299.844 57.1329C299.658 57.0026 299.448 56.8553 299.216 56.6733C298.459 56.08 297.674 55.5143 296.889 54.9479H296.889C295.443 53.9061 293.996 52.8624 292.712 51.6386C288.588 47.7079 283.902 43.5736 279.05 40.4987C276.575 38.9299 273.984 37.5982 271.395 36.2672C268.258 34.6546 265.123 33.043 262.196 31.0116L261.916 31.4032C261.599 31.8467 261.282 32.2901 260.965 32.7344C260.718 31.1838 259.548 30.6907 258.342 30.1821C257.865 29.9811 257.383 29.7777 256.949 29.5056C257.492 29.101 258.036 28.6963 258.578 28.291C257.593 27.5579 256.593 26.9842 255.636 26.4345V26.4344C254.978 26.0571 254.341 25.6912 253.741 25.2927C253.622 24.4435 253.14 23.8555 252.296 23.53L251.95 23.2602C251.689 23.0569 251.427 22.8536 251.166 22.6507C250.932 22.4701 250.7 22.2893 250.467 22.1084L250.464 22.106L250.461 22.1036C249.564 21.4076 248.668 20.7116 247.763 20.0263C243.528 16.8172 239.244 13.6559 234.792 10.7558C234.836 12.336 236.184 14.0452 237.422 15.6149V15.615C238.026 16.3803 238.603 17.1125 238.99 17.7804C240.208 19.8784 241.302 22.0559 242.395 24.2271L242.395 24.2276V24.2282L242.396 24.2287C242.702 24.8366 243.007 25.444 243.315 26.049C245.754 30.8414 248.269 35.5757 250.79 40.3219L250.79 40.3233L251.373 41.4213ZM474.217 175.237C474.567 174.493 474.724 174.158 474.618 173.993C474.53 173.858 474.265 173.838 473.783 173.801C473.837 173.979 473.89 174.157 473.95 174.357C474.025 174.603 474.109 174.882 474.217 175.237ZM476.964 174.519C476.909 174.609 476.856 174.696 476.805 174.78C476.73 174.905 476.659 175.022 476.592 175.134C475.546 176.885 475.405 177.121 472.96 176.606C472.956 177.187 473.017 177.766 473.078 178.342V178.343V178.344V178.344C473.184 179.355 473.289 180.358 473.047 181.366C472.981 181.638 472.85 181.889 472.721 182.133C472.573 182.414 472.43 182.687 472.4 182.972C472.377 183.182 472.469 183.377 472.569 183.588C472.685 183.831 472.812 184.097 472.782 184.435C472.561 186.877 471.504 189.457 470.498 191.912C470.077 192.937 469.666 193.94 469.329 194.904C468.261 192.58 467.274 190.191 466.285 187.796L466.284 187.794L466.283 187.793V187.793V187.792L466.283 187.791C463.736 181.627 461.172 175.42 457.172 170.165C455.046 167.373 452.635 164.955 450.19 162.504C449.535 161.847 448.879 161.189 448.225 160.521C447.94 160.23 447.658 159.94 447.379 159.653L447.365 159.639C444.634 156.835 442.096 154.228 438.734 152.087C435.771 150.2 432.174 148.197 428.851 147.134C428.053 146.878 427.243 146.729 426.429 146.579C425.393 146.389 424.35 146.197 423.316 145.784C421.555 145.081 419.889 144.519 418.052 144.051C415.615 143.431 413.197 142.731 410.781 142.031H410.78H410.779H410.779L410.778 142.03H410.777H410.777H410.776L410.775 142.03H410.775C408.548 141.385 406.323 140.741 404.087 140.16C403.378 139.976 402.698 139.701 402.011 139.423C401.333 139.149 400.65 138.872 399.928 138.679C399.116 138.461 398.269 138.34 397.421 138.219C395.924 138.005 394.425 137.791 393.124 137.048C395.009 136.073 396.931 135.928 398.909 135.779C399.677 135.72 400.453 135.662 401.239 135.554C402.319 135.405 403.393 135.247 404.465 135.09H404.466C406.318 134.819 408.167 134.548 410.034 134.324C415.599 133.656 421.075 133.547 426.657 133.501C430.751 133.468 434.884 134.391 438.956 135.301H438.957C439.879 135.507 440.798 135.712 441.713 135.906C443.467 136.276 445.007 136.941 446.557 137.609C447.592 138.057 448.632 138.505 449.745 138.87C450.253 139.036 450.772 139.103 451.29 139.17C451.705 139.223 452.12 139.276 452.53 139.381C453.91 139.733 454.884 140.367 456.043 141.122C456.189 141.217 456.338 141.313 456.491 141.412C454.277 142.744 462.206 148.931 466.3 152.125H466.301C467.444 153.017 468.288 153.676 468.529 153.93C470.776 156.307 472.359 159.198 473.631 162.19C473.785 162.552 473.973 162.955 474.175 163.388C475.332 165.867 476.93 169.289 475.031 171.291C475.447 171.127 475.863 170.963 476.278 170.798C476.535 171.034 476.093 173.859 476.01 174.391V174.391V174.392L476.01 174.393V174.393L476.007 174.413L476.964 174.519ZM489.916 58.2997C492.115 57.0714 494.784 55.5804 495.727 53.5814C496.383 52.6142 497.223 52.0433 498.127 51.4284C498.311 51.304 498.497 51.177 498.685 51.0447C500.085 50.0599 500.962 49.0679 502.037 47.6988C500.362 47.2869 497.649 48.2566 495.457 49.0404C494.754 49.2919 494.104 49.5243 493.56 49.6854C492.295 50.0606 491.049 50.4999 489.8 50.9406C488.267 51.4815 486.729 52.0236 485.147 52.4505C481.88 53.3325 478.67 54.28 475.431 55.2373C475.064 55.346 474.64 55.4586 474.184 55.5798C471.892 56.1881 468.782 57.0131 467.835 58.6867C467.078 57.5238 464.887 58.9951 463.224 60.1122C462.659 60.4907 462.156 60.8285 461.79 61.0092C461.386 61.2089 460.982 61.4159 460.577 61.6241C459.072 62.3967 457.539 63.1831 455.857 63.6546C455.062 63.8779 454.417 64.236 453.765 64.5988C453.269 64.8744 452.769 65.1527 452.194 65.3753C451.658 65.5842 451.155 65.7027 450.659 65.8186C450.023 65.9679 449.401 66.1146 448.739 66.444C448.446 66.59 448.15 66.7445 447.851 66.9003L447.849 66.901C445.776 67.982 443.549 69.1423 441.328 68.0449C440.758 69.6832 439.135 69.824 437.625 69.9556C437.244 69.9883 436.871 70.021 436.523 70.0767C436.252 70.1206 435.919 70.1265 435.573 70.1324C435.031 70.1422 434.456 70.152 434.032 70.3092C433.596 70.4709 433.293 70.8245 432.994 71.1741C432.657 71.5657 432.326 71.952 431.818 72.0542C431.497 72.1183 431.162 71.9586 430.846 71.808C430.56 71.6711 430.29 71.5415 430.059 71.5938C429.876 71.6364 429.591 71.9304 429.302 72.2296C429.049 72.4896 428.794 72.7541 428.599 72.8569C427.738 73.3159 426.514 73.5268 425.48 73.7042C425.308 73.7337 425.14 73.7625 424.981 73.7913C424.826 73.8201 424.568 73.6577 424.337 73.513C424.138 73.388 423.959 73.2753 423.887 73.312C423.663 73.4272 423.536 73.7494 423.409 74.0702C423.278 74.4029 423.148 74.7342 422.91 74.8363C422.355 75.078 421.995 74.9267 421.712 74.8082C421.323 74.6458 421.078 74.543 420.67 75.5861C420.411 75.4505 420.15 75.315 419.889 75.1788C419.696 75.0786 419.504 74.9784 419.311 74.8776C418.531 77.0679 417.873 79.2856 417.215 81.5021C416.394 84.2679 415.574 87.033 414.517 89.7419L414.441 89.9363C414.052 90.9375 413.66 91.9426 413.169 92.8979C413.047 93.135 412.751 93.5259 412.42 93.9659C411.78 94.8132 411.003 95.8425 411.059 96.3048C411.179 97.3007 411.443 97.1462 412.133 96.7428C412.365 96.6073 412.645 96.4436 412.984 96.2858L414.458 95.6002C415.404 95.1602 416.35 94.7202 417.297 94.2795C416.378 94.125 416.721 93.6038 417.19 93.1232C417.685 94.694 419.515 93.6948 421.036 92.8645C421.423 92.6531 421.79 92.4527 422.11 92.308C422.96 91.9256 423.808 91.5406 424.656 91.1549L424.657 91.1543L424.659 91.1536L424.661 91.1529L424.663 91.1523L424.664 91.1516C425.795 90.6376 426.926 90.1243 428.06 89.6161C428.861 89.2573 429.662 88.8939 430.463 88.5305L430.465 88.5299C433.019 87.3709 435.58 86.2093 438.174 85.1813C442.938 83.2935 447.686 81.0188 452.458 78.733C454.169 77.9138 455.882 77.0927 457.601 76.2873C464.958 72.8406 472.078 69.4691 478.855 65.0126C480.939 63.6421 483.104 62.3483 485.261 61.059H485.262C486.301 60.4376 487.338 59.8182 488.363 59.1909C488.826 58.908 489.355 58.6127 489.916 58.2997ZM291.071 109.534C290.285 109.305 289.802 108.551 289.321 107.798C289.027 107.338 288.733 106.879 288.37 106.54C288.304 106.478 288.239 106.418 288.177 106.36L288.037 106.231C287.264 105.516 286.839 105.123 286.222 104.074C284.474 101.1 282.678 98.5474 280.455 95.9106C280.017 95.392 279.582 94.878 279.148 94.3673L279.143 94.3601C275.084 89.5736 271.259 85.0647 268.541 79.2208C272.446 82.0148 275.395 86.242 278.213 90.284C279.043 91.4738 279.861 92.6478 280.69 93.7636C281.397 94.7169 282.115 95.6592 282.833 96.6001C285.956 100.696 289.056 104.762 291.071 109.534ZM328.375 91.9439C328.272 92.6223 328.175 93.2685 328.912 93.8251C329.013 93.4218 329.133 93.0047 329.257 92.5791C329.592 91.4181 329.945 90.1976 329.945 89.0491C329.969 88.8834 329.993 88.7178 330.016 88.5521L330.048 88.3236C330.061 88.2346 330.074 88.1449 330.086 88.0551C330.315 87.5136 330.091 87.1666 329.411 87.0127C329.414 86.8156 329.589 86.5996 329.773 86.3743C330.003 86.0901 330.246 85.7915 330.17 85.4956C329.877 84.3582 328.894 83.3106 328.271 84.1664C328.264 84.1768 328.246 84.3026 328.219 84.4957V84.4964C328.136 85.0968 327.963 86.3501 327.712 86.8169C327.483 87.2432 327.259 87.5051 327.085 87.7068C326.702 88.1527 326.569 88.3079 327.197 89.2933C327.456 89.6993 327.659 89.7569 327.829 89.8047C328.063 89.8709 328.237 89.92 328.413 90.8242C328.487 91.2007 328.43 91.5772 328.375 91.9439ZM325.394 97.3485C325.299 96.5615 325.105 95.9689 324.94 95.4654C324.541 94.2481 324.314 93.5527 326.063 91.9092C325.97 92.4979 325.876 93.0865 325.782 93.6745L325.585 94.9134L325.501 95.4424C326.478 95.0692 326.498 94.4701 326.521 93.7753C326.531 93.4709 326.542 93.1481 326.634 92.8187C327.578 92.9765 327.443 93.4264 327.316 93.8565C327.175 94.3306 327.041 94.7798 328.372 94.7824C328.334 95.0253 328.307 95.248 328.283 95.4516V95.4523C328.175 96.3454 328.111 96.8797 327.32 97.2392C327.134 97.3243 326.714 97.3145 326.303 97.3046C325.935 97.2961 325.574 97.2883 325.394 97.3485ZM438.475 165.781C439.392 166.502 440.285 167.204 441.435 167.598C440.576 164.949 435.724 162.099 433.255 161.159C432.885 162.606 434.53 163.41 435.803 164.033C436.119 164.187 436.412 164.33 436.646 164.469C437.312 164.866 437.898 165.326 438.474 165.78H438.475L438.475 165.781ZM433.117 160.996C431.932 161.077 430.93 160.661 430.188 159.78C431.376 159.678 432.343 160.102 433.117 160.996ZM333.071 76.0863C333.024 76.4897 332.976 76.8924 332.929 77.2957C332.857 77.3154 334.85 75.7714 334.702 76.2356C335.053 75.1402 334.596 75.0799 333.868 74.985C333.667 74.9588 333.445 74.93 333.214 74.8763C333.185 75.1225 333.156 75.3693 333.127 75.6155L333.071 76.0863ZM336.275 72.1288C335.988 72.9899 335.808 73.53 335.569 74.249C334.576 73.1693 334.979 72.6932 336.275 72.1288ZM333.057 78.7303C332.989 78.6249 332.839 78.5725 332.511 78.3886C332.379 78.97 332.582 79.4218 333.122 79.7433C333.099 79.0787 333.143 78.8633 333.057 78.7303Z" fill="#FF5678"/>
<path fill-rule="evenodd" clip-rule="evenodd" d="M132.444 267.309C135.462 289.945 138.48 312.58 141.499 335.216L143.936 353.495C144.243 355.802 143.953 360.352 145.125 362.417C145.539 363.145 146.627 363.491 147.427 363.92C150.181 365.399 152.935 366.878 155.689 368.356C178.985 380.863 202.281 393.371 225.575 405.878C247.933 417.881 270.29 429.884 292.646 441.887C294.96 443.13 298.702 446.37 301.199 445.516C303.574 444.705 306 442.703 308.155 441.44C312.293 439.015 316.43 436.591 320.567 434.166C345.603 419.494 370.639 404.821 395.674 390.149C406.004 384.096 416.333 378.043 426.663 371.989C429.488 370.333 432.315 368.677 435.141 367.02C436.619 366.154 436.811 366.184 437.393 364.714C439.568 359.217 440.576 352.921 442.115 347.217C443.811 340.932 445.507 334.646 447.203 328.361C447.96 325.556 447.605 325.194 446.371 322.487C443.93 317.128 441.489 311.77 439.048 306.412C433.63 294.519 428.213 282.627 422.794 270.734C420.604 265.925 415.326 262.541 411.527 259.003L352.536 204.081C351.037 202.686 349.539 201.291 348.04 199.895C347.794 208.28 346.137 217.294 348.567 225.394C352.555 238.686 356.543 251.979 360.53 265.271C362.458 271.697 364.385 278.121 366.313 284.546C366.671 285.74 368.851 290.473 368.268 291.523C367.945 292.105 365.191 292.694 364.595 292.921C362.033 293.895 359.47 294.87 356.907 295.845C349.768 298.562 342.628 301.278 335.489 303.994C329.067 306.437 322.646 308.88 316.224 311.323C314.047 312.151 311.49 313.685 309.19 313.557C307.132 313.443 304.793 312.425 302.803 311.912C299.303 311.011 295.803 310.109 292.303 309.207C285.428 307.437 278.552 305.666 271.677 303.895C263.943 301.902 257.41 296.051 250.796 291.72C239.426 284.275 228.056 276.83 216.686 269.386C214.083 267.682 214.074 266.709 213.036 263.598C210.706 256.604 208.374 249.611 206.043 242.618C204.799 238.884 203.268 235.134 202.328 231.311C200.777 225.003 199.858 218.472 198.63 212.093C198.259 210.168 197.889 208.243 197.519 206.319C192.757 208.251 187.995 210.184 183.233 212.116C182.543 212.396 179.18 213.231 178.881 213.918C178.692 214.351 179.692 216.32 179.835 216.743C183.783 228.436 187.732 240.129 191.68 251.822C192.922 255.501 194.164 259.179 195.406 262.857C192.438 258.194 189.47 253.529 186.502 248.866C184.171 256.709 181.839 264.553 179.506 272.397C173.995 266.037 168.483 259.677 162.971 253.318C161.063 259.677 159.155 266.037 157.247 272.397C151.312 264.553 145.376 256.709 139.44 248.866C138.735 252.959 138.029 257.052 137.323 261.145C137.11 262.381 137.152 265.925 136.33 266.903C135.653 267.708 133.703 267.309 132.444 267.309Z" fill="#FF5678"/>
<path fill-rule="evenodd" clip-rule="evenodd" d="M508.265 316.237C507.931 326.893 508.163 340.724 502.331 350.093C501.39 351.605 498.202 356.315 497.846 352.171C497.497 348.104 498.498 344.075 497.506 339.961C496.976 337.759 495.192 332.95 492.142 334.938C490.589 335.952 490.179 338.455 489.571 340.034C488.672 342.372 487.664 344.672 486.717 346.991C483.41 355.088 479.984 364.75 472.632 370.109C473.595 363.127 476.217 355.672 474.454 348.614C473.853 346.209 472.033 341.817 468.9 343.226C465.846 344.599 463.867 350.726 462.426 353.455C458.056 361.727 453.587 369.843 448.667 377.806C446.193 381.812 443.521 385.472 440.283 388.898C438.258 391.042 435.734 394.664 432.544 394.983C432.544 388.876 434.553 382.975 436.388 377.224C438.361 371.04 440.161 364.803 442.098 358.607C443.778 353.232 445.158 347.899 446.276 342.388C446.74 340.108 447.106 337.748 449.049 336.276C450.795 334.953 453.554 334.323 455.502 333.351C460.615 330.796 465.874 328.04 470.624 324.864C472.574 323.561 474.253 321.877 476.296 320.707C478.623 319.375 480.795 318.253 482.948 316.63C492.237 309.623 500.611 301.004 506.253 290.745C507.169 294.867 508.383 298.894 508.517 303.143C508.654 307.5 508.402 311.884 508.265 316.237ZM431.815 365.213C430.329 362.704 428.066 363.732 426.071 364.942C422.977 366.819 419.874 368.682 416.763 370.535C410.433 374.307 404.22 378.275 398.036 382.279C385.447 390.428 372.419 397.097 359.147 403.995C346.319 410.661 333.998 418.593 321.98 426.612C319.091 428.539 316.223 430.511 313.449 432.601C310.987 434.456 309.018 437.061 306.427 438.713C303.728 440.432 301.872 439.037 299.291 437.769C296.063 436.183 292.698 434.854 289.398 433.423C276.082 427.65 262.727 421.657 249.773 415.104C236.897 408.591 224.697 401.087 212.359 393.634C206.483 390.085 200.708 386.31 194.912 382.63C188.745 378.715 182.359 375.781 175.889 372.452C173.027 370.979 170.491 368.978 167.551 367.639C164.46 366.232 161.195 365.222 158.427 363.191C157.186 362.28 156.139 361.192 154.721 360.548C153.557 360.019 152.235 359.93 151.085 359.369C148.746 358.227 148.077 355.908 147.624 353.497C144.71 338.02 143.162 322.113 141.473 306.463C140.524 297.662 139.465 288.896 138.154 280.142C137.563 276.195 138.752 273.137 139.376 269.298C140.105 264.814 140.393 260.235 140.882 255.72C143.187 259.99 145.18 264.471 148.112 268.368C150.274 271.239 153.966 275.312 157.947 275.216C164.134 275.066 163.851 264.455 164.1 260.243C166.918 262.758 167.773 266.856 170.112 269.777C172.248 272.445 175.154 275.754 178.434 276.949C185.339 279.464 184.675 266.646 184.295 263.011C184.104 261.187 183.074 258.302 185.517 259.134C187.767 259.899 189.956 263.074 191.846 264.529C195.115 267.046 198.7 269.138 202.053 271.541C206.213 274.522 210.701 276.677 214.943 279.454C217.595 281.191 220.489 281.58 223.381 282.857C227.618 284.729 231.36 287.519 235.393 289.762C243.379 294.203 252.238 298.186 260.973 300.863C263.8 301.729 267.566 304.172 269.71 301.662C271.03 300.118 271.898 297.759 273.018 296.028C274.436 293.836 275.941 291.703 277.504 289.612C283.062 282.183 289.229 275.169 296.077 268.903C304.046 261.614 312.758 255.054 322.078 249.591C326.082 247.244 342.802 236.723 346.477 244.128C343.457 243.939 340.839 245.044 338.257 246.427C337.626 246.765 334.376 249.086 335.137 247.041C334.192 247.217 333.364 248.449 332.649 248.996C331.414 249.942 329.539 251.035 328.108 251.819C326.694 252.593 324.946 252.782 323.657 253.721C323.187 254.064 322.901 254.619 322.452 254.99L321.165 255C320.972 255.713 320.779 256.426 320.587 257.139C319.859 254.806 318.821 257.839 317.606 258.825C316.875 259.417 315.718 260.027 314.858 260.409C314.215 260.694 314.116 260.03 313.491 260.535C312.937 260.984 312.583 261.971 311.986 262.534C311.254 263.222 310.318 263.757 309.502 264.344C307.938 265.47 306.285 266.354 304.701 267.421C302.571 268.857 301.453 271.327 299.385 272.828C298.405 273.539 296.883 273.622 296.353 274.078C295.023 275.221 295.461 276.954 292.981 277.03C293.207 277.391 293.342 277.783 293.388 278.206C292.798 278.104 292.272 277.859 291.813 277.471C291.916 279.945 289.483 280.828 288.025 282.351C287.184 283.229 286.136 284.463 285.544 285.52C285.445 285.696 285.257 287.106 285.216 287.126C284.991 287.234 283.621 286.03 283.75 286.13C283.368 288.416 281.156 290.577 280.188 292.693C279.677 293.808 279.159 295.6 278.154 296.384C277.88 296.597 277.039 296.375 276.344 297.115C275.834 297.659 275.245 298.663 275.038 299.383C274.9 299.865 275.066 301.11 274.868 301.399C274.504 301.927 273.938 301.396 273.368 301.787C272.315 302.508 272.288 303.635 270.747 303.783C271.809 306.364 278.222 307.159 280.553 307.893C287.145 309.968 294.061 312.04 300.223 315.217C301.816 316.039 303.324 316.716 303.607 318.61C304 321.244 302.658 324.747 302.402 327.408C301.708 334.594 301.566 341.991 301.711 349.208C301.848 356.043 302.07 362.943 302.388 369.77C302.683 376.1 303.96 382.305 304.648 388.59C304.837 390.315 304.711 398.095 307.678 397.703C310.154 397.376 308.59 392.062 308.544 390.539C308.44 387.168 309.15 383.726 309.12 380.325C309.106 378.69 309.821 377.281 309.89 375.717C309.958 374.17 309.189 372.949 309.42 371.346C309.641 369.808 314.187 360.963 309.821 361.999C310.077 360.735 310.3 359.46 310.638 358.214C311.105 358.634 311.481 359.124 311.765 359.684C312.154 356.967 312.024 354.255 312.265 351.537C312.373 350.305 312.872 348.956 312.702 347.714C312.734 347.2 312.669 346.695 312.506 346.2C312.238 345.916 311.905 345.766 311.51 345.752C311.302 345.072 311.249 344.885 311.618 344.218C311.776 343.766 312.09 343.483 312.56 343.371C313.455 343.265 313.558 342.751 312.867 341.828C313.227 340.006 313.274 338.857 313.013 337.039C312.795 335.512 313.599 332.555 312.779 331.196C311.822 329.606 311.347 331.148 311.169 328.945C311.13 328.479 311.1 327.507 311.287 327.042C311.493 326.536 312.11 326.743 312.189 326.563C312.725 325.339 312.761 322.929 310.864 323.138C310.938 322.263 311.013 321.389 311.086 320.514C312.457 322.092 311.978 320.757 312.755 319.88C313.802 318.698 314.826 318.494 316.322 318.027C320.311 316.783 324.153 314.911 328.051 313.393C336.303 310.177 344.709 307.305 352.719 303.505C369.568 295.51 386.083 286.833 403.035 279.049C401.824 276.802 402.577 276.692 403.462 274.582C404.644 275.403 404.395 274.83 405.236 274.78C405.16 274.076 405.378 273.863 405.892 274.143C406.301 274.268 406.72 274.312 407.15 274.276C408.2 274.456 409.057 275.033 410.011 275.252C410.324 275.483 410.668 275.656 411.043 275.773C411.38 275.696 411.668 275.529 411.905 275.272C413.45 275.558 413.97 276.722 414.038 278.406C414.049 278.699 413.153 278.999 413.41 279.393C413.858 280.081 415.065 279.917 415.756 280.004C415.604 280.719 415.453 281.434 415.302 282.148C418.333 280.749 417.542 285.127 418.461 286.565C418.717 286.966 419.288 286.645 419.585 287.11C419.972 287.717 419.855 288.576 420.185 289.18C420.931 290.547 421.678 290.381 422.421 291.946C426.306 300.118 431.475 307.731 435.204 316.078C436.98 320.051 438.582 324.092 440.435 328.03C442.141 331.655 443.116 334.736 441.9 338.694C439.08 347.875 436.064 357.224 432.369 366.093C432.184 365.8 432 365.507 431.815 365.213ZM235.111 433.748C234.847 434.198 234.582 434.648 234.318 435.099C233.73 431.719 235.296 433.286 235.111 433.748ZM222.673 427.418C221.825 427.165 222.191 425.78 222.219 425.188C222.755 425.856 223.281 426.537 223.727 427.271C223.376 427.32 223.024 427.369 222.673 427.418ZM188.583 414.424C189.473 413.925 190.113 413.566 191.123 413C190.097 415 190.097 415 188.583 414.424ZM134.951 238.298C133.591 241.637 137.739 262.253 133.877 262.926C133.323 261.117 133.254 256.134 130.961 255.54C128.116 254.801 128.397 259.931 128.008 261.517C122.168 257.453 119.574 249.607 116.784 243.388C113.228 235.462 110.429 227.218 107.757 218.959C105.472 211.898 103.582 204.712 101.273 197.662C99.8224 193.234 98.2585 188.796 97.2829 184.232C97.0712 183.241 96.2374 180.727 96.9459 179.784C97.9755 178.413 101.682 179.983 102.876 180.343C110.624 182.675 118.662 183.678 126.622 185.033C135.467 186.537 144.292 188.092 153.19 189.258C155.413 189.549 157.638 189.825 159.864 190.094C161.307 190.268 163.493 190.094 164.864 190.741C167.639 192.051 168.23 197.062 169.261 199.662C173.107 209.362 177.633 218.755 181.682 228.368C185.33 237.026 188.095 246.239 193.339 254.123C189.428 252.389 184.472 243.223 180.102 248.506C178.224 250.778 178.698 253.771 178.848 256.49C179.065 260.42 179.133 264.38 179.133 268.316C174.857 267.205 171.984 262.351 169.739 258.912C166.672 254.216 164.74 249.79 163.383 244.406C162.794 242.074 161.235 242.016 159.849 240.621C158.959 239.724 158.511 238.516 157.234 239.82C155.629 241.46 156.697 246 156.974 247.936C157.632 252.542 159.791 259.632 157.693 263.96C154.86 269.802 147.269 255.103 146.38 252.981C145.928 251.9 137.853 231.177 134.951 238.298ZM129.648 138.189C130.127 138.262 130.604 138.335 131.083 138.409C130.697 138.749 129.895 139.942 129.24 139.626C129.376 139.148 129.512 138.669 129.648 138.189ZM154.979 132.753C154.83 132.918 154.679 133.082 154.529 133.247C153.844 132.39 154.087 131.14 154.087 130.148C154.993 130.696 155.214 131.791 154.979 132.753ZM157.027 142.265V145.067C155.128 144.244 155.09 143.819 157.027 142.265ZM159.333 145.828C158.002 145.463 157.843 145.168 158.03 143.124C158.582 144.269 158.945 145.024 159.333 145.828ZM166.991 166.58C166.433 168.015 163.174 164.596 163.294 163.572C163.407 162.596 163.908 162.305 164.599 162.932C164.827 163.14 164.488 163.892 164.634 164.152C165.16 165.096 166.22 165.868 166.991 166.58ZM167.027 175.224C166.211 177.263 164.755 174.052 166.889 173.964C167.029 174.374 167.075 174.794 167.027 175.224ZM165.443 172.009C165.127 171.587 164.82 171.16 164.522 170.725C165.621 170.947 166.493 172.548 167.653 171.48C167.515 173.109 166.358 173.155 165.443 172.009ZM94.3759 145.525C92.6085 143.596 104.133 142.242 105.523 141.91C115.612 139.504 125.138 136.023 134.572 131.751C139.072 129.713 143.549 127.651 147.944 125.392C149.841 124.417 152.443 123.59 154.027 122.126C155.159 121.081 155.114 120.291 156.584 119.668C157.832 119.141 157.895 119.639 158.467 118.685C158.81 118.113 159.199 116.015 158.998 115.394C158.45 113.701 157.64 115.074 156.504 113.907C155.685 113.065 155.884 110.673 156.107 109.682C156.397 110.154 156.564 110.667 156.608 111.219C157.841 110.611 157.344 108.523 158.693 108.181C160.114 107.821 159.967 108.928 160.338 110.06C161.412 108.483 160.551 107.138 159.97 105.597C162.925 105.044 166.101 104.508 169.03 105.491C171.149 106.201 172.962 107.948 175.198 108.286C177.389 108.616 177.81 107.578 179.425 106.524C180.735 105.668 181.861 106.676 182.536 106.03C182.12 108.211 178.544 107.913 178.984 110.639C179.182 111.865 180.686 112.968 181.37 113.922C182.229 115.12 182.914 116.445 183.499 117.795C185.775 123.047 186.748 129.142 187.704 134.758C190.061 148.621 190.359 162.758 192.576 176.665C193.632 183.289 194.691 189.918 195.24 196.607C195.377 198.279 196.399 202.073 195.563 203.682C194.857 205.041 193.284 205.044 191.904 205.373C189.204 206.015 186.668 206.887 184.078 207.853C181.756 208.718 181.081 209.249 179.591 207.065C178.149 204.951 177.436 202.431 176.404 200.114C175.09 197.161 173.503 194.312 171.979 191.463C174.973 191.463 176.696 189.847 176.616 186.805C176.53 183.436 173.759 182.636 172.616 179.867C171.505 181.31 171.412 181.351 170.62 179.981C169.714 178.415 169.103 175.548 168.549 173.771C168.946 174.194 169.342 174.617 169.738 175.04C170.737 173.665 169.172 171.497 168.649 170.202C167.841 168.203 167.698 166.041 166.932 164.047C166.514 162.959 165.546 162.103 165.309 160.967C165.151 160.207 165.785 159.484 165.635 158.713C165.373 157.37 163.853 155.928 163.381 154.562C162.654 152.461 161.865 150.611 160.963 148.564C159.742 145.793 160.026 142.885 159.803 139.936C159.571 136.878 158.592 133.953 158.246 130.908C158.007 128.805 158.755 126.157 157.164 124.472C156.978 127.273 157.78 127.229 155.149 127.733C152.154 128.306 149.981 130.538 147.149 131.204C146.565 131.341 146.14 128.791 146.368 132.269C145.009 131.267 142.11 132.512 143.192 133.107C142.372 133.984 140.757 133.377 140.487 134.691C137.701 131.983 133.233 141.202 129.916 136.393C129.368 139.653 127.008 141.58 123.839 142.011C122.246 142.227 121.264 142.758 119.851 143.236C119.564 143.332 119.458 143.744 119.119 143.856C118.6 144.025 117.838 143.514 117.464 143.613C116.703 143.816 115.856 144.817 114.793 145.016C113.575 145.245 112.246 145.14 111.026 144.999C109.501 144.822 108.83 144.641 107.336 145.144C105.993 145.596 104.555 146.862 103.308 145.483C101.35 148.871 96.6813 148.043 94.3759 145.525ZM184.903 104.642C183.422 104.465 184.451 103.19 185.137 102.807C187.002 101.768 186.504 104.834 184.903 104.642ZM102.85 116.799C111.547 104.251 126.424 95.6302 139.514 88.3762C146.663 84.4141 153.961 80.5734 161.468 77.3306C165.201 75.719 168.977 74.1698 172.788 72.7541C174.823 71.9979 176.883 71.3104 178.944 70.6261C179.514 70.4372 180.551 69.8572 181.147 69.9138C181.044 69.9036 182.63 70.3348 182.318 70.4703C183.34 70.0257 183.825 68.8663 185.026 68.4027C186.376 67.8812 188.095 67.6656 189.54 67.6185C190.819 67.5766 191.927 68.1051 193.145 68.1464C193.946 68.1731 194.626 67.7928 195.41 67.7368C195.812 67.7089 195.776 68.3092 196.018 68.3442C196.123 68.3595 197.191 67.9582 197.201 67.9652C197.591 68.2151 197.935 69.1907 198.287 69.5716C199.296 70.6642 200.776 71.4255 202.121 72.0004C203.758 72.7 207.752 73.4034 205.901 75.9918C207.215 75.8029 207.827 76.9909 206.181 77.2918C205.29 77.4552 204.909 76.6386 204.247 76.0815C202.717 74.7968 199.004 72.9678 196.801 73.0504C195.562 73.0969 194.604 74.0375 193.461 74.379C192.336 74.7148 191.779 74.1939 190.792 74.2766C189.638 74.3726 188.895 75.3489 187.796 75.5225C186.766 75.6853 186.193 74.9832 185.272 75.0321C184.178 75.09 183.119 76.0402 182.075 76.3594C180.413 76.8669 179.194 77.2129 177.572 78.0543C174.429 79.6856 170.919 80.305 167.68 81.7093C165.09 82.8318 162.154 83.4226 159.758 84.664C157.093 86.0434 154.416 87.4178 151.807 88.9168C149.922 89.9999 146.089 90.3725 144.011 90.0972C143.981 93.9245 142.097 91.2413 140.199 92.9177C140.648 93.3139 141.158 93.6052 141.727 93.7916C139.67 94.6132 137.768 95.6359 135.775 96.5803C133.715 97.5572 131.517 97.7721 130.164 99.6197C128.917 101.322 129.339 100.444 127.479 101.114C126.626 101.422 125.883 102.361 125.268 102.991C124.211 104.075 123.977 105.716 123.374 103.488C123.198 103.76 122.505 105.489 122.37 105.533C121.614 104.73 121.505 105.682 121.082 106.022C121.304 106.762 120.986 107.246 120.128 107.476C119.694 107.799 119.253 108.116 118.809 108.425C117.196 109.544 115.143 110.504 114.007 112.171C113.17 111.677 112.859 110.824 113.369 109.953C111.769 111.428 109.859 112.944 109.426 115.215C109.227 115.023 108.994 114.884 108.731 114.799C108.081 115.238 108.928 116.546 109.34 116.84C111.137 116.142 108.891 116.395 110.099 116.507C110.443 116.539 110.796 116.797 111.176 116.801C112.289 116.816 113.336 116.762 114.44 116.593C116.874 116.217 119.267 115.518 121.624 114.818C124.191 114.054 126.758 113.293 129.268 112.356C131.335 111.586 133.368 110.726 135.4 109.87C136.211 109.528 137.022 109.182 137.835 108.842C139.378 108.197 140.192 107.138 139.977 108.953C141.206 108.748 142.271 107.011 143.215 106.302C144.543 105.305 146.036 104.562 147.61 104.053C148.247 103.847 148.715 103.585 149.374 103.583C149.697 103.582 149.89 104.493 150.094 104.444C151.506 104.101 150.862 103.319 151.497 102.192C152.885 99.729 156.625 98.3668 158.921 96.9676C160.379 96.0792 161.414 94.8842 162.759 93.9003C163.389 93.4405 163.846 93.237 164.506 93.0424C165.011 92.8929 165.63 94.053 165.958 92.8872C164.783 92.407 163.814 91.8149 162.684 91.4645C161.885 91.2159 162.844 90.3656 161.577 90.8718C161.068 91.0753 160.893 92.0598 160.706 92.4719C159.291 91.2082 155.313 92.5177 153.634 93.0468C153.518 93.0831 153 92.8096 152.755 92.8261C151.786 92.891 151.111 94.1954 150.474 94.7576C148.777 96.2515 146.938 96.876 144.849 97.7289C145.405 94.6921 149.49 93.4481 151.874 92.2849C155.359 90.5843 158.604 88.4137 162.42 87.4992C164.961 86.8893 168.329 86.399 169.426 89.3537C170.083 91.1249 170.166 95.5252 167.943 96.3425C167.709 95.5157 168.46 94.8091 168.687 94.0917C166.474 94.9363 166.11 97.5941 164.429 98.9811C163.485 99.7602 163.147 100.01 162.691 100.763C162.237 101.511 162.02 102.209 160.957 103.004C159.22 99.315 159.514 104.369 158.633 105.003C158.987 104.748 157.198 105.492 157.411 105.413C157.329 105.444 156.549 104.181 156.043 104.208C155.123 104.256 155.3 105.269 154.857 105.779C153.354 107.505 151.412 108.637 148.994 108.366C148.937 109.594 149.316 111.061 147.639 111.173L147.419 108.45C146.506 109.374 145.305 110.251 144.562 111.32C143.717 112.536 143.807 113.286 142.405 114.096C140.94 114.944 137.822 116.614 136.078 116.759C136.509 116.147 136.433 115.594 135.851 115.102C134.974 116.006 133.679 116.095 132.745 116.912C135.986 118.266 130.255 118.196 129.528 118.349C129.042 118.452 128.617 118.896 128.124 118.995C127.47 119.128 127.385 118.44 126.822 118.658C125.997 118.978 126.332 119.879 125.469 120.332C124.85 120.657 123.799 120.653 123.1 120.962C121.435 121.7 117.887 123.333 116.761 121.352C116.191 124.752 110.364 122.682 108.208 122.453C105.254 122.14 100.11 120.753 102.85 116.799ZM115.255 82.0126C115.673 81.6558 116.091 81.6819 116.51 82.0915C115.927 79.0146 120.433 77.5207 122.399 76.2125C125.006 74.4776 128.076 71.1113 131.488 71.3778C130.906 71.809 130.325 72.2402 129.744 72.6714C130.574 72.7789 131.403 72.8864 132.232 72.9938C131.764 73.6807 131.296 74.3669 130.828 75.0531C130.062 70.8328 126.067 76.161 124.91 76.9375C123.746 77.7191 122.585 78.3017 121.55 79.255C120.525 80.1995 119.599 81.9001 117.904 81.0504C117.75 83.4607 115.812 82.807 114.472 84.1419C114.416 83.3043 114.896 82.7122 115.255 82.0126ZM132.957 69.9806C137.081 68.4358 140.672 65.5796 144.558 63.5394C148.271 61.5904 152.058 59.8402 155.832 58.0219C157.746 57.0991 161.253 54.7129 163.441 55.9289C166.394 57.571 162.329 58.1008 161.273 58.6693C160.883 56.1407 159.515 58.4315 160.332 59.8383C158.079 58.8652 153.164 62.6722 151.015 63.7219C150.528 63.9598 150.746 64.0971 150.193 64.377C150.057 64.4457 148.646 64.7668 148.243 64.9023C146.219 65.5796 144.885 65.0416 144.013 67.4844C143.831 66.9094 143.648 66.3339 143.466 65.7583C142.199 68.603 138.348 69.8483 135.885 71.5304C135.251 71.9642 133.438 73.6463 132.633 73.2985C131.513 72.8138 131.962 70.3526 132.957 69.9806ZM207.358 78.5574C209.099 78.6725 207.42 79.4846 207.898 80.0214C207.844 79.961 208.947 80.9016 208.803 80.6434C208.997 80.9906 209.465 80.9779 209.704 81.6838C210.528 84.1114 206.931 86.6197 205.718 87.9972C203.36 90.6766 201.997 94.0695 199.54 96.663C198.43 97.8345 197.326 98.6434 195.788 99.0803C194.711 99.3863 193.572 99.0587 192.582 100.094C191.785 100.928 191.966 101.402 191.085 101.845C189.533 102.627 188.85 101.941 187.34 103.63C186.041 100.098 189.774 100.104 191.722 98.1296C194.411 95.4044 197.357 92.6551 199.879 89.7397C202.119 87.1494 203.016 84.8783 204.079 81.7315C204.415 80.7394 204.78 78.6121 205.704 77.9894C207.143 77.0202 206.279 78.4855 207.358 78.5574ZM215.921 170.316C220.488 165.208 226.153 160.621 232.294 157.544C234.489 156.444 237.613 155.001 239.888 156.694C242.119 158.354 241.639 161.666 240.74 163.918C239.878 163.58 240.691 160.414 240.244 159.632C239.269 157.925 237.164 158.831 235.731 159.403C234.054 160.074 232.557 160.814 231.228 162.031C230.689 162.524 229.657 162.966 229.311 163.305C228.792 163.089 228.486 163.246 228.395 163.775C228.502 164.1 228.489 164.419 228.356 164.733C228.28 164.833 227.606 164.423 227.51 164.505C227.072 164.88 226.662 165.321 226.232 165.668C225.368 166.367 224.632 166.698 223.837 167.672C222.3 169.556 220.268 170.659 218.724 172.453C218.376 172.859 217.958 173.899 217.88 173.99C217.099 174.9 215.942 175.621 215.062 176.585C213.54 178.251 211.915 179.369 210.159 180.797C209.403 181.411 208.521 182.074 208.018 182.928C207.789 183.318 207.66 185.455 207.652 185.464C205.93 187.351 206.265 183.557 206.394 183.082C207.793 177.963 212.521 174.119 215.921 170.316ZM206.52 204.931C206.735 205.734 206.911 206.399 207.128 207.215C205.763 206.095 205.763 206.095 206.52 204.931ZM205.046 207.563C204.544 208.069 204.039 208.572 203.531 209.071C202.414 207.89 205.25 207.361 205.046 207.563ZM204.336 187.236C203.802 189.397 201.847 192.017 200.502 193.723C200.65 193.534 199.355 193.913 199.207 193.999C198.728 194.276 199.875 196.073 198.216 195.27C197.627 195.603 198.786 196.96 197.986 197.568C195.674 192.299 201.988 187.734 204.432 183.822C205.628 184.92 204.637 186.025 204.336 187.236ZM189.317 215.724C191.003 216.158 191.88 215.885 193.018 214.229C193.702 213.234 193.952 211.473 195.517 212.961L195.793 211.047C198.027 211.964 197.84 215.276 198.816 217.111C199.291 215.035 200.416 209.234 203.861 210.165C207.729 211.21 201.292 217.861 200.694 219.49C199.38 217.45 199.897 219.348 198.894 219.635C198.033 219.882 196.689 219.249 195.643 219.306C192.462 219.479 189.668 220.91 186.762 222.122C186.026 220.138 185.291 218.154 184.555 216.171C186.266 216.302 189.803 211.749 190.305 215.058C189.037 214.838 188.679 214.894 188.061 216.049C188.456 215.848 188.875 215.74 189.317 215.724ZM196.457 241.616C196.452 241.6 199.748 241.803 200.042 241.696C202.297 240.872 201.463 238.314 201.924 236.506C202.854 237.361 202.361 238.921 202.648 240.027C202.984 241.327 203.959 242.435 204.049 243.825C204.254 246.966 201.677 246.269 199.723 247.285C198.054 248.154 197.868 249.247 196.459 246.906C196.077 246.272 195.257 244.622 195.34 243.812C195.423 243.009 196.694 242.342 196.457 241.616ZM199.113 255.208L198.202 254.187C200.917 255.018 199.316 253.768 199.941 252.06C202.025 253.447 203.725 254.874 205.374 252.095L208.223 263.587C206.309 264.038 203.84 261.081 202.528 260.065C201.77 259.478 197.563 257.217 200.089 256.559C199.763 256.108 199.438 255.658 199.113 255.208ZM217.712 219.121C216.13 220.625 214.537 221.467 212.815 222.649C211.304 223.687 211.824 224.879 210.515 226.036C209.646 226.806 207.607 227.589 206.533 228.176C204.619 229.222 202.905 229.421 200.937 228.251C201.473 232.563 198.519 232.901 194.843 233.755C193.089 234.163 192.051 234.785 190.788 233.179C189.922 232.08 189.583 230.09 190.66 229.085C192.37 227.487 196.926 228.039 199.12 227.034C200.785 226.272 202.481 221.979 204.535 223.541C203.475 221.853 204.71 221.398 205.631 220.194C206.641 218.874 207.261 217.331 208.305 216.023C210.289 213.535 213.335 211.032 216.153 209.532C218.633 208.212 219.935 209.146 220.306 211.918C220.493 213.311 220.486 215.387 219.706 216.624C219.457 217.018 218.636 217.022 218.388 217.393C217.955 218.039 218.352 218.512 217.712 219.121ZM246.81 185.673C248.788 187.205 248.595 190.423 248.907 192.614C249.346 195.703 249.028 198.692 248.981 201.838C248.931 205.135 247.314 207.282 246.553 210.371C245.707 213.808 244.615 215.628 242.717 218.512C244.775 218.836 241.712 224.982 241.207 225.778C240.659 226.642 236.238 230.621 238.134 230.621C237.088 232 235.95 233.415 234.908 234.756C234.498 235.284 233.778 235.491 233.455 235.864C232.797 236.621 232.757 237.297 232.286 238.181C231.57 239.522 231.335 239.164 230.394 240.137C229.745 240.809 229.319 241.696 228.681 242.341C226.626 244.416 226.363 242.716 225.214 241.118C225.038 241.546 224.725 241.814 224.276 241.923C223.916 240.114 226.393 238.287 227.435 237.188C229.141 235.387 230.701 233.403 232.209 231.433C235.44 227.213 238.343 222.729 240.634 217.926C243.071 212.815 245.018 207.283 246.029 201.707C246.8 197.457 247.533 190.166 241.853 189.085C237.723 188.298 233.169 190.808 229.764 192.84C227.689 194.078 225.602 195.308 223.626 196.7C221.48 198.21 219.625 200.347 217.296 201.559C218.57 200.896 214.367 202.89 215.011 202.329C214.709 202.591 214.969 203.392 214.77 203.753C214.511 204.223 213.609 204.688 213.204 204.992C212.136 205.794 210.429 206.615 209.943 207.941C203.166 203.106 216.643 194.523 220.098 192.337C226.95 188.001 238.874 179.53 246.81 185.673ZM265.09 138.653C265.025 135.172 267.86 130.419 269.775 127.58C270.712 126.191 272.209 126.246 272.757 124.607C273.074 123.663 272.659 122.674 272.753 121.726C272.88 120.445 273.436 119.417 274.077 118.315C279.873 108.358 286.914 99.5446 294.414 90.8572C298.113 86.5745 301.619 82.1271 305.607 78.1039C307.273 76.4237 311.751 70.3831 314.313 70.9873C315.669 71.3072 316.459 73.3773 317.071 74.4337C318.083 76.1807 319.197 77.8171 320.428 79.4236C323.676 83.6649 327.422 87.3879 331.847 90.3942C334.609 92.2729 337.401 94.0987 340.102 96.0671C342.326 97.6869 345.689 99.5389 347.277 101.813C348.865 104.088 346.533 106.014 345.258 107.903C343.276 110.841 341.453 113.885 339.463 116.819C338.673 116.25 338.877 115.096 338.335 114.367C337.854 113.722 337.174 113.459 336.51 113.06C335.238 112.298 333.989 111.366 332.839 112.643C330.828 114.879 333.594 120.165 336.575 119.585C336.926 121.792 330.973 125.426 329.481 126.641C324.902 130.367 320.178 133.606 314.13 133.943C311.682 134.079 309.135 133.893 306.809 133.074C305.695 132.682 304.463 132.143 303.609 131.288C302.586 130.264 302.325 128.74 301.333 127.726C300.473 126.846 299.291 126.711 298.431 125.828C297.57 124.945 297.145 123.55 296.795 122.405C296.112 120.17 295.983 117.812 295.327 115.572C294.932 114.224 294.608 112.423 293.32 113.717C291.449 115.599 292.389 121.514 292.868 123.768C293.553 126.983 295.158 129.575 296.841 132.342C298.665 135.343 299.338 138.127 299.665 141.599C300.277 148.1 302.142 154.337 305.045 160.186C306.266 162.648 307.73 164.964 309.049 167.37C309.665 168.492 311.046 172.322 312.722 172.302C315.399 172.269 311.585 164.461 311.056 163.15C308.123 155.89 305.321 148.26 304.693 140.399C308.897 141.482 313.48 142.51 317.834 141.824C315.024 148.108 317.959 154.366 317.6 160.835C317.421 164.079 317.291 167.072 317.358 170.307C317.417 173.143 316.136 175.978 315.029 178.543C312.83 183.637 310.061 189.92 305.977 193.822C302.562 197.084 297.995 197.339 293.534 196.588C283.385 194.878 276.716 187.077 272.457 178.216C269.721 172.524 267.629 166.448 266.33 160.266C264.827 153.112 265.224 145.91 265.09 138.653ZM278.27 90.4393C268.799 83.5867 282.562 75.8049 289.567 76.8644C291.21 77.1124 294.234 77.7916 294.08 79.9362C293.954 81.6889 291.03 83.6426 289.908 84.7244C286.707 87.8115 283.449 94.1859 278.27 90.4393ZM347.168 242.703C346.843 242.412 344.192 243.127 345.242 241.558C346.115 240.255 348.534 241.888 349.413 242.224C348.689 242.724 348.058 243.499 347.168 242.703ZM307.732 325.583C306.918 325.684 306.067 323.488 309.001 325.128C308.578 325.28 308.155 325.432 307.732 325.583ZM307.648 361.364C307.749 362.348 308.05 362.996 307.351 363.712C306.76 362.984 306.684 361.957 307.648 361.364ZM308.839 376.148C308.752 376.683 308.666 377.219 308.581 377.754C307.903 377.411 307.226 377.068 306.548 376.725C307.311 376.532 308.076 376.34 308.839 376.148ZM309.668 363.681C310.678 364.059 310.208 362.851 310.941 362.682C311.204 363.939 310.88 365.016 310.159 366.053C310.09 365.807 309.72 363.7 309.668 363.681ZM335.479 274.47C334.062 274.289 333.847 275.786 332.791 276.367C332.109 276.742 330.034 276.46 329.646 277.178C330.158 277.326 330.669 277.474 331.181 277.621C330.01 278.252 328.839 278.884 327.668 279.515C330.484 279.515 333.419 278.17 336.216 278.565C337.398 278.732 338.265 279.131 339.007 280.093C339.457 280.677 339.852 281.616 339.925 282.331C340.003 283.104 339.4 283.638 339.507 284.007C340.768 284.042 340.619 286.109 340.336 286.952C339.722 288.779 337.284 291.64 335.1 290.482C336.014 291.778 335.781 292.519 334.429 293.271C334.552 292.842 334.642 292.093 333.952 292.167C333.774 292.886 333.842 294.025 333.255 294.567C332.598 295.173 332.012 294.465 331.384 294.859C330.639 295.327 330.863 296.062 330.277 296.569C329.502 297.239 329.392 296.763 328.466 296.893C327.063 297.092 327.958 296.221 326.835 297.356C326.447 297.748 326.512 298.768 325.882 299.341C324.673 300.442 321.445 301.59 320.286 300.178C317.5 304.593 309.149 305.653 305.262 302.167C299.063 296.608 310.622 285.302 314.439 281.719C318.269 278.123 322.524 275.017 326.829 272.019C329.275 270.316 331.785 268.77 334.348 267.253C335.929 266.316 337.915 264.606 339.857 264.77C341.6 264.917 343.089 266.269 344.924 266.537C346.25 266.73 348.828 267.05 347.154 268.849C346.371 269.69 343.297 271.05 342.25 271.255C341.635 271.375 340.987 271.145 340.378 271.269C339.346 271.481 338.638 272.352 337.515 272.241C337.871 273.907 337.222 274.691 335.479 274.47ZM353.826 212.633C353.827 213.937 351.448 213.612 350.951 213.169C350.134 212.441 350.105 210.263 349.802 209.273C351.184 209.621 353.825 210.894 353.826 212.633ZM334.665 169.643C339.662 165.536 344.915 161.771 350.468 158.455C352.457 157.268 355.265 154.873 357.735 155.172C358.771 155.298 360.913 156.487 360.132 157.8C359.987 158.045 358.834 158.144 358.478 158.322C358.074 158.523 357.757 159.079 357.382 159.354C354.788 161.257 351.67 162.427 349.067 164.376C346.928 165.977 344.933 167.768 342.63 169.142C340.42 170.459 338.112 171.292 336.014 172.751C336.056 172.722 333.286 173.718 333.829 173.899C331.398 173.086 333.966 170.218 334.665 169.643ZM367.977 168.113C370.945 166.93 373.849 165.495 376.956 164.7C378.506 164.303 380.098 164.005 381.703 164.183C381.976 163.706 382.339 163.6 382.794 163.867C383.148 164.411 383.615 164.829 384.195 165.121C385.08 165.801 388.339 166.691 387.688 168.194C387.257 169.188 383.989 169.271 383.092 169.494C380.389 170.167 377.868 171.682 375.083 172.054C374.822 172.089 373.968 171.773 373.959 171.774C372.872 172.012 371.967 173.139 371.034 173.68C369.024 174.843 366.137 175.038 364.694 177.046C369.367 180.214 373.421 177.072 377.53 174.68C379.991 173.248 382.633 172.215 385.322 171.296C386.728 170.817 388.146 170.318 389.571 169.897C390.16 169.682 390.766 169.528 391.388 169.433C391.967 169.318 392.381 169.528 392.631 170.065C394.353 170.008 394.501 168.927 395.537 170.943C396.999 173.784 394.763 173.64 392.661 173.989C389.747 174.472 386.784 175.561 383.912 176.283C383.25 176.45 377.443 177.796 377.436 177.844C377.173 179.677 393.839 177.979 395.27 177.704C397.795 177.218 400.503 175.839 403.117 176.172C405.124 176.427 409.696 179.371 406.495 181.328C405.864 178.31 403.701 180.802 402.571 181.82C401.066 183.176 398.91 183.045 396.847 183.576C394.024 184.301 386.799 187.022 384.794 183.553C385.428 186.593 373.911 185.049 372.327 184.948C370.784 184.85 368.791 185.178 367.299 184.738C366.326 184.451 365.785 183.818 364.869 183.676C364.645 183.917 364.376 184.082 364.063 184.169C363.598 183.934 363.179 183.635 362.805 183.274C359.721 181.856 354.949 181.072 356.663 176.556C358.279 172.297 364.056 169.676 367.977 168.113ZM396.887 170.745C396.964 170.48 397.041 170.215 397.118 169.949C397.127 170.763 399.067 171.11 398.843 172.164C398.346 174.497 396.108 170.991 395.916 170.609C396.24 170.655 396.563 170.7 396.887 170.745ZM408.731 174.622C408.955 175.578 411.535 177.613 410.896 178.083C409.879 176.7 407.068 177.328 408.731 174.622ZM365.219 261.84C366.163 259.967 369.018 263.157 368.717 259.959C370.269 260.1 369.3 261.281 371.16 260.762C371.857 260.567 372.329 259.794 373.178 259.616C373.405 259.569 374.383 259.646 374.721 259.636C375.84 259.602 380.224 259.477 377.206 258.01C378.896 256.893 379.104 257.46 380.628 258.483C380.237 256.368 382.48 257.568 383.524 257.832C382.78 256.626 384.628 255.343 385.227 254.527C385.012 255.783 385.126 257.189 386.943 256.386C387.396 256.186 387.294 255.299 387.654 255.154C388.311 254.888 388.679 255.371 388.915 255.344C389.147 255.318 389.636 255.448 390.124 255.264C390.758 255.026 390.452 254.175 391.256 254.048C391.779 253.966 392.161 254.736 392.801 254.742C393.129 254.745 393.676 254.412 393.926 254.43C393.97 254.433 394.282 253.68 394.665 253.662C395.226 253.634 395.455 255.137 395.659 255.429C396.641 256.822 397.947 257.73 399.453 258.473C396.728 260.971 391.232 260.706 387.806 261.548C385.951 262.005 384.368 262.663 382.67 263.512C382.26 263.778 381.907 264.105 381.612 264.492C381.371 264.333 381.13 264.173 380.89 264.013C379.96 264.071 379.079 263.61 378.032 263.787C374.797 264.333 372.264 266.756 368.976 267.296C367.498 267.539 366.284 267.878 365.322 266.597C364.477 265.474 364.617 263.035 365.219 261.84ZM360.783 246.912C361.516 247.532 360.634 249.551 362.054 249.331C363.061 249.175 362.86 247.613 363.651 247.282C364.69 246.847 365.318 247.878 366.294 247.783C368.115 247.603 368.011 246.013 366.472 245.315C368.072 244.893 368.585 246.784 370.001 246.767C371.861 246.745 371.417 244.55 373 244.186C373.686 244.029 373.457 245.035 373.901 245.161C374.792 245.41 375.412 244.981 376.199 244.603C376.904 244.266 377.406 243.613 378.176 243.392C378.526 243.291 379.417 243.476 379.673 243.288C380.192 242.91 380.656 241.439 381.166 241.244C381.062 241.284 382.734 242.122 382.974 242.201C382.827 242.822 382.487 242.896 381.953 242.423C381.953 243.825 385.85 244.262 385.051 242.529C387.158 243.401 385.589 243.85 385.378 245.068C385.294 245.558 385.009 245.545 385.094 246.062C385.133 246.301 386.237 246.095 386.223 246.42C386.131 248.513 379.46 249.157 378.196 249.341C375.58 249.724 373.104 250.367 370.582 251.158C368.703 251.748 365.466 253.437 363.468 253.332C360.594 253.181 360.22 249.431 360.783 246.912ZM354.362 225.555C353.661 223.226 355.909 218.417 358.837 219.018C359.557 219.166 359.734 219.762 360.293 220.027C361.072 220.397 362.341 220.202 363.017 220.584C364.532 221.442 363.768 223.628 365.287 224.418C362.889 224.999 355.475 229.255 354.362 225.555ZM357.136 234.601C358.169 234.046 359.844 233.974 360.548 232.907C360.899 233.149 361.562 234.624 362.191 234.399C362.485 234.294 362.788 233.494 362.767 233.495C363.328 233.479 363.439 232.72 364.296 232.805C365.082 232.884 365.962 233.829 366.662 234.182C366.542 231.839 367.142 231.615 369.042 230.361C369.458 230.086 369.806 229.054 370.19 228.637C369.823 231.096 370.749 231.109 372.713 231.479C375.174 231.942 376.707 233.263 377.694 235.641C375.596 235.232 372.891 235.725 372.064 237.979C370.39 234.921 364.306 239.141 362.338 240.005C360.877 240.647 359.178 241.509 357.953 240.014C357.091 238.961 357.585 237.694 357.603 236.759C357.608 236.465 357.912 236.448 357.884 236.01C357.848 235.452 357.121 235.228 357.136 234.601ZM379.529 282.694C378.975 282.904 376.124 283.022 376.106 282.077C376.09 281.243 381.137 282.083 379.529 282.694ZM374.898 279.639C372.741 280.969 370.327 276.283 369.534 274.933C371.797 275.223 372.902 273.33 374.235 271.891C375.503 274.67 377.428 273.201 379.454 272.274C381.843 271.179 384.46 271.171 386.908 270.292C387.672 270.018 388.376 269.611 389.121 269.297C389.721 269.073 390.32 268.842 390.916 268.606C391.339 268.225 391.489 267.755 391.366 267.198C391.166 266.73 391.302 266.434 391.776 266.312C392.34 266.48 392.915 266.578 393.502 266.604C394.445 266.417 395.801 265.527 394.662 264.568C395.882 263.46 397.104 264.562 398.278 265.047C397.999 264.251 397.721 263.456 397.442 262.66C398.025 262.908 399.754 265.324 399.931 265.311C401.049 265.227 400.932 263.727 401.575 263.121C401.945 263.578 402.052 266.988 403.509 265.839C404.133 265.348 402.791 263.676 402.46 263.295C404.127 263.671 405.583 265.662 406.034 267.207C405.242 267.322 404.51 267.163 403.838 266.729C403.408 268.881 407.392 268.009 408.037 269.134C409.3 271.335 401.084 272.864 400.014 273.068C397.872 273.476 395.344 273.628 393.381 274.578C391.499 275.486 391.054 275.747 388.856 275.917C386.347 276.112 383.9 276.938 381.473 277.582C379.366 278.14 376.766 278.488 374.898 279.639ZM420.752 200.847C422.733 200.134 429.406 196.435 431.104 198.08C430.925 197.906 432.329 200.807 432.315 200.624C432.435 202.134 432.398 202.741 430.541 203.464C429.21 203.982 428.052 202.881 426.855 203.318C425.54 203.798 426.46 204.648 425.783 205.242C425.042 205.892 423.612 206.173 422.689 206.458C420.43 207.156 418.153 207.739 415.905 208.491C411.33 210.02 406.486 211.444 401.785 212.525C398.272 213.334 392.309 215.343 389.072 212.97C388.756 214.319 387.984 214.134 386.911 214.331C386.07 214.485 384.549 214.901 383.801 214.923C382.556 214.959 379.096 214.633 379.572 212.887C379.441 213.368 382.264 211.722 381.775 211.62C382.974 211.872 382.586 211.269 383.568 210.933C384.85 210.495 386.191 210.518 387.5 210.054C390.802 208.884 393.571 207.365 397.055 206.632C405.015 204.957 413.073 203.61 420.752 200.847ZM101.684 381.205C101.039 381.222 100.537 379.39 102.499 380.698C102.228 380.867 101.956 381.036 101.684 381.205ZM86.1851 378.834C85.3081 379.059 84.9583 378.569 85.137 377.366C86.36 376.883 86.7092 377.372 86.1851 378.834ZM74.2198 376.38C73.9954 375.308 74.7903 375.066 75.5109 374.584C75.4384 376.005 75.4384 376.005 74.2198 376.38ZM44.114 367.556C42.9011 367.29 41.2851 366.104 41.0072 368.095C40.8043 367.634 39.769 365.465 40.2135 364.963C40.4456 364.701 41.3246 365.915 41.2311 365.795C42.2925 363.648 44.1222 366.239 45.1449 367.006C44.8014 367.189 44.4574 367.373 44.114 367.556ZM359.442 130.276C359.86 129.39 360.354 129.109 360.922 129.433C360.03 131.504 357.01 132.626 359.442 130.276ZM380.423 110.838C381.171 112.24 380.046 112.833 379.242 113.998C379.712 112.741 380.038 111.87 380.423 110.838ZM471.608 247.728C474.306 247.727 480.053 246.303 481.68 249.387C482.757 247.292 483.98 251.221 484.914 251.852C485.019 251.923 485.692 251.408 486.005 251.598C486.477 251.883 486.884 252.661 487.154 253.124C487.969 254.518 488.319 256.175 488.771 257.709C484.059 257.709 479.227 256.612 474.519 256.213C471.429 255.951 468.399 255.944 465.305 256.11C464.69 256.143 463.469 255.94 462.943 256.056C462.408 256.174 461.44 257.262 460.851 257.087C461.766 258.805 473.486 262.963 474.381 261.061C473.321 260.42 470.968 259.928 470.97 258.379C470.972 256.643 473.177 256.646 474.346 256.697C476.903 256.809 481.184 257.66 482.232 260.318C482.681 261.458 482.819 264.328 482.326 265.428C482.007 266.138 481.468 266.992 480.613 267.137C480.263 267.196 479.758 266.73 479.704 266.741C477.95 267.113 474.704 268.522 472.791 266.536C471.411 268.321 464.767 266.371 462.732 265.698C459.174 264.52 454.275 262.902 452.114 259.583C449.48 255.537 454.836 252.117 457.911 250.472C462.114 248.225 466.916 247.73 471.608 247.728ZM489.563 257.083C490.39 257.317 491.217 257.551 492.044 257.784C491.822 259.234 488.56 258.087 489.563 257.083ZM514.562 309.791C514.817 303.981 513.137 298.865 512.167 293.246C511.927 291.853 512.172 289.418 511.114 288.273C510.104 287.178 507.848 288.068 507.758 286.132C506.763 287.298 506.863 287.541 505.636 286.201C505.86 286.776 505.893 287.36 505.734 287.955C504.972 287.519 502.214 286.07 502.446 288.052C500.177 287.55 500.834 286.131 499.54 285.048C499.356 284.894 498.618 285.44 498.33 285.207C497.809 284.786 497.552 284.403 497.113 283.86C496.555 284.534 495.796 285.021 495.114 285.554C494.718 284.691 493.947 284.058 493.019 283.848C493.886 285.662 496.029 288.011 493.09 289.043C491.335 289.659 488.461 288.904 486.603 289.047C479.715 289.582 472.171 288.08 465.512 286.439C458.671 284.754 451.753 282.375 445.6 278.897C444.289 278.156 443.463 277.278 442.333 276.358C441.235 275.464 440.437 275.323 439.118 274.751C436.742 273.722 434.57 272.072 432.763 270.233C428.878 266.278 425.268 261.105 426.35 255.315C427.428 249.543 431.396 245.033 435.641 241.232C440.654 236.743 446.315 232.996 452.322 229.974C455.009 228.624 461.88 223.55 464.534 226.519C466.23 228.415 465.276 230.835 462.958 231.257C462.387 231.361 461.79 230.978 461.211 231.24C460.378 231.619 460.672 232.067 460.327 232.383C459.73 232.932 459.096 233.788 458.203 234.264C455.089 235.924 452.078 237.24 449.101 239.263C447.729 240.194 446.408 240.595 445.198 241.408C443.995 242.217 443.721 243.555 442.104 242.729C442.68 245.082 439.22 247.602 437.864 249.044C435.763 251.276 433.245 254.125 434.225 257.428C436.144 263.893 444.813 268.804 450.36 271.646C457.284 275.192 464.919 278.015 472.627 279.183C476.46 279.764 480.421 280.123 484.282 280.491C487.288 280.778 491.901 279.728 494.064 282.435C494.131 279.278 503.991 279.557 506.09 279.153C501.882 264.77 493.62 251.983 484.788 240.035C480.453 234.17 476.196 228.139 471.255 222.762C465.845 216.876 459.665 211.616 453.793 206.2C442.275 195.577 429.249 186.097 415.994 177.745C402.77 169.413 389.074 161.213 374.586 155.272C358.038 148.488 340.617 144.025 323.176 140.224C325.542 137.21 329.391 135.739 332.42 133.534C333.48 132.762 334.914 130.908 336.292 130.655C337.784 130.381 338.958 131.986 340.02 132.792C343.069 135.104 345.177 134.122 348.668 133.983C350.757 133.899 355.705 135.063 356.586 132.237C357.757 133.796 356.058 135.047 355.189 136.19C355.822 137.073 356.332 136.157 356.957 136.019C357.15 135.86 357.342 135.699 357.534 135.54C357.845 135.091 358.125 135.088 358.373 135.531C358.746 136.092 359.121 135.968 359.499 135.158C359.603 135.093 359.706 135.028 359.809 134.963C360.261 134.722 360.697 134.342 361.116 134.043C364.289 131.775 367.117 129.844 370.619 128.174C373.56 126.772 371.979 124.09 373.918 122.196C374.357 121.768 375.095 121.983 375.564 121.619C376.024 121.263 376.093 120.858 376.428 120.476C377.234 119.557 376.275 118.49 378.33 119.615L377.589 115.443C381.619 119.353 381.603 108.101 382.154 106.436C382.081 106.656 382.516 104.952 382.515 104.967C382.633 101.591 383.094 99.1433 379.14 98.9474C380.637 98.0055 381.095 99.8448 381.786 97.9407C382.132 96.9867 381.052 95.3472 382.774 95.9622C383.137 93.9347 382.778 92.2938 382.327 90.3236C381.864 88.3069 382.136 86.9612 382.157 84.9445C382.18 82.6569 381.109 80.3578 380.767 78.1052C380.498 76.341 380.775 73.5586 378.494 74.2066C378.174 73.7049 379.3 72.1613 379.254 71.3982C379.183 70.2127 377.897 69.0082 377.532 67.8698C376.996 68.4231 376.24 68.6075 375.511 68.3576C376.196 66.8109 375.553 66.2913 374.897 64.9576C374.521 64.1938 374.748 63.3505 373.944 62.8032C373.483 62.489 372.697 63.0181 372.336 62.6499C371.561 61.8613 371.847 60.8151 371.314 59.7759C370.646 58.4728 369.119 57.4775 368.067 56.4994C362.152 51.0013 355.727 46.7994 347.859 44.6511C339.921 42.4837 330.667 41.7072 322.756 44.2072C319.594 45.2063 316.787 45.1039 313.941 46.9699C313.018 47.5753 312.919 47.4132 312.45 48.4225C312.342 48.6578 313.324 49.2842 312.723 49.669C312.069 50.0868 311.347 49.2371 311.014 48.5318C306.897 51.512 303.039 55.485 300.694 60.0405C298.364 64.5671 298.15 69.8852 297.26 74.8045C293.156 70.116 287.606 67.8685 281.571 70.1224C276.311 72.0863 272.235 76.4033 271.206 81.9961C270.578 85.4056 271.263 88.8583 272.812 91.9345C273.482 93.2637 274.293 94.7354 275.524 95.6302C276.498 96.3374 278.165 96.2382 278.624 97.5139C279.326 99.4683 275.268 103.689 274.214 105.4C272.308 108.496 270.537 111.693 269.188 115.075C264.354 108.246 259.727 100.788 254.23 94.4918C249.042 88.5492 242.858 83.2197 236.793 78.1968C224.204 67.7718 211.115 57.978 197.033 49.6728C183.921 41.9393 168.082 37.6458 152.801 39.1639C137.87 40.6476 126.439 50.0906 116.82 60.9817C98.3247 81.9223 86.9966 111.769 85.89 139.645C85.5574 148.019 86.1953 156.283 88.2635 164.405C89.2486 168.273 89.1055 172.077 89.6779 175.994C90.3241 180.412 91.4415 184.815 92.522 189.144C96.6381 205.633 101.882 222.109 107.767 238.052C110.827 246.342 114.529 254.447 119.537 261.758C121.85 265.135 124.847 267.777 127.336 270.983C129.751 274.093 130.389 277.91 130.92 281.726C132.193 290.876 133.038 300.064 133.803 309.268C134.128 313.168 134.508 317.034 135.024 320.907C135.475 324.284 134.342 324.118 131.501 325.265C132.077 322.231 118.504 324.295 117.223 324.503C115.828 324.728 114.351 324.731 113.253 324.91C112.025 325.11 110.823 325.399 109.408 325.359C107.329 325.299 103.437 324.768 102.643 327.422C102.097 324.345 98.4881 327.709 101.158 327.138C98.4175 327.445 95.6211 326.935 92.8476 327.193C89.669 327.488 86.4631 327.769 83.3067 328.247C81.1094 328.58 79.0126 329.426 76.8115 329.672C73.9947 329.987 71.0552 329.957 68.2111 330.208C57.7207 331.133 46.8474 333.421 36.6501 336.042C34.3403 336.635 31.6863 337.057 29.4795 338.009C28.8887 338.264 28.357 338.834 27.791 339.052C26.8421 339.419 26.9718 339.166 26.1292 339.334C21.0801 340.343 15.8715 341.991 10.8231 343.285C8.02287 344.003 3.468 344.65 1.18382 346.605C0.159897 347.48 -0.734921 349.032 0.905901 350.027C2.21665 350.821 4.08744 349.553 5.14825 348.867C4.20319 351.331 2.4208 352.558 3.38341 355.36C4.14341 357.575 5.85927 360.304 8.49922 358.875C8.85282 359.698 8.99591 361.333 10.037 361.635C10.9725 361.907 11.6499 360.721 12.5663 361.001C12.8945 361.101 12.7698 361.721 13.0636 361.883C13.5699 362.161 14.0831 362.28 14.6631 362.476C15.1617 362.645 15.9643 362.993 16.4845 363.029C16.8146 363.053 17.5924 362.488 17.5899 362.488C18.348 362.603 18.7556 364.054 19.3013 364.473C20.0098 365.018 20.5949 365.142 21.4821 365.339C23.3264 365.748 25.7037 366.45 26.9209 364.562C26.6424 365.91 28.4759 365.778 29.2849 365.949C29.1952 365.239 28.8028 364.588 28.1973 364.198C30.0061 364.318 29.2728 366.116 30.6096 366.591C31.5623 366.929 31.4542 366.07 32.183 365.975C33.1433 365.849 33.8722 366.546 35.3718 365.903C35.6968 367.348 35.8157 368.804 37.5895 369.02C38.6306 369.146 41.0581 367.266 40.9207 368.831C43.2465 368.149 44.1292 368.61 45.3446 370.66C45.55 369.401 46.544 369.766 47.456 369.689C48.9016 369.565 48.9385 369.682 50.0591 368.863C50.1615 368.789 51.0429 366.77 51.4347 368.024C51.6109 368.587 50.4464 369.909 50.0152 370.246C50.5507 370.517 52.3053 371.465 52.9801 371.291C53.5639 371.14 53.5658 370.142 54.2673 370.091C54.0956 370.664 53.9245 371.239 53.7522 371.812C55.117 372.011 56.2573 371.097 57.3353 370.428C58.363 373.027 61.3006 371.563 62.8982 373.519C63.7434 374.553 63.7828 375.339 65.3931 375.61C67.0409 375.886 68.4802 375.163 69.8806 376.522C69.4367 375.679 68.3307 374.979 69.4297 374.073C70.1776 375.135 70.5636 376.413 71.426 377.4C71.5449 376.898 71.6639 376.396 71.7828 375.894C74.031 378.299 76.8611 378.32 79.7408 379.653V377.893C81.8026 381.04 81.9126 379.048 84.3758 377.763C84.2085 378.688 84.0406 379.614 83.8734 380.539C85.6458 380.405 87.3019 382.505 88.757 380.721C89.6359 382.195 90.7012 381.47 92.1417 381.938C92.9608 382.204 93.5707 383.011 94.3676 383.302C95.5626 383.74 95.9194 383.72 97.0444 384.101C98.0448 384.439 98.6134 385.098 99.8656 385.309C100.679 385.446 101.417 385.436 102.195 385.399C102.496 385.384 102.397 384.707 103.065 384.865C104.099 385.11 104.868 386.406 105.612 387.071C106.732 384.257 109.866 388.026 111.381 388.528C111.526 387.806 111.5 386.937 112.022 386.344C112.635 387.688 112.869 388.816 114.141 389.681C114.876 390.181 115.955 390.538 116.803 390.721C117.339 390.836 118.313 390.698 118.651 390.863C119.225 391.145 119.437 391.897 120.018 391.968C120.359 392.009 120.866 391.11 121.121 391.18C122.291 391.5 122.941 392.921 124.123 393.69C127.639 395.977 132.065 396.199 135.982 396.701C136.965 396.827 137.108 396.558 137.907 397.135C138.333 397.443 138.139 398.381 138.663 398.644C140.638 399.633 140.639 397.522 141.053 396.21C141.707 397.071 141.819 398.209 142.713 398.895C143.201 398.881 143.689 398.892 144.176 398.928C144.451 399.241 144.631 399.603 144.715 400.013C145.898 400.812 147.238 400.534 148.46 401.134C148.861 401.331 149.57 402.519 150.064 402.861C150.947 403.472 152.313 403.799 153.323 404.065C155.439 404.622 158.474 403.882 159.733 406.092C161.405 404.3 160.759 406.44 161.894 406.89C162.564 407.155 163.572 406.1 164.316 406.205C165.654 406.393 166.136 407.842 166.565 408.896C167.38 408.714 166.821 406.408 166.798 405.902C167.811 405.782 168.036 408.45 168.211 409.037C169.81 408.266 167.185 405.869 168.905 405.101C168.747 407.143 170.375 408.824 167.468 409.117C167.869 410.347 177.244 411.713 177.895 410.627C178.039 412.634 179.388 410.76 179.885 410.073C179.941 411.244 179.542 412.905 180.856 413.45C181.749 413.819 183.763 412.863 184.113 411.988C184.513 413.325 185.183 413.282 186.016 414.131C186.589 414.714 186.966 415.725 187.566 416.214C188.671 417.112 190.726 416.975 192.013 416.774C194.532 416.381 194.234 415.898 195.131 418.516C195.334 417.523 195.97 415.445 197.079 416.99C197.785 417.971 196.282 420.134 195.848 420.996C196.818 420.463 197.782 419.83 198.886 419.601C198.948 419.941 199.004 420.663 198.842 420.978C198.875 420.914 200.052 421.704 200.489 421.923C200.384 421.87 200.835 419.904 200.822 419.968C202.376 420.927 201.298 422.76 202.674 423.706C203.029 423.951 203.864 423.665 204.294 423.814C205.042 424.074 205.69 424.775 206.355 425.185C205.824 424.473 205.9 423.277 205.937 422.455C206.275 422.642 206.517 423.342 206.858 423.397C206.987 423.418 208.326 423.595 208.317 423.589C209.71 424.565 209.424 424.687 208.227 425.861C208.655 426.532 210.441 425.365 210.924 425.171C211.026 425.434 211.052 426.388 211.242 426.558C211.357 426.841 211.473 427.123 211.588 427.406C211.945 427.14 212.328 427.051 212.736 427.139C212.995 427.229 215.01 428.049 215.147 427.768C214.706 427.626 214.306 427.407 213.949 427.112C215.112 426.067 215.877 425.511 216.948 427.021C217.083 427.211 216.62 427.894 216.757 428.142C217.269 429.066 218.321 429.8 219.035 430.552C219.331 429.514 218.643 426.913 220.285 427.008C221.597 427.083 222.595 430.262 222.141 431.25C222.662 430.68 225.776 430.113 226.363 430.291C228.025 430.795 227.559 432.331 229.604 430.08C230.998 431.042 229.769 431.407 230.02 432.579C230.389 432.656 230.737 432.565 231.067 432.306C230.82 437.291 234.498 433.482 236.886 434.244C237.824 434.543 238.064 435.607 239.07 435.918C239.602 436.082 240.194 435.693 240.712 435.788C241.126 435.729 241.539 435.656 241.948 435.568C242.467 435.308 242.711 435.599 242.679 436.441C243.513 436.873 243.198 437.043 244.173 437.127C244.802 437.181 245.38 436.527 246.094 436.639C247.326 436.832 247.163 437.778 247.95 438.272C248.659 438.717 249.458 438.702 250.33 438.617C250.775 438.573 252.023 438 252.173 437.998C253.106 437.985 252.6 437.787 253.719 438.587C254.591 439.212 254.956 439.616 256.026 439.904C257.253 440.233 259.429 440.952 260.255 440.065C261.37 441.737 262.243 440.51 263.714 440.621C264.467 440.678 264.587 440.971 265.257 441.088C266.344 441.278 267.699 441.113 268.854 441.484C270.675 442.069 270.881 442.363 272.741 442.442C273.077 442.311 273.413 442.179 273.748 442.048C273.849 442.609 274.113 443.066 274.541 443.42C275.582 443.638 276.265 443.113 277.124 442.537C277.764 444.53 279.84 444.704 281.615 444.966C284.48 445.389 287.22 445.62 289.983 446.562C292.316 447.357 294.654 448.25 296.898 449.268C298.874 450.164 300.738 451.504 302.973 450.875C308.036 449.449 312.944 444.251 317.18 441.267C322.198 437.732 327.609 434.819 332.852 431.641C353.725 418.989 375.776 408.286 396.356 395.163C407.592 387.999 418.018 379.487 430.084 373.69C428.366 380.788 425.442 387.994 425.971 395.425C426.183 398.42 427.065 401.958 429.388 404.049C432.259 406.634 435.458 404.988 438.204 403.141C444.088 399.185 448.012 393.411 452.417 387.99C457.626 381.577 461.666 374.687 465.492 367.378C466.408 368.664 465.711 370.82 465.724 372.246C465.742 374.066 466.233 375.82 467.077 377.445C469.256 381.639 473.403 382.656 477.149 379.782C484.36 374.253 488.545 364.404 492.408 356.474C494.612 360.573 497.739 365.734 503.031 362.806C507.398 360.389 509.964 354.991 511.299 350.418C515.199 337.07 513.963 323.474 514.562 309.791Z" fill="black"/>
<path fill-rule="evenodd" clip-rule="evenodd" d="M507.94 229.616C507.442 228.406 507.223 228.604 508.139 227.431C508.852 228.134 508.281 228.715 507.94 229.616ZM530.008 302.825C528.608 298.844 529.473 294.521 528.622 290.437C528.232 288.563 527.616 286.746 527.394 284.839C527.295 283.992 526.542 280.182 527.055 279.582C525.475 278.626 525.47 277.918 525.105 276.042C525.668 275.445 525.597 274.936 524.892 274.513C524.432 273.956 523.971 273.398 523.51 272.841C525.525 273.826 524.333 271.304 524.127 269.851C523.965 268.702 523.855 267.504 523.472 266.403C523.001 265.05 521.953 264.366 524.133 264.366C523.416 263.55 522.343 262.708 521.985 261.709C521.472 260.271 522.319 258.37 521.271 257.1C520.687 256.392 517.674 256.115 518.203 254.584C518.472 253.805 519.693 254.387 520.07 253.84C521.555 251.693 517.171 250.804 516.956 249.89C516.678 248.706 518.261 248.442 518.358 247.334C518.453 246.251 516.768 244.47 516.323 243.501C515.717 243.648 515.051 244.608 514.357 244.149C514.225 244.063 514.423 240.311 514.265 239.813C514.11 239.324 513.793 238.025 513.68 237.784C513.23 236.83 511.943 236.365 511.739 235.237C511.617 234.564 514.254 233.546 511.23 233.514C512.316 231.6 510.326 230.436 509.602 228.801C508.671 226.697 508.122 224.426 507.165 222.312C506.235 220.257 505.196 218.307 503.855 216.49C502.642 214.845 502.117 213.262 501.147 211.525C500.953 211.372 500.759 211.22 500.565 211.067C499.756 211.184 499.497 210.816 499.787 209.962C499.168 209.045 498.708 208.067 498.162 207.11C497.528 205.998 496.673 205.091 496.018 204.009C495.148 202.575 494.892 200.958 493.909 199.519C492.701 197.749 491.343 196.188 490.223 194.352C488.82 192.052 487.266 190.622 485.501 188.841C484.661 187.992 484.559 185.873 483.53 184.669C482.409 183.357 481.301 183.001 480.524 181.279C479.513 179.039 478.029 177.969 476.585 176.032C475.393 174.435 474.811 172.599 473.498 171.053C472.37 169.726 471.088 168.513 469.883 167.255C468.362 165.665 467.239 163.734 465.655 162.223C465.883 162.441 464.277 161.168 464.358 161.208C464.002 161.027 462.855 160.881 463.022 160.98C460.632 159.575 457.637 154.433 454.041 157.158C452.149 158.591 453.056 161.218 454.377 162.646C454.944 163.259 457.892 166.281 458.529 165.006C459.216 165.981 461.334 170.691 463.095 169.341C462.915 170.951 463.848 170.417 464.463 171.505C464.868 172.223 464.671 172.575 464.966 173.696C465.778 176.776 468.877 179.785 470.527 182.472C474.635 189.158 479.166 195.499 483.278 202.193C487.196 208.572 491.584 214.625 495.344 221.091C499.619 228.443 504.946 235.382 508.168 243.308C508.276 243.574 509.171 243.996 509.393 244.396C509.78 245.091 509.697 246.293 509.946 247.081C510.811 249.81 512.212 252.497 513.808 254.758C515.208 256.742 515.31 259.438 516.274 261.765C517.633 265.044 519.068 268.29 520.388 271.586C522.443 276.716 523.835 281.634 525.256 286.99C526.176 290.461 526.908 293.93 527.201 297.515C527.471 300.811 527.537 304.245 528.757 307.365C529.589 306.081 530.569 304.416 530.008 302.825Z" fill="black"/>
<path fill-rule="evenodd" clip-rule="evenodd" d="M59.9339 373.458C58.4572 373.159 57.0675 372.761 56.7546 371.066C56.5403 371.865 56.3266 372.664 56.1123 373.464C57.9102 373.871 59.7088 374.279 61.5067 374.686C61.0869 373.946 60.7804 373.629 59.9339 373.458Z" fill="black"/>
<path fill-rule="evenodd" clip-rule="evenodd" d="M63.8966 95.1913C64.0085 94.713 64.1535 94.2443 64.3322 93.7871C64.4537 94.2329 65.049 95.197 64.7024 95.6174C64.261 96.151 63.8145 95.8489 63.8966 95.1913ZM71.1359 81.4173C71.6205 81.631 72.6693 81.6723 73.2709 81.853C71.7102 83.1955 71.4355 82.8006 69.4175 82.6447C69.3278 81.2863 69.8799 80.8646 71.1359 81.4173ZM57.608 115.047C57.8173 115.052 58.0271 115.057 58.2377 115.062C58.2504 114.471 58.2351 113.88 58.1906 113.29C60.3186 113.755 59.114 110.036 58.4456 109.265C60.5214 109.335 61.5326 102.763 62.1902 101.496C62.7741 100.372 63.4355 99.937 63.8622 98.5658C64.2356 97.3657 64.6394 96.2858 65.1781 95.1506C66.4157 92.5406 68.0393 90.1703 67.7398 87.1284C68.7885 89.4109 69.7107 87.1322 70.3759 86.0409C71.4475 84.2824 74.062 82.0387 74.34 79.9501C74.5855 78.1115 73.2194 78.0142 74.0258 76.3091C74.8411 74.5831 75.5114 74.7561 76.9398 74.2041C77.89 73.8365 78.0789 74.2829 78.7492 73.0835C79.1836 72.3069 79.0303 71.7282 79.5868 71.0916C79.8164 71.2913 80.0777 71.3739 80.3703 71.3396C80.8218 70.7437 81.1182 70.0797 81.2588 69.3477C81.627 68.3594 81.8051 67.4519 82.3596 66.5106C82.8856 65.619 83.8192 63.2334 84.314 62.8035C84.8393 62.3468 87.8189 62.579 87.8061 62.5955C89.0368 61.0475 86.7784 59.5053 89.9055 59.8315C89.288 58.6817 91.4573 57.2546 92.0869 56.6148C93.6597 55.0178 93.785 54.2788 94.117 52.2704C94.2855 51.2465 93.1852 51.3648 94.6601 51.1314C95.27 51.0353 95.8551 51.815 96.2952 51.7006C98.2381 51.1969 96.2055 51.2929 96.7416 50.5011C96.9108 50.2499 97.7751 49.2361 97.7668 49.247C97.7249 49.2978 97.9614 48.3649 98.1573 48.1251C98.5287 48.0933 98.8944 48.0284 99.2537 47.9305C99.4363 47.5616 99.5978 47.1839 99.7377 46.7972C101.144 45.6244 103.248 45.0998 104.22 43.8113C104.849 42.9781 104.661 42.1622 105.474 41.3316C106.248 40.5404 107.272 41.1134 107.425 39.3263C107.62 37.0527 105.178 36.0409 104.179 38.3355C101.469 34.9985 90.1453 47.2417 88.8371 48.8412C83.1546 55.7848 77.5695 62.9001 72.9084 70.5783C68.3669 78.06 64.6394 85.9321 61.726 94.1839C60.3211 98.1626 59.4657 102.123 58.6078 106.239C58.3197 107.617 56.1669 113.759 57.063 115.133C57.2443 115.104 57.4261 115.075 57.608 115.047Z" fill="black"/>
<path fill-rule="evenodd" clip-rule="evenodd" d="M504.894 285.323C505.851 284.684 505.851 284.684 506.019 283.478C504.736 283.712 504.736 283.712 504.894 285.323Z" fill="black"/>
<path fill-rule="evenodd" clip-rule="evenodd" d="M33.102 366.49C33.1142 366.489 33.1231 366.492 33.1301 366.499C33.1097 366.473 33.0356 366.395 33.102 366.49Z" fill="black"/>
<path fill-rule="evenodd" clip-rule="evenodd" d="M32.4601 367.136C32.7558 367.775 33.2307 367.934 33.8855 367.612C34.1437 367.981 31.6464 365.311 32.4601 367.136Z" fill="black"/>
<path fill-rule="evenodd" clip-rule="evenodd" d="M75.6595 75.4169C74.161 78.3548 76.0378 76.2179 75.9418 77.1722C76.0047 76.5454 76.2647 75.6521 75.6595 75.4169Z" fill="black"/>
<path fill-rule="evenodd" clip-rule="evenodd" d="M319.36 120.903C320.01 126.173 327.219 123.681 328.841 120.493C330.022 118.172 333.004 109.002 329.795 107.065C327.417 105.629 326.909 111.818 326.322 113.201C325.34 115.517 324.572 113.876 322.388 114.47C319.977 115.125 319.092 118.718 319.36 120.903Z" fill="black"/>
<path fill-rule="evenodd" clip-rule="evenodd" d="M311.483 111.257C314.06 111.83 316.586 111.535 318.417 109.5C319.43 108.373 320.779 106.137 318.954 105.046C317.3 104.059 315.424 106.372 313.682 105.894C311.313 105.243 312.533 102.703 311.72 101.025C308.734 102.745 307.068 110.277 311.483 111.257Z" fill="black"/>
<path fill-rule="evenodd" clip-rule="evenodd" d="M314.155 124.564C311.671 124.559 311.651 127.614 312.948 128.924C314.188 130.176 317.326 131.445 319.009 130.47C322.327 128.547 316.166 124.762 314.155 124.564Z" fill="black"/>
<path fill-rule="evenodd" clip-rule="evenodd" d="M169.618 246.059C170.148 246.317 171.711 247.642 172.37 247.044C171.44 246.107 170.51 245.17 169.58 244.233C169.066 244.797 168.714 245.62 169.618 246.059Z" fill="black"/>
<path fill-rule="evenodd" clip-rule="evenodd" d="M157.878 112.02C157.614 112.217 157.35 112.413 157.086 112.61C157.976 113.352 157.954 113.572 158.852 112.87C158.585 112.519 158.261 112.236 157.878 112.02Z" fill="black"/>
<path fill-rule="evenodd" clip-rule="evenodd" d="M326.24 286.86C325.741 285.963 324.798 287.616 324.16 287.885C323.122 288.322 322.271 286.007 322.568 288.782C320.222 287.708 318.798 290.172 317.285 291.456C315.148 293.27 312.533 294.254 311.107 296.829C317.819 298.399 325.193 292.613 330.198 288.813C331.014 288.192 335.096 285.061 332.329 284.758C331.198 284.635 327.08 288.367 326.24 286.86Z" fill="black"/>
<path fill-rule="evenodd" clip-rule="evenodd" d="M324.25 281.426C325.564 280.391 322.729 280.296 322.281 280.188C322.32 281.011 322.358 281.834 322.396 282.657C323.031 282.272 323.649 281.862 324.25 281.426Z" fill="black"/>
<path fill-rule="evenodd" clip-rule="evenodd" d="M319.311 284.88C319.704 284.635 320.799 283.868 320.054 283.298C319.381 283.726 318.899 284.425 318.794 285.223C318.966 285.109 319.139 284.994 319.311 284.88Z" fill="black"/>
<path fill-rule="evenodd" clip-rule="evenodd" d="M210.614 218.098C209.774 218.427 209.398 218.948 209.486 219.661C210.777 219.397 210.531 218.178 210.614 218.098Z" fill="black"/>
</svg>
