<svg width="545" height="419" viewBox="0 0 545 419" fill="none" xmlns="http://www.w3.org/2000/svg">
<path fill-rule="evenodd" clip-rule="evenodd" d="M169.899 190.2C171.883 210.223 173.866 230.246 175.848 250.269C186.646 244.108 197.443 237.947 208.239 231.786V277.401V289.391C208.239 290.452 207.61 294.096 208.239 295.015C208.774 295.794 212.73 295.817 213.665 295.948C219.77 296.803 225.889 297.563 232.017 298.24C248.167 300.023 265.453 302.579 281.665 300.529C295.758 298.747 309.42 293.735 322.295 287.903C326.815 285.855 331.272 283.664 335.647 281.322C336.574 280.825 339.941 279.653 340.445 278.642C340.857 277.816 339.89 274.915 339.762 274.048C339.218 270.389 338.673 266.73 338.129 263.072L330.531 211.983L344.885 226.317C346.009 227.44 348.145 230.629 349.701 231.126C350.842 231.491 353.667 230.361 354.795 230.145C362.922 228.578 371.05 227.011 379.178 225.446C381.072 225.081 385.339 225.094 386.935 223.951C387.795 223.334 387.835 222.081 388.139 220.892C390.121 213.126 392.104 205.36 394.086 197.594C394.443 196.195 396.435 191.785 395.929 190.376C395.747 189.871 394.868 189.526 394.33 189.196C382.063 181.704 369.795 174.211 357.528 166.719C350.808 162.614 344.088 158.51 337.368 154.406C334.553 152.686 331.095 149.588 327.906 148.626C325.926 148.029 323.045 148.476 320.996 148.417C316.832 148.299 312.669 148.18 308.505 148.061C307.853 148.043 305.57 147.578 305.021 147.962C304.565 148.282 304.754 148.727 304.604 149.489C304.238 151.349 304.235 153.355 304.055 155.244C303.91 156.759 304.198 159.538 303.515 160.91C303.078 161.786 303.632 161.437 303.042 161.861C302.339 162.366 300.095 162.203 299.259 162.3C295.179 162.774 291.099 163.248 287.019 163.722C282.168 164.285 277.263 165.342 272.39 164.855C265.001 164.118 257.035 164.154 249.78 162.598C247.895 162.193 247.216 161.131 245.761 159.679C242.923 156.844 240.113 153.977 237.243 151.172C235.836 149.798 236.439 150.031 234.989 150.552C233.171 151.205 231.328 152.782 229.684 153.783C223.382 157.622 217.081 161.461 210.779 165.299L172.307 188.733C171.504 189.222 170.702 189.711 169.899 190.2Z" fill="#FF5678"/>
<path fill-rule="evenodd" clip-rule="evenodd" d="M537.877 192.689C529.946 222.798 513.996 255.628 481.861 265.225C474.048 267.558 466.448 269.319 458.334 268.431C457.561 268.346 456.915 268.455 456.181 268.469C454.864 268.494 456.001 268.966 454.525 268.511C453.374 268.155 452.297 267.267 451.098 266.874C447.909 265.831 444.509 265.629 441.269 264.786C433.306 262.714 425.1 260.157 417.384 257.3C413.751 255.956 410.412 254.082 406.995 252.28C403.521 250.449 399.84 249.312 396.327 247.632C393.55 246.305 388.794 244.575 386.843 242.084C384.762 239.429 387.64 233.775 388.464 230.952C391.263 221.345 394.596 211.88 396.699 202.082C403.963 210.5 414.044 215.713 424.481 219.075C430.144 220.899 435.969 222.218 441.859 223.044C447.206 223.793 452.975 224.7 458.336 223.636C462.382 222.833 467.462 220.973 470.352 217.884C471.383 216.781 472.62 214.76 472.043 213.159C471.309 211.125 469.171 212.082 468.015 210.565C467.007 209.243 467.165 206.152 466.844 204.543C466.276 201.694 465.495 198.924 464.543 196.183C462.694 190.859 460.39 185.523 459.838 179.858C459.358 174.944 460.477 170.296 462.929 166.031C464.088 164.015 466.997 158.531 469.837 158.759C472.955 159.009 468.75 172.151 468.612 174.832C468.067 185.459 469.493 196.783 474.947 206.098C477.035 209.665 480.054 213.817 484.512 214.259C489.235 214.727 493.044 211.012 495.291 207.253C500.776 198.081 498.011 185.496 495.233 175.884C491.826 164.09 482.933 155.961 477.31 145.369C485.705 146.213 490.201 151.546 494.509 158.313C499.253 165.762 502.945 174.705 504.766 183.372C505.686 187.752 505.051 192.149 505.057 196.572C505.059 198.041 505.058 203.46 507.454 203.247C510.013 203.019 510.891 196.906 511.268 195.041C512.131 190.764 513.065 186.486 513.814 182.188C515.14 174.583 515.729 166.794 517.318 159.242C517.586 157.965 518.121 154.423 520.032 155.38C521.505 156.116 521.268 161.594 521.323 162.868C521.455 166.005 521.641 169.143 521.666 172.284C521.704 176.94 520.776 181.759 521.231 186.386C521.529 189.409 523.151 192.75 525.163 188.673C527.157 184.629 527.564 179.586 528.676 175.238C529.845 170.672 531.051 166.039 533.531 161.983C534.219 160.859 534.958 159.072 536.487 159.602C537.598 159.987 538.418 162.619 538.761 163.549C540.31 167.748 540.048 172.417 539.95 176.813C539.83 182.2 539.252 187.466 537.877 192.689ZM383.231 200.503C382.807 200.366 381.007 200.195 380.56 200.156C380.037 200.11 380.631 199.146 379.364 199.42C379.609 200.026 380.043 200.431 380.668 200.633C378.763 201.278 377.359 199.687 376.056 199.482C374.811 199.286 374.758 199.482 373.528 200.798C372.196 199.173 372.445 200.186 371.35 200.187C370.952 200.187 370.935 200.789 370.286 200.717C369.72 200.654 369.66 199.795 369.325 199.694C367.508 199.144 365.638 201.912 363.577 199.511C363.077 202.009 357.355 198.88 355.153 199.319C352.845 199.778 353.841 200.606 351.975 199.191C350.198 197.844 350.694 198.739 348.627 199.842C348.675 199.816 347.46 200.637 347.573 200.65C346.141 200.482 346.223 199.003 344.411 199.082C342.493 199.165 341.673 200.669 339.918 198.818C339.536 200.204 339.457 199.607 338.558 199.956C338.063 200.074 337.63 199.944 337.259 199.567C337.146 199.947 336.899 200.181 336.517 200.267C335.537 200.355 333.698 200.491 332.808 200.019C331.473 199.311 332.546 199.039 331.62 198.243C331.205 200.439 330.295 199.972 328.376 200.177C326.913 200.334 326.59 199.885 325.193 199.666C323.816 199.452 322.037 199.986 320.693 200.213C320.139 200.308 319.396 200.695 318.832 200.559C318.323 200.436 318.105 200.042 317.802 199.938C317.433 199.814 317.511 199.491 316.874 199.335C316.434 199.228 315.647 199.64 315.208 199.711C312.077 200.22 309.07 200.225 306.083 198.993C307.554 201.578 302.645 200.182 301.769 199.112C300.675 200.826 299.351 199.616 297.147 199.75C295.023 199.879 291.829 200.529 290.968 197.885C290.8 198.422 289.595 199.982 289.115 200.22C287.723 200.91 287.557 199.889 286.263 199.474C284.501 198.908 284.869 199.982 283.776 200.2C281.933 200.57 280.936 199.271 279.307 198.581C279.238 199.654 279.202 200.314 278.274 200.982C277.453 197.99 274.52 201.227 275.024 197.228C273.908 197.955 272.338 198.513 272.02 199.982C273.886 199.469 272.219 200.688 272.141 200.729C271.895 200.858 271.062 199.689 270.868 199.524C270.815 200.075 270.763 200.627 270.71 201.178C269.967 200.807 269.269 200.141 268.666 199.808C268.122 199.508 268.901 198.883 267.983 198.84C267.499 198.816 266.994 199.865 266.486 199.954C265.709 200.09 266.082 198.976 265.757 199.013C265.262 199.07 264.455 199.795 264.08 199.781C262.852 199.735 263.683 199.164 262.746 198.902C261.072 198.433 261.179 199.528 259.975 199.923C257.221 200.827 257.497 196.666 254.696 199.442C254.025 200.105 253.594 201.131 252.675 201.074C250.774 200.954 251.441 198.7 251.828 197.596C252.227 197.793 244.879 201.568 244.938 201.42C244.984 200.515 246.139 199.817 245.107 199.013C244.262 200.825 243.374 200.856 241.426 201.194C240.479 201.358 240.293 201.577 239.28 201.184C238.634 200.933 238.201 199.904 237.559 199.847C237.646 199.855 236.468 200.751 236.288 200.832C235.226 201.311 234.553 200.768 233.52 200.965C232.639 201.133 232.292 201.882 231.416 201.677C230.247 201.403 230.934 200.007 229.325 200.397C228.775 200.53 228.445 201.59 227.578 201.808C226.227 202.15 224.572 201.513 223.144 201.845C222.011 202.11 221.171 202.222 220.18 202.277C219.379 202.322 219.708 201.699 218.235 202.434L217.61 200.859C216.873 201.523 216.135 202.185 215.397 202.849C215.258 202.254 215.169 201.652 215.131 201.042C214.031 202.144 212.646 202.332 211.167 202.432C209.566 202.539 208.373 202.888 206.814 203.181C206.322 203.273 205.053 203.421 204.648 203.248C204.707 203.273 203.89 202.934 204.136 202.998C204.03 202.782 203.932 202.562 203.841 202.339C203.703 201.717 203.256 201.69 202.501 202.257C202.11 202.197 201.352 201.684 200.962 201.81C199.957 202.136 200.094 202.915 199.093 202.801C198.443 202.726 198.111 201.766 197.435 201.701C196.399 201.602 195.502 202.761 194.569 203.013C197.406 202.243 190.891 202.841 192.916 202.894C191.588 202.859 190.209 202.793 188.982 203.388C188.304 202.925 189.127 201.993 188.442 201.609C187.82 201.261 187.772 202.18 187.7 202.2C188.092 202.089 187.896 202.871 187.504 203.01C186.282 203.443 185.304 202.342 185.24 201.249C184.202 202.812 183.91 202.184 182.383 202.281C180.877 202.376 179.577 203.165 178.07 203.151C175.09 203.122 173.068 202.087 172.073 199.426C175.249 199.813 178.445 197.77 181.551 198.252C182.571 198.41 183.209 199.176 184.103 199.04C185.204 198.872 185.974 197.671 187.387 197.541C190.502 197.256 193.574 197.533 196.711 197.056C200.458 196.485 204.368 196.147 208.152 196.425C211.075 196.64 213.442 195.522 216.407 195.307C220.24 195.028 224.105 194.979 227.945 194.777C231.89 194.57 236.136 193.94 240.07 194.142C241.298 194.205 242.356 194.326 243.575 194.252C244.09 194.221 244.578 193.871 245.119 193.923C245.824 193.992 246.126 194.713 246.857 194.688C248.099 194.645 249.426 193.622 250.902 193.594C253.33 193.548 255.746 193.554 258.18 193.415C260.322 193.294 262.617 192.793 264.75 192.821C266.255 192.839 266.626 194.121 267.503 194.254C269.079 194.491 277.054 189.953 277.743 194.026C281.894 191.185 287.462 193.59 292.083 193.057C298.019 192.371 304.065 192.982 310.042 192.738C316.124 192.49 322.38 192.719 328.438 193.293C330.947 193.53 333.371 193.753 335.887 193.609C337.009 193.545 338.306 193.259 339.428 193.517C339.699 193.58 341.78 195.032 341.521 195.074C342.658 194.054 341.889 193.904 343.888 193.852C345.429 193.812 346.886 194.144 348.418 194.235C351.169 194.398 353.94 194.017 356.684 194.101C358.975 194.171 361.216 194.509 363.519 194.525C366.002 194.544 368.934 194.614 370.731 196.615C370.541 195.987 370.352 195.358 370.162 194.73C372.933 194.946 375.672 195.936 378.473 195.473C377.765 196.152 377.045 196.707 376.774 197.703C378.285 197.511 379.308 196.456 380.899 196.448C382.235 196.44 382.513 197.11 383.923 196.244C384.097 197.305 384.271 198.366 384.445 199.426C386.398 198.967 385.116 197.51 385.259 196.197C386.847 196.674 388.191 196.126 387.565 198.41C387.083 200.171 384.884 201.039 383.231 200.503ZM380.486 220.117C379.804 222.031 373.912 220.938 372.519 220.735C370.719 220.475 368.659 220.061 367.002 219.856C366.803 219.591 366.564 219.366 366.287 219.181C366.078 219.471 365.814 219.678 365.495 219.799C364.734 219.965 364.731 220.751 363.731 220.577C363.685 221.74 364.492 221.079 365.111 221.501C363.552 222.547 364.265 221.343 363.39 221.362C363.174 221.055 362.872 220.934 362.485 221C361.991 221.128 361.537 221.339 361.122 221.633C360.731 222.045 360.398 222.066 360.12 221.698C359.853 221.43 359.529 221.264 359.145 221.202C357.609 221.451 357.179 222.133 355.449 222.022C352.978 221.863 350.304 222.514 347.871 222.171C346.364 221.959 343.844 219.589 343.16 221.899C342.117 220.187 340.457 219.022 339.459 217.273C344.108 217.004 348.756 216.684 353.409 216.516C357.482 216.37 361.939 216.828 365.746 216.636C369.312 216.456 373.088 216.062 376.73 215.737C380.589 215.392 381.866 216.239 380.486 220.117ZM259.203 220.4C260.891 220.867 262.498 219.808 264.136 220.143C264.677 220.253 265.797 221.239 266.044 221.258C266.495 221.294 267.82 220.327 268.388 220.197C271.984 219.379 276.34 219.466 279.935 219.968C281.84 220.234 282.132 219.363 283.795 218.94C285.523 218.499 287.98 218.838 289.8 218.717C294.081 218.43 298.361 218.634 302.614 218.321C306.979 217.999 311.323 217.825 315.691 217.601C318.666 217.448 325.816 215.751 328.282 217.959C330.316 219.78 327.696 222.942 325.662 223.664C324.14 224.202 323.412 223.067 322.283 223.176C320.997 223.299 321.445 224.818 320.298 223.409C319.587 224.81 315.116 224.213 313.835 224.306C311.044 224.507 308.682 225.067 306.782 222.463C306.91 223.214 307.039 223.965 307.168 224.716C304.649 223.37 301.944 223.8 299.757 224.27C298.674 224.503 295.349 226.109 294.176 225.416C293.368 224.94 294.791 224.125 293.429 223.718C292.715 223.505 291.483 224.69 290.611 224.631C288.197 224.465 288.882 222.842 286.51 224.908C285.707 224.213 285.44 223.032 285.546 222.019C283.824 223.488 283.968 225.937 280.888 225.489C279.74 225.322 279.529 224.152 278.931 223.935C277.657 223.475 277.512 224.302 276.408 224.957C275.991 225.204 275.483 225.602 274.992 225.652C273.984 225.752 273.824 225.289 273.686 225.304C273.015 225.378 272.17 225.719 271.374 225.475C270.66 225.257 270.451 223.996 269.193 224.291C267.988 224.573 267.978 225.391 268.197 226.616C267.009 226.493 266.291 225.832 265.402 225.115C264.505 227.207 262.617 225.474 261.572 227.239C260.211 225.615 259.339 226.062 257.65 224.475C257.734 225.137 257.816 225.799 257.899 226.462C256.582 226.208 255.996 225.279 254.871 226.508C253.781 224.476 250.473 227.371 248.775 225.409C248.017 227.894 243.007 227.3 240.892 227.343C239.016 227.381 237.628 227.228 235.796 227.663C234.177 228.048 231.933 228.447 230.41 228.271C229.415 228.156 228.328 227.973 227.088 228.108C225.301 228.302 223.758 229.227 221.906 228.789C219.119 228.131 217.411 224.469 220.515 222.861C222.64 221.761 226.467 222.168 228.805 221.965C232.68 221.628 237.023 220.923 240.903 221.244C243.93 221.494 246.688 220.772 249.776 220.467C252.101 220.237 255.912 219.824 257.428 222.128C258.01 221.455 257.95 220.053 259.203 220.4ZM216.784 251.939C216.367 249.867 234.083 248.726 235.841 248.59C239.533 248.306 243.235 248.103 246.935 248.009C249.977 247.932 252.816 248.512 255.858 248.045C258.7 247.61 262.13 246.716 264.603 248.728C264.967 245.976 275.631 247.317 277.659 247.324C286.491 247.356 294.942 247.377 303.484 246.83C308.366 246.517 313.55 246.096 318.433 246.341C320.636 246.451 322.409 247.038 324.599 246.528C326.028 246.197 327.567 245.505 328.934 246.482C330.532 247.627 331.216 251.511 330.114 253.132C329.312 254.313 328.601 254.183 327.32 253.978C325.35 253.665 323.886 253.209 321.877 254.01C322.202 253.879 320.531 254.253 320.669 254.242C318.393 254.412 315.272 256.002 313.311 254.169C314.097 254.307 315.239 252.904 314.248 252.789C313.504 252.703 313.033 253.5 312.452 253.767C310.466 254.68 309.45 254.395 308.265 252.479C305.873 254.548 305.616 253.975 304.566 251.427C303.757 252.049 303.584 253.522 302.948 254.005C302.853 254.077 303.245 254.971 302.785 254.934C302.359 254.899 302.22 254.201 301.892 254.146C301.683 254.111 301.573 253.498 301.373 253.461C301.156 253.42 300.933 253.811 300.687 253.8C300.03 253.769 298.151 255.167 298.825 253.205C297.829 254.471 297.4 253.664 297.041 252.511C295.892 253.386 294.743 254.259 293.593 255.133C293.058 253.646 292.138 254.051 290.981 254.57C291.33 253.538 291.111 252.562 290.236 253.279C289.729 253.695 289.389 255.014 288.871 255.574C286.772 253.449 286.009 254.032 283.109 254.308C282.003 254.413 280.627 254.618 279.639 253.949C278.769 253.362 278.278 251.205 276.791 252.947C277.122 252.56 276.603 255.536 276.512 256.009C275.856 255.567 275.299 255.023 274.84 254.379C273.985 256.072 271.739 254.553 269.9 254.899C267.002 255.444 264.014 256.362 261.455 254.205C261.274 254.901 259.178 255.788 259.175 255.815C259.299 254.582 260.077 255.016 258.489 254.782C258.197 254.739 257.865 255.265 257.589 255.322C256.642 255.518 255.536 255.332 254.582 255.305C250.612 255.191 246.979 256.07 243.059 256.389C241.738 256.496 240.17 256.707 238.93 256.209C237.652 255.695 237.687 255.112 236.394 255.443C236.803 255.339 235.586 256.617 235.652 256.569C235.478 256.696 234.753 256.072 234.495 256.118C234.42 256.391 234.345 256.664 234.27 256.936C233.958 256.898 233.647 256.859 233.335 256.821C232.482 256.936 231.714 256.073 230.913 256.044C231.06 256.049 228.752 256.909 228.857 256.961C227.245 256.157 227.708 256.39 225.664 256.88C223.731 257.342 221.807 257.234 219.825 257.522C214.058 258.36 217.493 255.47 216.784 251.939ZM211.69 280.772C210.606 279.234 213.491 278.702 214.413 278.567C215.928 278.343 217.939 278.788 218.949 278.547C220.487 278.181 221.972 277.308 223.703 277.071C225.889 276.772 228.091 276.724 230.285 276.537C231.016 276.474 231.921 276.222 232.632 276.264C233.691 276.328 234.131 276.889 234.986 276.892C236.443 276.9 238.239 275.98 239.732 275.812C241.643 275.595 243.574 275.493 245.495 275.398C249.541 275.197 253.546 275.28 257.591 275.276C259.436 275.274 264.348 273.359 265.268 275.505C266.547 273.879 269.828 274.101 271.656 274.053C274.877 273.971 278.065 273.66 281.283 273.51C284.039 273.382 287.118 273.972 289.824 273.559C291.316 273.331 291.81 272.853 293.501 273.069C294.758 273.228 296.673 272.565 297.752 272.858C297.696 272.843 299.098 273.712 298.661 273.739C299.142 273.708 299.114 274.045 299.645 273.895C300.342 273.698 300.022 272.821 301.468 272.51C303.723 272.023 306.73 272.586 309.072 272.461C311.345 272.34 313.614 272.288 315.889 272.299C316.936 272.303 318.232 272.053 319.251 272.258C319.75 272.357 320.811 273.009 321.234 272.944C322.433 272.756 323.043 271.924 324.664 271.975C326.501 272.033 328.155 272.008 329.982 271.868C331.75 271.733 332.035 271.48 332.911 272.952C333.78 274.412 334.02 276.313 332.421 277.305C333.46 277.237 334.737 278.629 333.513 279.398C332.757 279.875 331.24 278.8 330.334 278.877C329.218 278.973 328.342 279.563 327.128 279.6C325.851 279.639 324.554 279.961 323.295 279.985C321.983 280.01 320.992 279.424 319.748 279.674C318.653 279.894 318.537 280.791 317.219 280.004C316.564 279.611 316.454 278.16 315.56 278.147C314.363 278.128 314.84 279.675 314.152 280.392C313.967 278.18 312.259 281.84 311.58 279.155C310.954 280.046 308.637 281.294 307.514 280.578C306.49 279.925 306.83 278.447 306.404 277.382C305.694 279.296 303.79 281.281 303.963 277.797C303.037 278.936 300.538 278.756 301.165 280.748C300.411 280.734 300.233 279.658 299.599 279.577C299.051 279.506 298.617 279.927 298.533 279.921C298.833 279.946 297.637 280.344 297.618 280.348C298.428 280.184 295.281 279.903 295.817 279.908C295.087 279.902 294.193 280.499 293.339 280.497C292.562 280.496 291.788 280.189 291.02 280.102C289.03 279.875 289.444 280.312 288.194 280.937C287.731 281.168 287.615 281.56 286.958 281.512C286.473 281.475 286.291 280.842 286.236 280.837C285.554 280.768 286.058 280.539 284.999 280.645C284.877 280.854 284.757 281.063 284.635 281.272C284.253 281.761 283.756 281.883 283.147 281.639C281.58 281.975 276.382 283.432 276.891 280.734C276.094 281.123 275.298 281.513 274.501 281.903C274.16 279.727 269.832 282.611 268.866 282.757C267.625 282.943 267.511 282.467 266.339 282.214C266.127 282.169 265.703 282.866 265.208 282.766C263.921 282.507 263.692 282.379 263.472 280.982C262.555 282.697 261.792 281.93 260.129 282.212C259.76 282.274 259.526 282.999 258.997 282.874C258.616 282.784 258.606 282.088 258.343 281.998C258.107 281.917 258.142 281.367 257.794 281.289C257.395 281.199 256.034 282.315 255.644 282.488C254.763 282.875 253.317 283.518 252.457 283.326C251.394 283.088 251.867 282.3 250.366 282.389C247.996 282.527 247.008 284.544 245.534 281.367C244.869 282.639 244.953 282.985 243.885 283.405C243.095 283.715 241.096 283.391 240.056 283.352C235.616 283.189 231.251 284.701 226.849 284.305C224.913 284.131 223.281 283.744 221.329 284.06C219.276 284.394 217.269 284.883 215.188 285.08C214.129 285.18 211.917 285.485 211.397 284.131C210.941 282.94 212.645 282.128 211.69 280.772ZM220.398 329.619C214.639 333.471 209.869 338.732 204.582 343.186C199.281 347.653 195.074 352.617 190.306 357.563C185.898 362.134 181.849 366.46 176.52 369.914C173.148 372.101 170.14 374.792 166.676 376.854C164.081 378.397 160.151 380.429 161.417 375.706C162.714 370.866 165.109 365.975 167.189 361.454C170.146 355.03 173.125 348.664 176.324 342.361C177.527 339.993 178.199 337.635 180.106 335.749C182.181 333.695 183.634 331.015 185.905 329.075C195.463 320.916 209.866 327.219 220.398 329.619ZM238.462 332.385C235.85 333.754 232.926 334.093 230.158 334.999C227.799 335.77 225.605 337.142 223.068 337.244C225.378 335.509 227.361 333.154 229.966 331.837C232.894 330.356 235.553 331.434 238.462 332.385ZM353.117 343.796C343.508 340.554 334.562 335.777 325.204 331.933C323.588 331.268 310.954 327.107 311.21 325.127C320.064 323.505 329.182 320.722 338.058 323.757C346.131 326.517 352.698 333.14 358.948 338.682C360.579 340.128 370.664 346.714 369.762 348.811C369.137 350.265 364.278 349.869 363.13 349.571C361.647 349.185 360.794 348.285 359.631 347.297C357.687 345.645 355.536 344.613 353.117 343.796ZM335.379 289.632C336.839 288.289 337.712 286.251 339.106 285.011C340.897 283.419 343.787 284.195 345.745 285.022C351.62 287.505 356.642 291.679 362.481 294.269C368.953 297.14 374.554 300.976 380.391 304.93C385.726 308.544 391.494 311.536 396.94 314.984C402.489 318.5 408.701 320.784 414.326 324.175C420.051 327.626 425.753 331.09 431.255 334.892C441.065 341.673 451.279 348.637 458.536 358.277C462.267 363.232 465.759 368.853 468.495 374.417C470.984 379.475 473.683 386.497 470.458 391.759C467.362 396.812 462.084 400.792 457.616 404.563C455.924 405.991 454.315 407.725 452.122 408.344C449.455 409.096 446.342 408.889 443.599 409.111C428.932 410.301 415.267 409.178 400.813 406.555C386.876 404.026 372.88 402.609 358.836 400.851C350.913 399.86 342.992 398.704 335.176 397.053C331.835 396.347 328.436 395.533 325.167 394.571C322.312 393.731 319.911 391.881 316.976 391.149C304.517 388.037 290.263 386.848 277.93 381.615C288.844 377.079 300.443 374.339 311.629 370.571C323.403 366.604 334.902 363.275 347.311 362.148C353.697 361.568 359.411 359.937 365.554 358.23C371.408 356.604 377.519 356.105 383.532 355.376C386.205 355.052 393.836 355.537 394.723 352.042C396.042 346.838 388.544 346.238 385.348 346.704C380.814 347.365 377.075 348.497 373.605 344.777C370.062 340.978 366.619 337.089 363.011 333.339C356.323 326.385 349.428 318.341 339.973 315.221C328.438 311.415 315.062 315.028 303.553 317.193C291.397 319.479 279.26 321.667 267.331 324.991C262.391 326.366 256.02 329.398 250.894 328.912C245.841 328.431 240.118 327.604 235.235 326.147C233.026 325.488 231.21 324.266 229.233 323.127C226.662 321.645 223.845 320.696 221.118 319.544C215.601 317.216 210.223 315.071 204.272 314.156C199.259 313.385 193.937 312.928 189.08 314.685C184.314 316.409 180.092 319.918 176.767 323.668C173.156 327.741 170.171 332.306 167.211 336.857C165.79 339.041 164.056 340.948 162.584 343.083C161.348 344.877 160.627 346.869 159.32 348.612C156.393 352.511 154.406 357.5 152.634 362.036C150.663 367.074 148.475 373.067 148.945 378.548C149.123 380.619 149.308 383.364 150.11 385.284C151.129 387.728 152.582 387.665 154.677 388.587C158.277 390.17 159.286 394.547 163.938 393.693C168.301 392.893 172.085 389.298 175.268 386.432C179.417 382.698 183.388 378.76 187.358 374.837C191.432 370.811 195.446 366.345 198.687 361.608C199.963 359.743 200.958 357.637 202.465 355.939C204.385 353.776 206.541 353.516 209.149 352.655C231.948 345.122 254.858 337.855 278.37 332.881C284.002 331.69 289.681 330.152 295.215 328.566C301.083 326.884 304.123 328.662 308.966 331.864C319.085 338.554 331.046 343.267 342.313 347.632C345.862 349.007 351.51 349.094 354.283 351.805C337.843 354.31 322.177 359.132 306.32 363.934C298.502 366.301 290.594 368.354 282.747 370.617C274.896 372.882 267.345 375.817 259.602 378.37C251.896 380.91 243.753 381.947 235.973 384.291C228.03 386.683 220.122 388.329 211.969 389.783C203.737 391.252 195.563 392.947 187.303 394.262C183.521 394.864 179.74 395.488 176 396.316C172.341 397.127 168.805 399.068 165.127 399.518C148.703 401.528 132.6 406.005 116.239 408.536C104.023 410.426 82.7708 413.062 74.8493 400.806C66.8837 388.481 76.6563 374.103 85.3762 365.29C90.7953 359.813 96.8845 354.993 103.273 350.704C110.111 346.115 116.689 341.16 123.528 336.577C139.005 326.206 155.787 317.748 172.415 309.414C180.395 305.415 188.107 301.125 195.87 296.735C199.723 294.556 201.856 298.072 204.902 300.461C207.298 302.341 211.697 306.974 215.049 304.832C215.177 305.603 215.307 306.375 215.436 307.147C216.417 306.699 217.4 306.252 218.381 305.804C219.041 307.534 218.964 308.608 220.806 309.516C221.937 310.074 224.352 310.746 225.431 309.763C225.651 310.447 225.87 311.129 226.091 311.811C227.034 311.739 227.216 309.042 227.394 308.41C229.009 310.77 231.245 312.743 234.085 313.41C234.099 313.256 233.623 311.317 233.643 311.305C234.542 310.755 235.676 313.111 236.152 313.615C237.732 315.287 238.674 315.027 240.419 313.678C240.546 313.816 241.137 315.357 241.223 315.329C241.6 315.209 242.317 313.844 242.396 313.719C242.287 315.516 245.755 315.878 246.98 315.492C246.705 314.966 246.43 314.439 246.156 313.913C250.422 313.344 252.097 317.876 256.191 317.646C259.219 317.475 256.791 316.814 258.504 315.517C260 314.384 260.267 316.862 260.414 316.783C260.7 316.485 260.921 316.141 261.078 315.753C261.632 317.875 266.042 319.778 265.586 316.289C267.321 316.983 268.552 318.135 270.472 318.378C272.806 318.674 275.298 318.178 277.626 317.985C282.643 317.568 287.371 316.545 291.893 314.246C294.574 312.884 297.428 311.648 299.948 310.004C302.057 308.628 306.058 304.451 308.866 306.25C308.146 304.129 311.532 306.094 311.64 303.362C312.184 303.772 312.727 304.181 313.271 304.592C313.597 303.877 313.506 302.75 313.943 302.126C314.543 301.271 314.836 301.775 315.347 301.293C315.919 300.755 316.418 299.312 317.104 298.902C317.811 298.479 318.643 298.983 319.403 298.614C320.562 298.051 325.543 292.558 324.7 297.264C326.842 296.537 325.191 295.871 325.458 294.444C325.995 291.583 327.303 293.642 328.606 293.891C330.74 294.3 330.697 292.536 331.886 291.255C332.973 290.084 335.015 289.56 334.312 287.526C335.115 287.96 335.286 288.808 335.379 289.632ZM206.775 228.538C205.095 230.41 203.836 229.61 201.968 229.335C201.767 228.665 201.426 228.573 200.943 229.056C200.389 229.375 199.794 229.584 199.156 229.684C197.624 230.062 196.032 229.902 194.534 230.474C194.577 229.972 195.104 229.079 194.766 228.57C193.19 229.66 192.213 230.353 190.277 230.374C188.708 230.39 185.955 229.192 184.653 230.625C184.613 230.067 184.572 229.51 184.533 228.952C183.895 229.27 183.34 229.695 182.868 230.228C182.778 229.402 182.729 228.777 182.183 228.11C181.146 230.241 180.011 230.291 177.998 229.477C178.281 229.591 175.984 228.244 176.071 228.618C175.345 225.557 186.809 225.81 188.013 225.689C191.019 225.386 194.024 225.209 197.034 224.932C199.889 224.67 202.02 224.225 203.996 226.606C203.115 223.166 211.445 223.337 206.775 228.538ZM75.3312 175.184C75.647 180.385 76.8048 185.913 74.7824 190.919C73.1567 194.943 69.9134 199.488 66.4194 202.114C59.2653 207.491 53.202 200.911 52.206 193.681C51.1683 186.139 53.2254 176.924 59.7195 172.274C63.6 169.496 67.3573 169.688 71.8246 170.602C72.8737 170.816 74.5771 170.734 75.1771 171.776C75.318 172.02 75.1917 175.179 75.3312 175.184ZM170.347 244.483C169.111 245.107 167.818 245.472 166.728 246.32C166.35 246.615 166.221 247.287 165.819 247.534C165.089 247.987 164.044 247.687 163.282 248.06C162.022 248.676 161.118 249.557 159.62 250.125C157.395 250.968 155.444 252.125 153.34 253.221C149.836 255.049 146.075 256.617 142.412 258.104C140.563 258.855 135.448 260.319 135.625 263.026C135.212 263.137 134.789 262.233 133.925 262.305C132.74 262.404 131.173 263.775 129.942 264.112C127.639 264.742 125.857 264.798 125.857 267.734C125.124 267.236 124.938 266.017 123.963 265.856C122.865 265.674 122.403 266.858 121.526 267.226C120.492 267.66 119.206 267.244 118.182 267.706C117.734 268.179 117.236 268.593 116.689 268.946C116.132 269.009 115.577 268.993 115.026 268.894C112.852 269.355 110.852 270.173 108.673 270.597C106.549 271.012 105.095 271.162 105.988 273.674C103.716 274.118 103.161 271.708 100.598 272.59C97.4567 273.669 94.5204 274.449 91.2412 275.107C89.5687 275.443 87.8211 276.193 86.1366 276.369C84.9347 276.495 83.813 276.065 82.6293 276.199C81.2032 276.359 80.0569 277.019 78.5808 277.044C77.1806 277.069 75.7108 276.817 74.3359 276.57C74.5304 277.124 74.7736 277.655 75.0654 278.164C74.1148 277.965 73.6758 276.822 72.8699 276.652C72.0242 276.475 71.2663 277.348 70.5621 277.154C70.2621 277.072 70.4616 276.147 69.9254 275.97C69.4359 275.81 69.23 275.999 68.745 275.923C68.5833 275.898 66.5552 275.788 66.2318 275.959C65.6672 276.259 66.2388 276.82 66.1264 276.903C64.2189 278.315 64.1956 277.553 63.3455 276.078C62.0968 273.914 60.5911 275.28 58.3217 274.901C55.7922 274.479 53.7995 275.595 51.3104 275.436C48.6255 275.265 45.47 273.256 43.0958 272.082C37.9698 269.549 32.9707 267.151 28.6658 263.314C20.2497 255.812 13.4032 246.587 9.36646 236.026C5.0291 224.68 4.2072 212.847 4.55534 200.81C4.76477 193.571 5.3442 186.336 6.48524 179.182C7.27076 174.26 7.43529 165.515 12.9839 163.274C13.9376 174.797 10.9277 186.539 12.826 197.987C13.3976 201.436 14.7915 206.03 17.4297 208.584C21.3355 212.364 22.2494 206.899 22.6024 203.881C23.2599 198.274 24.4814 192.699 25.3467 187.119C26.2107 181.542 26.8215 175.902 28.0228 170.383C28.4611 168.371 31.9943 153.635 34.5876 154.333C34.0628 165.053 32.6695 175.589 32.6145 186.348C32.593 190.664 32.2065 195.222 32.8292 199.509C33.1501 201.715 35.1592 208.189 38.6147 207.649C41.8124 207.15 38.297 202.589 37.9982 200.831C37.2075 196.176 38.2155 190.385 38.9526 185.765C40.3484 177.021 43.4615 168.066 48.5497 160.759C53.1073 154.217 60.1243 147.988 68.5782 149.142C72.1897 149.635 75.0079 150.532 76.8224 153.83C78.2467 156.418 83.8559 159.36 80.6051 162.601C77.646 165.551 72.8598 163.189 69.5705 162.486C65.5428 161.625 61.2264 162.661 57.8581 165.021C52.079 169.069 48.7859 176.307 47.7109 183.095C46.262 192.248 50.135 216.205 64.3996 210.836C73.8761 207.269 81.0137 194.437 80.2179 184.614C79.8989 180.681 78.3617 173.216 83.8022 172.154C90.7725 170.794 91.7572 178.478 91.0511 183.471C90.0253 190.734 86.1865 197.487 81.795 203.23C77.9675 208.235 73.516 211.364 68.9104 215.498C67.5468 216.721 64.0686 219.473 64.6529 221.749C65.2933 224.243 70.7591 224.952 72.9476 225.362C83.7751 227.389 95.9851 225.525 106.794 224.11C129.01 221.2 150.933 214.035 169.15 200.862C169.886 209.013 170.813 217.136 171.155 225.317C171.321 229.288 171.363 233.316 171.817 237.265C172.097 239.694 173.107 243.088 170.347 244.483ZM108.746 272.884C107.874 273.34 108.817 270.581 108.575 271.493C109.878 271.961 109.935 272.424 108.746 272.884ZM200.903 174.243C202.288 172.717 206.07 169.087 207.271 172.532C207.718 171.063 207.776 168.888 209.5 170.871C210.187 168.435 217.76 168.663 219.636 168.556C225.642 168.212 231.673 168.028 237.658 167.432C249.957 166.206 262.47 166.839 274.814 166.798C277.487 166.789 280.153 166.645 282.806 167.032C285.367 167.406 288.058 168.456 290.668 168.073C292.988 167.732 294.51 167.092 296.898 167.365C299.756 167.693 302.53 167.926 305.414 167.915C318.167 167.869 330.914 168.385 343.669 168.406C346.155 168.409 349.134 167.924 351.466 168.98C352.33 169.371 353.275 170.674 353.935 170.816C354.691 170.98 354.242 169.8 355.254 170.333C356.61 171.046 355.56 173.24 354.664 173.587C355.201 173.379 353.696 173.174 353.846 173.166C353.133 173.204 352.523 173.752 351.756 173.718C350.588 173.667 349.61 172.954 348.669 172.327C348.653 172.584 349.17 174.291 348.579 174.377C348.072 174.451 347.595 172.768 347.544 172.376C344.691 174.893 341.667 173.491 338.126 173.809C335.615 174.036 330.377 175.711 328.625 173.089C328.553 173.647 328.328 174.135 327.955 174.554C327.454 175.316 327.021 175.251 326.655 174.357C326.532 174.363 325.311 174.628 325.287 174.626C324.429 174.558 323.315 174.25 322.442 174.175C321.09 174.06 321.339 175.044 320.262 175.059C319.674 175.068 318.175 174.219 317.149 174.166C315.373 174.073 313.559 174.826 311.807 174.598C310.601 174.442 309.511 173.46 308.327 173.422C306.852 173.372 306.374 174.497 305.206 172.918C304.966 172.853 304.818 173.782 304.723 173.798C304.746 173.794 303.611 173.962 303.477 174.014C303.244 174.103 302.336 174.519 302.06 174.523C301.464 174.535 301.14 174.108 300.508 174.097C299.462 174.08 296.123 175.001 296.216 173.065C292.483 174.449 289.298 173.91 285.467 174.236C283.709 174.387 282.605 174.152 280.933 173.829C278.838 173.425 277.448 173.933 275.359 174.036C273.352 174.134 272.719 173.285 271.024 172.518C270.356 172.215 269.915 171.817 269.095 171.985C268.627 172.081 268.96 172.868 268.822 172.921C268.102 173.199 267.599 172.905 266.612 172.973C264.789 173.096 264.064 174.62 262.19 173.19C262.812 173.115 263.435 173.038 264.059 172.963C262.267 172.203 259.902 171.816 260.336 174.581C258.808 174.367 260.131 173.326 259.38 172.954C258.628 172.582 257.787 173.204 256.841 173.512C254.343 174.322 252.26 173.92 249.655 173.775C246.695 173.609 239.77 176.024 237.651 172.889C237.587 173.55 236.878 175.39 235.934 175.304C235.626 175.275 236.484 173.321 236.581 173.115C236.095 174.15 233.876 174.346 232.783 174.883C232.906 174.327 233.028 173.771 233.15 173.215C232.135 174.296 231.642 173.636 230.447 173.998C229.925 174.156 229.169 175.232 228.723 175.298C228.203 174.694 227.548 174.435 226.761 174.519C226.237 174.388 225.714 174.362 225.19 174.442C223.094 174.595 221.183 175.759 219.097 174.966C217.292 174.278 216.594 172.51 215.518 175.323C215.234 174.823 214.951 174.323 214.668 173.823C214.319 174.366 213.97 174.908 213.62 175.451C212.254 174.557 212.17 174.039 210.599 174.367C210.23 174.514 209.852 174.493 209.465 174.305C209.372 174.581 209.28 174.856 209.187 175.131C209.15 175.824 208.944 176.053 208.57 175.817C208.256 175.704 207.972 175.533 207.719 175.303C206.679 175.382 205.351 175.656 204.235 175.505C203.804 175.447 201.104 174.022 200.903 174.243ZM232.722 155.621C232.844 155.81 232.967 155.997 233.089 156.185C231.401 157.077 231.004 156.565 230.83 154.775C231.654 154.791 231.795 156.242 232.722 155.621ZM233.768 154.571C234.581 154.93 235.513 155.634 236.278 154.69C236.794 156.189 232.966 158.233 233.768 154.571ZM239.018 155.233C240.724 156.386 236.631 155.459 236.637 155.461C237.373 154.781 238.166 154.706 239.018 155.233ZM253.696 148.801C254.281 151.754 255.896 151.67 258.501 150.297C262.301 148.295 262.942 145.016 263.207 141.101C263.462 137.347 263.921 135.893 267.792 136.677C270.494 137.224 272.78 136.764 275.504 136.689C278.41 136.609 279.435 137.053 279.668 140.044C279.903 143.039 280.436 145.314 282.609 147.593C284.819 149.911 287.766 151.294 290.637 152.591C292.114 153.257 293.5 153.974 295.134 154.118C295.767 154.174 299.062 153.758 299.131 154.8C299.183 155.584 294.62 157.795 294.136 158.058C292.019 159.209 289.909 160.242 287.597 160.939C282.279 162.543 276.641 162.638 271.132 162.541C262.251 162.385 249.976 158.628 244.666 150.749C247.676 150.099 250.686 149.45 253.696 148.801ZM252.899 123.227C251.494 122.048 250.584 120.267 249.417 118.87C248.828 118.166 248.397 117.942 247.837 117.589C247.247 117.218 246.914 117.743 246.422 116.87C245.15 114.616 249.075 111.443 244.912 110.575C243.504 110.28 240.115 111.396 239.704 109.378C239.122 106.526 244.568 106.339 245.849 104.891C248.397 102.012 246.667 97.1318 248.219 93.8109C249.688 90.6649 253.479 90.1059 256.472 89.1604C260.642 87.8442 264.861 87.0806 269.095 86.0271C272.055 85.2906 276.973 82.3322 279.719 84.9464C275.482 85.8869 277.945 87.3635 280.769 88.1966C283.967 89.1415 287.357 89.5097 290.671 89.7731C294.083 90.0434 297.559 90.0952 300.93 89.415C304.047 88.7859 307.529 86.0763 310.797 86.7705C308.984 89.924 303.581 91.6464 300.298 92.4725C298.626 92.8932 297.555 92.7618 297.779 94.8473C297.997 96.8684 299.754 98.8952 300.151 101.001C300.676 103.788 300.217 106.349 299.225 108.969C298.249 111.548 298.022 111.885 298.875 114.348C300.204 118.185 297.347 122.425 294.708 125.211C284.033 136.476 263.604 132.209 252.899 123.227ZM280.025 55.9006C280.068 56.0155 280.031 55.9719 280.025 55.9006V55.9006ZM283.349 84.33C282.907 84.6603 280.358 85.3538 280.464 84.3578C280.606 83.0226 282.904 83.5051 283.349 84.33ZM289.159 57.3646C288.561 56.9187 286.886 57.1019 288.111 55.4117C288.51 56.1551 288.835 56.7595 289.159 57.3646ZM248.954 46.6805C249.716 44.6999 250.561 42.8568 250.904 40.7479C251.116 39.4488 250.695 37.9651 252.511 37.7611C250.196 36.7518 250.173 32.7677 250.036 30.7024C249.848 27.8583 248.949 24.0501 250.2 21.4029C251.483 18.6835 253.214 18.7285 253.736 21.9671C253.941 23.2352 253.158 23.6453 253.011 24.5284C252.72 26.2754 253.299 25.8924 254.426 24.5615C254.892 25.9142 255.07 27.9469 256.963 27.8609C256.837 27.4951 256.112 26.6881 256.354 26.2337C256.726 25.5358 258.545 26.6021 258.775 26.7635C260.436 27.9251 260.796 28.9854 259.612 30.4504C261.252 30.6272 259.875 32.0629 260.934 32.4368C262.549 33.0077 261.466 30.3032 261.291 29.8276C262.274 30.211 262.603 30.6494 263.226 31.4256C263.591 31.9612 263.924 32.5176 264.224 33.093C264.559 34.144 265.247 34.4067 266.291 33.8831C268.382 34.5394 271.27 34.4364 273.145 35.584C274.001 36.1076 274.31 37.254 275.026 37.6891C275.83 38.1792 276.909 37.9569 277.774 38.2645C277.457 38.9833 277.714 39.3723 278.54 39.433C279.183 39.4917 279.806 39.6363 280.408 39.8669C280.858 39.5277 281.348 39.2593 281.876 39.0647C282.232 39.6907 282.734 39.8454 283.384 39.5302C285.313 39.8915 286.24 40.621 287.465 41.7118C288.566 42.6907 287.67 42.7703 288.876 42.6832C289.36 42.6484 290.209 41.8267 291.317 41.9871C291.955 42.1109 292.569 42.308 293.162 42.5764C293.802 43.124 294.482 43.1929 295.201 42.7836C296.368 43.3539 296.483 44.3657 297.908 44.5041C299.482 44.6575 298.976 42.6939 300.057 45.4628C301.513 42.5272 302.047 47.2041 303.551 47.5818C305.108 47.9734 305.276 46.7102 306.61 48.0903C307.01 48.504 306.987 49.1873 307.436 49.6257C308.171 50.3432 309.165 50.1998 309.804 51.1788C309.448 50.6324 309.888 53.1152 309.881 53.0331C309.98 54.1283 309.007 55.3555 311.001 55.262C310.979 55.377 310.021 56.7734 309.834 56.6155C309.789 56.4564 309.749 56.2947 309.719 56.1311C309.505 56.2233 309.41 57.5535 309.449 57.7884C309.619 57.8149 309.688 57.6893 309.657 57.4114C309.329 58.4371 309.823 59.0889 309.194 60.0628C308.791 60.6849 307.688 61.1529 307.102 61.5369C305.688 62.4641 304.304 63.3945 302.924 64.3817C299.707 66.6832 296.105 69.4591 292.054 69.9391C294.088 67.9413 305.794 60.3811 299.923 58.211C298.834 57.8086 296.852 57.4278 295.713 57.3431C294.296 57.2383 292.832 58.0493 291.27 57.5427C289.384 56.9332 290.094 55.161 288.943 54.525C286.497 53.1765 287.075 56.3484 286.305 57.1789C285.496 56.3307 285.669 55.9176 284.393 55.8412C283.097 55.7629 282.788 56.961 281.276 56.2145C279.192 55.1862 280.295 53.1373 277.339 53.0893C277.388 52.6396 277.817 51.3828 277.253 51.0322C276.493 52.0182 277.081 53.1209 276.375 54.0702C276.022 54.5464 275.255 54.926 274.696 55.0801C273.385 55.4401 273.199 56.1292 273.412 54.1561C272.441 55.9056 269.463 55.1862 267.691 55.01C264.811 54.7239 261.751 54.1788 258.989 53.2555C256.436 52.4009 255.072 50.9331 252.966 49.5972C252.17 49.092 251.79 49.2852 250.648 48.9713C249.521 48.6619 248.423 48.0618 248.954 46.6805ZM255.03 15.7016C255.466 15.4396 255.778 19.3483 255.251 20.0786C254.286 18.5525 252.575 16.3141 255.03 15.7016ZM256.419 14.1424C257.818 12.877 256.846 16.1454 256.59 16.6937C256.072 16.3617 255.554 16.0296 255.036 15.6976C255.697 15.2921 255.862 14.6471 256.419 14.1424ZM309.17 8.87502C322.088 11.5858 334.888 16.6527 345.248 24.9914C354.685 32.5865 361.345 43.3628 365.08 54.8256C368.956 66.7236 367.654 79.924 358.432 89.0303C353.573 93.8267 347.158 96.7206 341.044 99.5445C338.115 100.897 335.098 102.024 332.157 103.346C330.045 104.295 327.466 105.814 325.056 105.551C326.286 104.257 328.07 104.23 329.558 103.44C331.356 102.483 332.825 100.647 334.375 99.3361C335.913 98.0344 339.326 93.9353 341.691 94.9275C341.363 92.7435 343.851 91.7298 344.972 90.2897C346.158 88.7663 346.243 86.9846 348.428 86.4863C346.081 84.6496 346.8 81.1865 347.31 78.6867C347.964 75.4895 348.265 72.5545 348.523 69.3012C348.987 63.4362 349.361 55.9644 346.121 50.8086C345.069 49.1343 343.73 47.5957 342.792 45.8563C341.661 43.7607 341.91 41.9164 341.91 39.6187C339.843 41.0082 339.407 38.1755 338.534 36.7948C337.878 35.759 337.017 35.1804 336.806 33.8768C336.652 32.9288 337.682 32.7684 337.117 31.7742C336.426 32.2966 336.15 33.1063 335.799 33.8579C335.16 33.6027 335.913 32.7134 335.548 32.4248C335.537 32.4166 334.305 31.8816 334.366 31.9587C333.573 30.9538 333.318 29.2864 332.93 28.0904C331.478 28.826 331.749 28.7393 330.129 27.5103C329.844 27.294 328.418 26.3005 328.284 25.9757C327.657 24.4569 328.755 25.3565 328.448 24.4139C327.566 21.7065 322.616 22.2185 322.223 18.1616C319.809 19.6943 318.889 17.5226 317.462 15.978C315.999 14.3958 313.546 13.7872 313.677 11.2775C312.918 11.5375 312.158 11.7968 311.399 12.0554C311.793 9.73961 308.353 9.88709 307.107 8.71232C307.798 8.72091 308.486 8.77516 309.17 8.87502ZM311.138 152.31C312.335 151.239 311.971 152.664 312.742 152.501C313.401 152.362 313.531 151.864 314.162 151.711C316.765 151.082 320.657 151.872 323.393 151.736C326.563 151.58 331.997 152.238 333.508 155.947C334.418 158.181 333.029 157.421 331.499 157.255C330.313 157.126 329.258 157.367 328.084 157.355C327.504 157.444 326.926 157.435 326.349 157.327C326.068 157.142 325.902 156.881 325.851 156.545C324.217 156.298 322.482 157.265 320.674 157.313C318.259 157.377 316.113 156.914 314.279 155.284C313.55 156.371 313.053 156.91 311.742 157.032C311.707 157.035 310.426 156.52 310.228 156.468C309.965 156.4 309.302 156.95 308.796 156.793C309.693 155.363 309.824 153.484 311.138 152.31ZM476.025 165.218C476.452 163.736 476.808 162.234 477.196 160.742C483.155 167.526 488.371 176.607 490.718 185.308C492.242 190.961 494.614 201.206 487.347 204.122C481.427 206.497 478.126 197.983 476.628 193.789C473.322 184.531 473.322 174.638 476.025 165.218ZM209.405 58.9165C209.482 58.9007 205.547 61.1889 206.843 59.3365C207.364 58.5912 209.339 58.0676 210.215 58.0676L209.405 58.9165ZM205.621 59.8859C205.165 60.2687 204.706 60.647 204.242 61.0203C203.797 60.3167 203.35 59.6125 202.905 58.9089C203.783 58.5387 207.512 58.2608 205.621 59.8859ZM202.847 131.027C202.024 130.469 201.372 130.766 201.124 131.702C201.124 130.771 201.609 128.607 202.355 128.355C202.837 128.191 200.754 125.727 201.339 125.082C202.828 125.935 201.937 126.752 202.372 127.853C202.569 128.349 203.161 128.819 203.29 129.2C203.51 129.848 204.399 132.076 202.847 131.027ZM198.815 125.482C197.971 125.698 199.447 127.09 199.446 127.705C199.445 128.17 198.887 128.527 198.656 129.164C198.156 130.543 199.016 131.474 197.601 132.526C197.601 129.505 195.573 121.498 199.47 120.026C197.569 118.529 199.13 116.801 200.62 118.593C202.053 120.315 201.14 124.887 198.815 125.482ZM196.785 113.558C196.019 110.842 193.713 109.893 191.078 110.054C191.179 108.663 192.232 106.658 192.993 109.164C193.306 108.423 193.523 107.457 194.237 106.966C195.439 110.734 201.43 112.816 197.7 116.898C197.395 115.785 197.099 114.67 196.785 113.558ZM189.822 110.256C175.948 111.262 156.469 114.141 145.366 103.506C138.127 96.5716 138.514 85.7732 144.364 78.069C147.703 73.6724 152.26 70.577 156.837 67.6281C158.603 66.4893 160.1 65.7383 162.039 65.084C162.353 65.0499 162.648 65.12 162.924 65.2943C163.033 64.8257 163.297 64.4795 163.717 64.2528C164.466 63.8524 165.533 63.709 165.964 62.8772C165.504 64.4398 165.267 66.0484 165.098 67.6647C164.724 67.2295 164.351 66.7943 163.978 66.3592C163.666 69.3037 160.598 67.5213 158.766 67.8889C159.973 69.5588 160.835 70.1652 160.94 72.372C160.041 70.7128 158.162 69.622 156.415 69.0877C157.364 71.8939 158.034 73.5594 157.079 76.6365C155.925 75.9778 155.848 74.3956 154.448 74.0166C154.079 75.8514 154.014 77.8877 153.541 79.6682C149.957 78.0336 150.306 82.4358 151.746 84.6142C152.51 85.7732 152.886 87.1147 153.569 88.2269C155.244 90.9561 153.971 86.8753 155.833 87.0686C155.415 89.9468 155.269 90.2335 157.376 92.3411C159.431 94.3964 160.498 97.248 162.696 99.1788C163.333 98.3653 162.332 97.5139 162.244 96.7352C164.29 97.0781 165.248 99.1295 167.215 97.3124C168.072 98.9843 169.001 100.825 171.055 101.168C169.697 98.587 173.663 100.338 174.679 100.704C175.451 100.982 176.833 101.203 177.13 101.31C178.806 101.915 177.657 100.829 178.674 102.813C180.167 102.362 180.73 101.123 182.516 102.17C183.968 103.021 183.971 104.479 184.304 105.973C184.65 104.996 184.999 104.019 185.382 103.056C185.772 103.22 187.407 105.019 187.228 105.027C191.055 104.84 190.92 107.216 189.822 110.256ZM170.342 61.5477C171.11 61.0083 172.048 61.7264 172.911 61.5331C174.106 61.2666 174.784 60.2434 176.119 60.1335C175.747 61.3203 175.051 61.2091 174.461 62.1407C174.26 62.4584 174.365 63.2201 174.186 63.4033C172.691 64.9349 172.174 63.685 170.647 62.5254C170.78 63.9237 171.049 64.3652 169.732 64.7404C168.539 65.0808 166.57 63.8284 165.969 62.8677C166.476 61.8534 169.422 62.1932 170.342 61.5477ZM179.862 59.3617C181.157 59.4855 179.596 63.3079 177.74 59.6005C178.439 59.4482 179.147 59.3687 179.862 59.3617ZM186.523 58.6234C188.566 58.2065 195.381 56.2644 196.14 59.4445C196.276 59.3655 196.783 57.5699 197.018 57.789C197.962 58.667 198.067 59.8304 197.995 61.0494C196.855 58.6733 197.26 60.7607 196.487 60.5978C196.286 60.5548 195.977 60.9319 195.466 60.7765C194.796 60.5719 194.316 59.1463 193.893 58.6638C193.188 59.6687 192.315 60.9635 190.905 60.8763C189.907 60.8144 188.298 58.2444 189.591 61.0582C188.832 60.8074 187.953 60.2396 187.107 60.3533C186.161 60.4815 185.669 61.4157 184.781 61.5666C182.814 61.9001 182.517 60.0072 181.24 58.979C183.001 58.8767 184.784 58.9777 186.523 58.6234ZM198.884 58.5924C199.028 57.9406 200.816 57.6773 201.272 57.8844C202.383 58.3891 201.971 59.0554 201.767 60.1638C200.943 59.7735 200.118 59.3838 199.294 58.9935C200.524 60.9754 198.295 61.2628 198.884 58.5924ZM544.96 174.677C544.814 169.928 544.676 165.097 543.472 160.473C542.63 157.237 540.559 151.435 536.644 150.873C530.74 150.025 527.47 161.695 525.815 165.701C525.484 160.985 525.774 155.965 523.993 151.489C522.566 147.901 518.963 144.504 515.859 148.532C513.098 152.118 512.568 157.41 511.841 161.724C510.899 167.314 510.333 172.946 509.645 178.569C506.948 173.357 506.477 167.391 504.346 161.975C502.334 156.863 499.169 151.982 496.12 147.435C493.63 143.722 490.601 140.23 486.701 137.96C483.305 135.984 477.368 133.847 474.132 137.128C471.432 139.866 471.855 143.53 471.995 146.986C472.058 148.524 472.3 149.579 470.946 150.355C470.282 150.735 469.242 150.538 468.511 150.742C467.334 151.071 466.431 151.628 465.435 152.368C458.452 157.558 455.234 166.911 454.238 175.249C452.977 185.814 457.095 194.871 460.64 204.539C461.204 206.079 462.998 209.348 462.75 211.067C462.479 212.951 460.114 213.001 458.518 213.04C453.697 213.159 448.658 212.8 443.863 212.35C432.443 211.282 421.033 205.785 410.809 200.877C408.944 199.981 406.304 199.468 404.781 198.058C403.35 196.732 402.972 194.607 401.737 193.086C398.705 189.355 396.773 186.171 392.307 183.916C387.76 181.621 383.12 179.5 378.684 176.986C373.198 173.875 368.129 169.935 362.871 166.453C353.1 159.982 343.396 152.888 333.037 147.386C328.224 144.829 322.844 144.415 317.847 142.321C312.98 140.282 307.006 140.28 301.928 141.567C299.454 142.195 297.771 143.682 295.495 144.652C292.829 145.79 290.654 144.534 288.307 143.176C284.722 141.102 281.169 137.722 286.274 135.484C288.005 134.724 290.176 134.437 291.688 133.243C293.301 131.971 294.596 129.624 295.907 128.031C298.822 124.488 300.563 120.411 304.829 118.208C309.547 115.771 315.14 115.108 320.171 113.516C325.621 111.792 330.958 109.741 336.307 107.727C345.945 104.1 355.964 100.184 362.889 92.1978C368.862 85.309 371.466 76.4161 371.225 67.3843C370.732 48.9208 360.841 30.182 346.65 18.6378C329.249 4.48214 307.112 -0.238224 285.132 0.00917248C274.816 0.125639 262.505 1.47568 253.897 7.74326C246.463 13.1568 245.226 22.6253 246.332 31.1723C246.781 34.641 248.315 39.2189 245.869 42.2752C244.499 43.9855 242.042 44.4087 240.197 45.4748C237.88 46.8144 235.836 48.0985 233.211 48.8065C222.062 51.8179 210.317 50.7695 198.917 50.6027C179.926 50.3248 160.46 55.4667 146.294 68.8483C134.853 79.6536 131.422 100.03 145.375 110.563C156.649 119.073 174.331 118.137 187.623 116.653C191.745 116.192 194.58 115.523 194.589 120.566C194.599 126.075 193.687 131.832 195.093 137.24C197.306 145.758 205.491 145.961 212.726 144.126C216.544 143.159 220.235 141.704 223.861 140.18C229.179 137.944 234.053 134.657 239.305 132.426C242.865 130.914 245.531 135.804 248.689 132.414C249.273 131.787 249.381 130.854 250.261 130.533C251.64 130.031 253.954 131.792 255.164 132.349C256.975 133.183 258.801 133.796 259.525 135.804C260.202 137.683 259.905 140.67 259.256 142.523C257.847 146.552 254.053 145.756 250.588 145.486C244.546 145.016 238.545 144.019 232.505 143.6C227.086 143.225 222.011 144.844 217.337 147.517C207.519 153.129 199.487 162.057 190.975 169.398C186.594 173.177 182.359 177.258 177.595 180.548C175.523 181.979 173.28 183.294 171.48 185.072C169.693 186.836 169.497 188.439 168.886 190.786C167.798 194.965 162.394 197.007 159.016 199.212C154.239 202.33 149.175 204.529 143.82 206.442C132.479 210.493 121.049 213.322 109.193 215.412C103.388 216.437 97.6317 217.109 91.7704 217.662C86.7177 218.138 81.3453 219.694 76.2989 218.451C77.7522 216.094 80.3278 214.678 82.3338 212.856C84.9195 210.507 87.1187 207.723 89.0761 204.839C92.8852 199.223 95.5575 193.197 96.1708 186.385C96.7241 180.254 96.0899 172.921 92.3907 167.742C91.113 165.952 88.5847 165.466 87.4415 163.854C86.304 162.253 86.7379 159.494 86.1151 157.627C84.5305 152.876 79.827 146.989 75.6875 144.229C71.1968 141.235 64.6276 140.135 59.4403 141.695C49.8299 144.586 43.9264 154.857 39.5286 163.157C37.1266 158.102 41.1493 150.603 36.4565 146.463C32.4983 142.971 29.3567 149.736 28.0329 152.63C21.8186 166.215 20.407 180.623 17.8036 195.159C16.7425 194.113 17.2863 191.428 17.3861 190.181C17.5718 187.858 17.5541 185.58 17.5591 183.248C17.5718 177.356 18.667 171.437 18.1648 165.551C17.8749 162.148 16.7899 154.973 11.846 156.103C7.65332 157.062 5.02708 162.958 3.70969 166.563C1.80954 171.762 1.37083 176.909 1.48913 182.401C1.61993 188.469 0.463731 194.439 0.183618 200.499C-0.360818 212.27 0.17699 223.939 3.55445 235.299C9.08502 253.902 21.8016 269.359 38.7732 278.692C48.124 283.835 58.4973 287.089 69.1625 287.789C74.9422 288.168 80.5217 287.48 86.2522 286.883C91.9069 286.293 97.5912 286.02 103.236 285.329C115.808 283.786 128.058 279.806 139.484 274.451C145.499 271.632 151.156 268.171 157.072 265.165C159.446 263.96 161.05 262.451 163.076 260.774C165.084 259.112 165.64 258.982 167.924 258.982C167.254 257.19 169.21 256.637 170.08 255.503C170.032 256.053 169.982 256.603 169.934 257.152C170.597 255.714 171.214 255.728 171.786 257.194C172.351 255.552 172.769 253.863 173.451 252.262C176.059 253.582 175.839 256.719 179.327 254.428C182.199 252.544 184.839 250.319 187.767 248.472C194.436 244.262 200.186 238.785 206.874 234.624C206.874 238.677 207.16 242.765 206.618 246.797C206.103 250.631 204.671 254.215 203.533 257.886C201.433 264.658 201.288 271.895 198.961 278.599C197.999 281.375 195.492 283.697 194.772 286.4C194.04 289.157 195.732 291.367 192.895 293.177C190.894 294.453 188.394 294.992 186.178 295.764C182.799 296.942 179.591 298.604 176.301 300.014C160.871 306.625 145.821 313.359 131.526 322.248C117.959 330.684 104.185 339.397 91.7224 349.415C80.9064 358.11 69.9728 369.353 67.3397 383.537C64.7849 397.295 71.5922 412.063 85.2606 416.594C92.3673 418.95 100.402 418.658 107.803 418.761C115.767 418.871 124.206 416.951 132.036 415.562C140.305 414.096 148.432 411.801 156.725 410.491C164.682 409.234 171.979 406.425 179.806 404.694C188.142 402.851 196.692 401.85 205.074 400.192C208.848 399.445 212.544 398.344 216.328 397.653C220.471 396.896 224.659 396.612 228.761 395.61C236.718 393.666 244.336 390.53 252.328 388.721C255.92 387.908 259.459 386.818 263.053 386.058C266.362 385.358 268.94 383.498 272.257 385.026C274.936 386.26 277.073 388.376 279.609 389.85C282.898 391.762 286.365 393.475 289.794 395.12C296.684 398.426 303.829 400.711 311.033 403.193C318.599 405.8 326.03 408.773 333.869 410.496C341.906 412.26 350.105 412.752 358.197 414.148C374.769 417.007 391.201 418.29 408.023 418.394C416.526 418.448 425.028 417.44 433.511 417.559C441.022 417.664 447.55 419.357 454.418 415.365C465.391 408.986 478.118 399.376 477.848 385.419C477.603 372.777 470.02 360.699 462.908 350.728C454.27 338.62 441.955 330.094 429.885 321.741C417.02 312.84 402.571 306.69 389.051 298.92C382.136 294.946 375.759 290.671 368.251 287.847C364.667 286.5 361.17 284.938 357.628 283.486C354.778 282.319 350.663 281.673 348.223 279.736C346.701 278.527 346.555 276.697 346.153 274.9C345.263 270.923 343.864 267.152 342.508 263.316C339.891 255.91 338.151 248.368 337.026 240.6C335.954 233.196 333.573 225.496 334.806 217.97C342.915 225.814 351.248 233.354 359.545 240.99C362.654 243.852 365.706 246.774 368.831 249.618C371.178 251.754 374.112 254.925 377.383 255.559C381.561 256.369 380.035 251.748 382.903 251.032C384.655 250.595 389.943 255.049 391.329 255.928C400.113 261.505 409.84 265.039 419.503 268.836C429.634 272.816 440.053 276.352 450.956 277.353C461.026 278.281 471.323 277.091 481.042 274.348C500.394 268.884 514.635 255.92 525.087 239.116C536.996 219.967 545.661 197.536 544.96 174.677Z" fill="black"/>
<path fill-rule="evenodd" clip-rule="evenodd" d="M249.178 132.933C249.175 132.939 249.145 133.002 249.145 133.002C249.182 132.977 249.193 132.954 249.178 132.933Z" fill="black"/>
<path fill-rule="evenodd" clip-rule="evenodd" d="M250.112 133.181C250.04 132.571 249.883 131.974 249.643 131.389C249.003 132.405 248.429 132.84 249.271 133.915C249.551 133.67 249.831 133.426 250.112 133.181Z" fill="black"/>
<path fill-rule="evenodd" clip-rule="evenodd" d="M294.74 278.348C295.456 277.585 294.203 277.298 293.727 277.288C293.774 278.106 293.368 280.067 294.488 280.446C294.219 279.705 294.303 279.006 294.74 278.348Z" fill="black"/>
<path fill-rule="evenodd" clip-rule="evenodd" d="M275.835 118.784C274.603 121.163 277.324 121.901 278.899 120.752C280.084 119.888 280.785 117.685 280.98 116.272C281.609 111.701 278.41 107.349 276.815 103.293C276.403 102.244 275.838 98.6478 274.511 98.5492C272.986 98.4356 272.873 101.748 272.853 102.602C272.795 105.179 273.477 107.804 274.276 110.236C275.138 112.859 277.273 116.007 275.835 118.784Z" fill="black"/>
<path fill-rule="evenodd" clip-rule="evenodd" d="M281.693 109.245C286.427 113.46 290.214 106.44 289.883 102.287C289.801 101.258 289.106 97.464 287.154 98.8447C286.174 99.5382 287.01 101.792 286.542 102.782C284.278 107.58 282.098 100.138 280.573 99.5534C278.718 98.8416 278.532 101.279 278.534 102.582C278.539 105.168 279.77 107.532 281.693 109.245Z" fill="black"/>
<path fill-rule="evenodd" clip-rule="evenodd" d="M264.508 109.9C265.623 108.144 266.994 105.789 267.146 103.685C267.381 100.415 265.476 100.688 263.907 102.97C262.8 104.581 261.969 107.315 259.523 106.635C256.504 105.798 257.427 101.738 255.737 99.8091C251.469 105.541 259.545 117.713 264.508 109.9Z" fill="black"/>
<path fill-rule="evenodd" clip-rule="evenodd" d="M270.904 127.443C272.67 127.824 277.272 127.684 275.677 124.981C273.666 121.576 266.979 126.594 270.904 127.443Z" fill="black"/>
<path fill-rule="evenodd" clip-rule="evenodd" d="M332.745 25.9124C333.068 24.9501 332.624 24.7754 331.853 24.0176C331.124 24.691 332.058 25.3994 332.745 25.9124Z" fill="black"/>
<path fill-rule="evenodd" clip-rule="evenodd" d="M365.67 200.201C366.834 200.386 367.209 199.77 366.793 198.353C364.956 198.234 364.582 198.85 365.67 200.201Z" fill="black"/>
<path fill-rule="evenodd" clip-rule="evenodd" d="M302.077 51.5238C303.362 52.1112 302.87 53.3163 302.848 54.3344C303.51 53.6156 304.846 52.3007 304.302 51.268C303.464 49.6757 301.273 51.1562 302.077 51.5238Z" fill="black"/>
<path fill-rule="evenodd" clip-rule="evenodd" d="M258.323 31.4798C258.127 31.0977 257.931 30.7156 257.736 30.3335C256.938 30.9739 255.706 32.6666 256.974 33.4915C257.494 32.8605 257.943 32.1904 258.323 31.4798Z" fill="black"/>
<path fill-rule="evenodd" clip-rule="evenodd" d="M273.735 42.7155C275.334 43.9686 274.567 40.1215 274.519 39.8076C274.282 40.2586 272.928 42.082 273.735 42.7155Z" fill="black"/>
<path fill-rule="evenodd" clip-rule="evenodd" d="M272.85 40.762C272.728 40.4443 272.605 40.1259 272.483 39.8076C271.835 40.4076 271.041 41.6323 272.111 42.334C272.405 41.8426 272.651 41.3184 272.85 40.762Z" fill="black"/>
<path fill-rule="evenodd" clip-rule="evenodd" d="M283 53.9723C283.131 54.0923 283.261 54.213 283.391 54.3342C283.919 53.2706 283.319 52.4723 282.324 52.4395C282.394 53.0363 282.62 53.5473 283 53.9723Z" fill="black"/>
<path fill-rule="evenodd" clip-rule="evenodd" d="M240.174 173.601C240.808 173.17 241.384 172.677 241.902 172.124C240.025 170.977 241.149 173.463 238.891 171.937C238.404 172.61 239.199 174.115 240.174 173.601Z" fill="black"/>
<path fill-rule="evenodd" clip-rule="evenodd" d="M319.02 277.919C319.734 276.824 319.863 276.856 318.888 276.024C318.076 277.378 318.16 277.03 319.02 277.919Z" fill="black"/>
<path fill-rule="evenodd" clip-rule="evenodd" d="M169.899 103.647C170.288 104.052 170.676 104.458 171.065 104.862C171.246 104.332 172.235 102.834 171.563 102.335C171.009 102.773 170.454 103.21 169.899 103.647Z" fill="black"/>
<path fill-rule="evenodd" clip-rule="evenodd" d="M183.715 107.655C183.095 107.551 181.611 107.099 181.268 107.676C182.176 108.419 184.223 107.74 183.715 107.655Z" fill="black"/>
</svg>
