<svg width="545" height="338" viewBox="0 0 545 338" fill="none" xmlns="http://www.w3.org/2000/svg">
<path fill-rule="evenodd" clip-rule="evenodd" d="M402.029 272.18C399.447 275.166 395.635 277.383 392.709 280.113C389.637 282.98 386.303 285.486 383.243 288.319C369.745 271.822 351.254 261.706 335.236 248.016C327.642 241.526 322.047 232.722 317.953 223.687C315.854 219.055 314.303 214.288 313.089 209.354C312.543 207.132 312.008 204.917 311.651 202.664C311.218 199.935 311.106 199.703 309.266 197.574C308.474 196.657 306.939 193.98 305.387 194.275C304.081 194.523 301.692 198.499 300.866 199.481C296.897 204.204 293.049 209.071 288.87 213.611C282.476 220.559 276.656 227.395 270.719 234.759C258.576 249.824 245.477 264.005 232.259 278.181C231.279 279.232 228.993 282.314 227.584 282.729C225.872 283.232 223.088 281.132 221.364 279.958C217.201 277.124 213.92 273.616 210.361 270.103C203.416 263.248 198.714 253.626 195.55 244.471C193.656 238.991 192.425 233.31 190.471 227.849C189.656 225.573 187.81 222.776 188.747 220.793C189.026 220.202 190.803 218.632 191.429 218.512C192.17 218.369 193.406 219.385 193.663 219.315C196.121 218.642 194.757 216.069 196.219 214.685C197.048 213.899 201.264 214.014 202.522 213.583C207.124 212.004 211.253 208.993 215.604 207.195C233.817 199.67 252.252 192.351 267.976 180.063C272.054 176.876 274.763 174.482 279.629 172.422C284.546 170.341 289.488 168.485 294.506 166.669C298.932 165.066 303.383 163.564 307.956 162.416C312.9 161.174 319.914 159.599 324.855 161.199C334.557 164.34 337.69 172.334 341.553 180.767C346.781 192.176 353.101 202.973 359.953 213.475C373.135 233.68 389.166 251.811 402.029 272.18Z" fill="#FF5678"/>
<path fill-rule="evenodd" clip-rule="evenodd" d="M109.842 93.5533C109.308 93.2823 105.14 94.9789 104.44 95.2384C101.645 96.2753 99.013 97.9982 96.3802 99.3998C98.398 101.855 100.416 104.312 102.434 106.768C104.411 101.917 106.953 97.9136 109.842 93.5533ZM111.218 123.737C110.531 123.815 116.327 137.743 117.004 139.307C119.467 144.995 122.053 150.628 124.549 156.302C126.967 161.8 130.034 166.858 133.124 171.995C135.767 176.388 138.486 183.205 142.473 186.459C139.956 175.29 140.287 162.449 133.066 153.072C125.582 143.35 118.182 133.857 111.218 123.737ZM402.029 272.678C390.845 254.966 376.844 239.298 365.18 221.902C358.65 212.162 352.293 202.297 346.796 191.929C342.797 184.387 340.312 173.626 334.136 167.86C331.415 165.32 328.507 162.834 324.855 161.696C319.857 160.139 312.976 161.682 307.956 162.913C298.6 165.207 289.461 168.769 280.599 172.511C271.61 176.305 263.941 183.121 255.82 188.597C247.108 194.472 237.677 198.752 227.916 202.498C219.418 205.76 211.857 210.444 203.403 213.727C201.719 214.381 198.281 214.285 196.868 215.139C195.345 216.057 195.945 218.77 194.096 219.771C193.262 220.223 192.984 218.586 192.344 218.613C191.561 218.645 190.847 219.564 190.093 220.146C187.02 222.517 188.902 224.097 190.119 227.359C194.084 237.986 196.215 248.799 201.783 258.832C206.36 267.079 212.911 274.469 220.625 279.928C221.798 280.759 225.623 283.978 227 283.764C228.24 283.572 230.762 280.276 231.619 279.381C235.503 275.319 239.053 270.95 242.935 266.881C248.934 260.594 254.708 254.138 260.529 247.765C267.287 240.367 273.268 231.984 279.354 224.079C282.154 220.443 285.758 217.481 288.87 214.109C293.055 209.575 296.897 204.701 300.867 199.978C302.068 198.549 304.08 194.894 305.946 194.937C307.254 194.967 309.56 198.046 310.244 199.011C312.786 202.598 312.775 209.076 314.039 213.553C317.125 224.471 322.689 235.135 330.319 243.56C337.907 251.938 347.626 257.896 356.601 264.63C366.323 271.926 375.533 279.392 383.243 288.817C386.303 285.984 389.637 283.477 392.709 280.61C395.635 277.879 399.448 275.664 402.029 272.678ZM258.057 322.786C260.232 322.808 263.914 324.145 265.859 323.34C260.089 316.956 254.79 311.478 247.49 306.799C239.915 301.944 232.364 297.132 225.006 291.953C210.178 281.517 199.272 269.139 193.078 251.759C191.483 247.283 190.414 242.589 189.245 237.988C188.617 235.51 187.365 223.918 185.239 222.917C183.98 222.323 174.502 228.984 173.001 229.814C169.49 231.756 165.966 233.262 162.336 234.781C154.534 238.048 146.491 240.54 138.217 242.62C128.298 245.114 121.542 240.987 115.397 233.191C108.425 224.346 102.632 214.366 96.2578 205.077C93.3592 200.852 90.9578 196.634 88.8171 191.975C87.4161 188.926 81.8594 180.7 83.7795 177.451C89.2573 181.622 91.2282 189.914 94.9597 195.498C99.6104 202.458 104.852 209.019 109.526 215.972C113.457 221.819 117.468 228.904 123.275 233.107C128.384 236.804 133.237 235.667 138.735 234.006C145.398 231.992 152.305 231 158.835 228.503C165.902 225.801 172.588 221.967 179.483 218.842C182.697 217.384 186.546 216.556 189.575 214.739C192.185 213.174 191.796 212.347 191.988 209.014C192.212 205.125 192.469 201.234 192.641 197.342C192.757 194.726 191.343 191.181 192.302 189.229C184.475 190.586 176.824 192.403 169.051 194.011C164.796 194.892 160.692 195.98 156.393 196.672C154.754 196.935 152.514 196.928 151.047 197.642C149.876 197.306 149.279 197.519 149.256 198.282C149.2 198.697 149.112 199.106 148.99 199.507C146.59 200.599 145.194 198.257 143.112 196.011C140.543 193.238 138.62 190.116 136.735 186.859C132.521 179.575 127.664 172.725 123.765 165.236C119.79 157.602 116.562 149.429 113.193 141.508C110.101 134.242 108.122 126.383 104.706 119.289C103.181 116.122 101.249 113.504 98.993 110.829C97.1313 108.621 94.2669 103.859 91.4866 102.845C90.7515 102.577 88.8263 103.027 87.9911 102.968C86.3266 102.849 84.8432 102.238 83.1398 102.372C79.4518 102.66 75.431 104.992 72.4838 107.043C74.3884 108.741 79.1528 110.804 75.7305 113.862C72.4094 116.831 70.5751 111.505 69.3079 109.172C63.3402 114.073 64.2028 120.83 63.5134 127.754C63.1533 131.369 62.2061 134.929 61.5951 138.489C61.1549 141.052 61.4636 143.702 61.3378 146.319C61.0172 152.967 60.3489 159.331 60.3815 165.886C60.4158 172.893 60.8931 179.66 61.4539 186.616C62.3976 198.327 64.56 210.042 66.4143 221.66C67.4575 228.191 68.8854 234.536 70.2716 240.961C71.8447 248.253 74.7548 255.16 76.3867 262.433C78.0496 260.319 79.3003 260.309 81.9897 260.589C84.0584 260.805 85.448 260.312 85.3268 263.184C85.2485 265.046 83.6057 266.468 81.7879 266.793C79.4175 267.217 78.6121 266.034 77.3905 264.239C77.1047 267.639 79.3912 271.194 80.2955 274.514C81.1512 277.661 81.7182 280.745 83.1564 283.757C84.5597 286.695 85.7613 289.593 87.1811 292.504C87.8351 293.842 88.4467 295.202 89.1081 296.537C89.4425 297.214 89.8363 298.145 90.3353 298.715C91.506 300.051 91.3196 299.404 92.6898 300.165C95.6748 301.823 94.5538 301.41 94.6236 304.834C94.6916 308.212 96.4236 310.693 99.2011 312.591C105.094 316.62 110.906 317.74 117.605 319.776C123.847 321.673 130.422 323.3 137.032 323.263C145.127 323.218 153.115 322.156 161.21 322.049C170.141 321.93 179.158 321.979 188.07 322.288C191.742 322.415 195.151 322.578 198.696 323.515C202.812 324.605 206.794 324.173 211.037 324.008C220.088 323.656 229.451 322.955 238.383 322.892C244.815 322.847 251.601 322.398 258.057 322.786ZM492.756 326.294C494.365 327.144 497.972 326.795 499.589 326.559C502.439 326.144 502.744 325.014 504.552 322.473C507.664 318.098 510.191 313.907 512.021 308.839C515.526 299.138 516.956 289.213 518.494 279.065C520.204 267.79 517.082 256.102 515.965 244.903C515.708 242.333 515.357 239.787 514.952 237.237C514.709 235.713 514.645 230.527 513.642 229.207C511.715 226.671 502.752 228.716 499.228 228.946C489.391 229.589 479.49 229.739 469.658 229.85C464.416 229.91 459.145 230.129 453.954 230.17C451.571 230.189 449.24 230.071 446.848 229.838C446.048 229.761 445.266 229.577 444.461 229.533C441.701 229.38 441.908 228.98 441.195 231.424C439.945 235.705 440.907 241.152 440.579 245.596C440.14 251.534 439.902 257.556 440.011 263.506C440.112 269.005 439.924 274.491 440.129 280.002C440.215 282.285 440.464 284.145 441.066 286.325C441.747 288.789 442.496 294.547 444.191 296.252C444.384 296.446 445.825 295.993 446.207 296.477C446.797 297.222 446.689 298.798 447.093 299.279C448.403 300.837 451.11 300.961 453.073 301.661C458.461 303.582 463.403 305.668 468.48 308.258C473.017 310.573 480.332 312.543 483.06 317.109C484.311 319.202 484.479 321.962 485.629 324.122C486.939 326.582 484.319 325.296 487.527 326.294C488.972 326.743 491.275 326.294 492.756 326.294ZM14.4533 298.469C14.0452 304.15 10.8447 309.562 9.73063 315.148C9.20931 317.763 8.32502 320.334 7.71225 322.935C7.12463 325.429 5.00165 328.383 5.21658 330.852C13.0523 328.06 20.9892 327.358 29.1787 326.605C36.9407 325.891 45.1405 325.607 52.8373 325.604C60.6805 325.6 69.0666 324.834 77.1424 324.715C85.5881 324.591 94.1611 324.372 102.484 323.496C98.1322 320.273 92.6864 317.245 89.4728 312.761C85.979 307.885 84.1647 301.777 81.0906 296.632C74.9217 286.308 70.9998 273.498 67.7662 261.899C61.2378 238.485 53.9423 215.502 52.184 191.216C48.8377 192.929 46.1814 199.578 44.506 202.889C42.3676 207.116 41.2478 211.698 39.8576 216.191C36.995 225.444 35.0138 235.04 31.5086 244.205C24.8093 261.727 20.5033 280.606 14.4533 298.469ZM439.8 162.003C441.249 172.475 444.287 183.083 444.404 193.681C444.43 196.013 444.035 198.602 444.521 200.901C445.04 203.356 446.728 205.525 447.702 207.858C449.249 211.561 453.166 219.151 449.388 222.289C449.312 219.311 446.587 215.53 445.214 212.926C443.146 209.003 440.428 205.416 438.185 201.59C433.491 193.583 428.231 185.746 422.182 178.687C416.29 171.81 409.499 165.711 403.25 159.163C401.373 157.195 386.313 138.259 385.715 138.524C390.386 156.538 398.327 172.212 409.194 187.294C414.522 194.688 420.917 199.554 427.403 205.817C432.804 211.034 442.984 216.612 441.117 225.159C449.56 224.348 457.948 223.051 466.468 223.051C465.067 212.267 463.994 201.654 461.492 191.048C458.653 179.005 456.729 166.601 454.326 154.451C451.874 142.047 447.714 130.038 445.126 117.658C442.648 105.802 440.52 93.9683 438.703 81.9809C437.202 88.6231 437.756 95.9186 437.223 102.696C436.679 109.62 436.732 116.416 436.913 123.381C437.248 136.317 438.627 149.097 439.8 162.003ZM476.386 100.327C476.434 94.7897 477.507 89.3273 477.838 83.8032C477.939 82.1084 479.627 70.5452 478.053 69.9415C476.758 72.7642 476.457 76.3762 475.281 79.3378C474.106 82.2964 472.535 85.1151 471.408 88.0943C468.966 94.5485 468.123 101.851 467.86 108.713C467.265 124.234 466.958 139.719 468.001 155.24C468.448 161.892 468.791 168.556 468.668 175.222C468.534 182.556 467.411 188.922 468.775 196.197C470.125 203.4 470.973 210.574 471.423 217.883C471.739 223.012 471.865 222.649 476.76 222.289C480.293 222.028 483.861 222.306 487.399 222.145C485.745 202.152 485.475 182.118 482.832 162.201C481.483 152.041 481.447 141.734 479.773 131.611C478.94 126.582 477.544 121.655 476.741 116.621C475.88 111.216 476.304 105.774 476.386 100.327ZM118.493 87.7451C127.915 88.5614 137.937 91.3783 147.595 89.5182C146.003 88.8735 141.837 87.984 143.712 85.4392C145.618 82.8515 148.831 86.1337 150.732 85.7947C151.904 85.5855 154.495 80.6851 155.217 79.6704C156.857 77.3645 157.055 76.9627 160.004 76.3716C162.861 75.8 163.508 76.4191 163.87 73.5787C164.286 70.3125 163.156 66.6404 163.268 63.3005C163.508 56.1101 165.828 49.8047 167.987 43.0396C158.814 45.0351 149.845 47.4016 140.466 48.6877C136.457 49.2376 130.219 50.506 126.577 47.7806C125.63 47.0718 125.781 46.1149 125.006 45.2935C123.706 43.9153 121.295 42.4897 119.452 42.097C108.107 39.6819 107 55.8546 112.686 61.9063C114.109 63.4228 116.091 64.1716 117.549 65.5612C119.495 67.4144 119.655 69.3665 119.939 72.1954C120.471 77.5 119.748 82.8252 117.485 87.6776L118.493 87.7451ZM256.164 164.096C259.513 164.731 263.008 164.586 266.366 165.129C267.559 165.321 271.136 165.994 272.185 165.296C273.786 164.231 274.356 160.325 275.113 158.507C276.445 155.307 278.329 152.517 279.6 149.259C284.79 135.953 289.63 122.594 295.907 109.742C293.501 109.117 291.654 109.092 289.229 108.769C286.703 108.432 284.413 106.939 282.003 106.297C279.713 105.687 277.313 105.842 275.044 105.133C273.794 104.743 272.721 103.874 271.488 103.571C269.524 103.088 267.231 102.805 266.063 104.095C264.865 105.418 264.445 109.045 263.793 110.753C262.058 115.305 260.042 119.698 258.588 124.354C257.276 128.554 256.03 132.709 254.876 136.947C253.656 141.421 251.251 145.108 249.787 149.382C248.673 152.635 247.622 155.961 247.455 159.43C247.294 162.814 246.801 163.03 250.185 163.57C251.894 163.843 254.557 164.858 256.164 164.096ZM476.516 322.5C477.388 322.906 478.211 322.852 478.983 322.337C471.42 319.143 464.064 314.713 456.175 312.522C448.774 310.467 441.581 308.011 434.451 305.48C428.658 303.423 423.449 301.822 418.211 298.203C415.032 296.005 412.208 293.535 410.023 290.324C407.591 286.749 407.049 281.662 404.415 278.442C400.86 282.347 396.683 285.304 392.477 288.407C391.021 289.48 387.53 291.82 387.033 293.482C386.404 295.578 388.087 297.583 388.919 299.704C391.051 305.137 392.092 310.567 393.249 316.215C393.712 318.478 394.713 321.881 396.573 322.83C398.266 323.692 403.169 323.065 405.276 322.905C416.268 322.072 427.066 321.219 438.124 321.978C450.638 322.836 464.035 323.429 476.516 322.5ZM498.471 221.831C500.469 221.838 502.421 221.588 504.411 221.588C503.262 216.224 505.948 209.282 506.9 203.927C507.966 197.937 508.777 191.743 509.487 185.705C510.985 172.987 511.664 160.424 511.683 147.613C511.701 135.216 513.958 123.888 517.119 111.971C520.513 99.1723 526.072 87.6628 530.668 75.3199C525.627 77.9847 522.836 84.2205 520.187 88.9878C516.839 95.0155 514.608 101.69 513.241 108.456C510.603 121.51 507.709 134.604 504.665 147.636C501.496 161.206 499.632 174.9 496.001 188.359C494.231 194.922 491.823 202.997 491.689 209.765C491.634 212.565 490.79 218.428 492.059 220.86C493.246 223.135 495.869 222.063 498.471 221.831ZM196.915 204.995C196.81 206.389 196.71 207.714 196.463 209.091C199.23 209.064 202.734 206.193 205.108 204.904C207.999 203.334 210.894 201.602 213.721 200.024C219.18 196.976 225.378 194.968 231.207 192.464C237.903 189.588 244.057 186.112 250.46 182.649C252.697 181.44 268.772 174.472 268.502 172.568C264.973 172.451 261.444 172.333 257.914 172.216C254.889 172.116 250.203 172.799 247.305 171.864C245.718 171.351 243.937 169.464 243.337 167.987C242.745 166.525 244.077 159.8 243.303 159.371C239.353 163.404 236.869 168.764 233.338 173.114C229.435 177.923 224.392 180.73 218.835 183.286C212.697 186.108 206.345 188.293 200.072 190.711C197.427 191.731 197.48 192.315 197.249 195.215C196.991 198.457 197.019 201.745 196.915 204.995ZM515.846 326.955C522.499 327.669 529.317 327.262 536.023 327.819C538.462 328.021 541.844 328.323 539.39 331.597C537.844 333.659 532.893 332.998 530.647 333.141C524.617 333.524 518.233 333.318 512.189 333.229C510.917 333.211 509.51 332.832 508.224 332.917C506.74 333.015 504.962 334.083 503.609 334.075C502.775 334.07 502.476 333.19 501.757 333.109C500.19 332.933 498.624 332.805 497.044 332.805C473.156 332.811 449.596 332.33 425.768 332.305C414.374 332.293 402.797 332.096 391.408 331.561C389.016 331.448 375.396 331.938 375.773 327.631C375.967 325.413 380.412 325.101 382.034 324.865C383.236 324.691 384.484 324.718 385.688 324.654C388.888 324.482 390.29 325.252 389.615 321.751C387.054 308.471 382.466 297.496 372.664 287.948C364.649 280.14 354.998 273.058 345.92 266.538C334.897 258.621 325.954 250.295 319.41 238.181C315.588 231.106 312.389 223.874 310.425 216.052C309.719 213.238 309.702 210.037 308.836 207.324C308.17 205.236 306.652 203.774 305.758 201.61C294.791 219.928 280.255 235.254 266.927 251.77C260.559 259.661 253.294 267.155 245.686 274.02C243.428 276.057 241.321 278.184 239.213 280.376C237.45 282.211 234.652 283.842 233.163 285.877C231.735 287.83 232.087 287.737 234.26 289.288C237.133 291.337 240.299 293.04 243.217 295.038C247.882 298.233 252.973 300.932 257.144 304.777C261.654 308.935 265.595 313.751 269.537 318.44C272.165 321.565 275.613 325.574 276.274 329.525C276.493 330.833 277.324 334.066 276.227 335.023C275.29 335.841 275.384 335.531 274.22 335.032C272.695 334.378 272.246 332.877 270.383 332.162C265.617 330.333 259.849 330.961 254.889 330.939C249.927 330.917 244.924 331.474 239.965 331.453C228.64 331.407 217.556 332.324 206.235 332.816C194.211 333.339 182.039 332.085 170.054 332.262C161.175 332.394 152.058 331.73 142.934 332.223C138.24 332.477 133.631 331.89 129.054 331.824C123.063 331.738 116.909 332.553 110.866 332.669C100.947 332.86 91.1499 332.859 81.1706 333.097C59.7053 333.611 38.356 334.142 16.8781 334.482C14.0132 334.527 10.8767 334.43 8.0455 334.752C5.04052 335.095 6.59189 335.734 4.53007 336.816C-1.24211 339.844 0.0908986 328.619 0.22923 326.412C0.971187 314.582 3.97446 302.979 7.58364 291.748C11.0076 281.096 13.7874 269.947 16.6872 259.065C19.8614 247.154 23.997 235.731 27.7525 223.937C31.6007 211.852 34.7337 199.296 41.7228 188.583C43.3148 186.144 44.9599 183.518 47.5207 181.98C50.3914 180.255 50.5149 181.263 50.5126 178.107C50.5108 175.134 50.6938 171.163 49.9924 168.327C49.3585 165.764 49.4562 167.284 48.0289 165.443C46.8674 163.946 45.6521 162.923 44.8187 161.105C39.6993 166.296 27.9806 163.557 23.0344 159.819C16.9804 155.244 12.3692 147.525 10.6795 140.174C9.32249 134.271 10.9876 123.019 17.5212 120.18C20.7062 118.796 32.4049 117.75 32.8731 113.24C33.1143 110.912 28.9969 107.638 28.0469 105.637C26.2863 101.928 24.5955 96.995 24.1062 92.9296C23.1505 84.9945 26.7528 76.1213 32.4912 70.7612C43.0181 60.9283 61.5402 55.8821 75.0812 62.1207C72.2197 51.1897 70.4922 41.7597 71.9333 30.3892C73.1748 20.5934 78.9544 15.1127 86.9073 10.2334C100.479 1.90593 118.934 -1.38086 134.452 1.04051C137.978 1.59097 141.362 2.77136 144.627 3.71052C149.37 5.07497 155.049 4.62054 159.527 6.83744C162.774 8.44425 165.24 11.6453 168.092 13.7826C171.422 16.2777 174.189 20.0017 176.502 23.4457C181.449 30.8104 179.516 44.4789 175.375 51.8716C174.487 53.4573 173.391 54.792 171.921 55.8741C170.392 57.0002 168.06 57.3506 167.272 58.811C165.253 62.5523 167.201 70.6515 167.47 74.6951C167.784 79.3904 165.41 82.9172 160.086 83.2916C157.006 83.5088 156.907 81.722 155.433 85.3986C154.477 87.7817 153.609 90.3779 152.229 92.5627C149.386 97.0653 144.177 96.6257 139.433 96.5039C133.94 96.3622 128.531 95.4945 123.036 94.9469C124.487 99.597 128.46 103.206 130.941 107.349C134.295 112.952 136.314 117.596 136.859 124.124C137.278 129.139 136.374 133.1 132.942 136.833C131.522 138.378 130.263 138.454 130.615 140.236C130.83 141.323 132.71 143.117 133.376 143.985C135.136 146.28 137.179 148.387 138.728 150.839C144.689 160.272 146.45 174.651 146.465 185.632C146.465 186.136 146.734 187.206 146.511 187.727C146.347 188.112 145.096 189.33 145.078 189.434C144.833 190.846 146.21 193.267 148.37 193.506C150.639 193.757 154.794 191.864 156.904 191.242C160.281 190.246 163.723 189.511 167.093 188.488C172.535 186.837 177.953 185.52 183.485 184.226C185.986 183.642 188.499 183.155 191.008 182.608C193.865 181.986 195.192 180.784 196.667 183.691C197.932 186.185 197.145 186.637 200.21 185.38C203.252 184.132 206.225 182.584 209.196 181.174C214.435 178.689 220.675 176.473 225.195 172.804C232.734 166.682 235.526 156.934 242.741 150.439C244.75 148.63 245.949 148.598 247.219 146.093C248.579 143.411 249.281 139.972 249.995 137.088C251.247 132.037 252.139 126.969 253.274 121.923C254.689 115.636 257.747 109.943 259.978 103.946C260.847 101.61 261.298 98.6406 262.7 96.5411C263.071 95.9844 263.781 95.6705 264.071 95.2098C265.069 93.6282 265.058 93.1937 265.317 91.2908C266.526 82.3993 271.833 87.0769 277.633 89.1158C280.076 89.975 291.68 95.5465 287.249 99.2517C292.531 100.784 300.99 99.9514 300.919 107.521C300.883 111.399 298.563 115.548 297.318 119.178C296.212 122.402 295.143 125.637 294.02 128.856C291.559 135.905 288.573 142.744 286.172 149.816C285.077 153.038 284.174 156.337 282.65 159.378C281.306 162.061 278.052 165.019 277.516 167.953C291.591 161.948 304.612 153.267 320.366 153.82C327.264 154.062 333.525 156.961 337.335 163.027C342.111 170.629 345.254 179.141 349.922 186.814C366.905 214.726 387.161 240.082 405.805 266.839C407.237 268.895 409.079 270.839 409.575 273.38C409.899 275.037 409.271 276.696 409.659 278.288C410.466 281.598 414.541 285.73 417.304 287.632C422.601 291.277 431.211 296.42 437.821 295.965C433.672 285.996 433.728 275.073 433.92 264.439C434.104 254.338 435.196 244.318 436.492 234.321C436.785 232.059 437.04 229.963 437.69 227.77C438.436 225.255 439.461 225.494 437.226 223.233C433.787 219.752 429.697 216.887 426.23 213.363C418.732 205.741 411.047 199.767 405.146 190.665C399.534 182.008 393.613 173.1 389.458 163.62C385.182 153.861 383.472 143.439 381.349 133.103C380.488 128.909 377.346 124.227 377.977 119.848C378.775 114.313 381.342 118.343 382.386 121.322C385.575 130.414 393.041 138.553 399.225 145.865C405.906 153.765 414.077 160.375 421.051 168.045C428.644 176.398 433.846 185.998 440.599 194.916C440.599 183.849 436.821 172.58 435.275 161.633C433.915 151.997 433.488 142.331 432.629 132.654C430.677 110.67 432.363 88.0395 435.103 66.2135C436.405 55.8478 435.667 45.7262 435.706 35.3251C435.719 32.0148 434.349 24.3855 436.095 21.4479C439.439 15.8215 441.39 28.1244 441.56 29.9587C442.571 40.8857 440.757 51.691 441.684 62.5711C442.652 73.9331 444.753 84.9762 446.541 96.2067C448.478 108.367 451.632 120.252 454.651 132.179C457.821 144.701 460.487 157.485 464.012 169.907C464.963 166.003 463.629 161.206 463.366 157.229C462.989 151.538 462.255 145.846 462.191 140.14C462.09 131.046 462.019 121.784 462.533 112.732C463.04 103.81 462.887 94.4616 465.623 85.8662C466.922 81.7866 468.827 77.8064 470.69 73.9634C472.989 69.2247 473.802 64.6301 475.075 59.5901C476.166 55.2739 477.762 51.0714 478.488 46.6688C478.94 43.9307 480.2 35.8481 483.335 41.9718C485.155 45.5261 484.368 50.7953 484.419 54.6137C484.484 59.509 483.735 64.2688 483.62 69.1436C483.397 78.7078 483.236 88.2607 482.523 97.809C481.774 107.827 482.428 116.804 484.334 126.675C486.419 137.48 487.03 148.308 488.111 159.244C488.668 164.891 489.608 170.507 490.062 176.162C490.302 179.157 489.071 187.744 491.216 189.877C491.424 184.69 492.91 179.499 494.037 174.444C495.371 168.457 495.911 162.162 496.894 156.089C498.487 146.249 501.579 136.852 503.624 127.123C507.84 107.066 511.342 81.2892 529.01 68.1615C531.322 66.4438 533.862 65.176 536.361 63.7624C537.776 62.9621 539.877 60.8917 541.496 60.5305C543.263 60.136 544 60.4424 544.716 62.4922C545.715 65.3497 543.888 66.6845 542.183 68.76C536.283 75.9418 533.762 85.1482 530.118 93.571C521.775 112.858 518.083 133.201 518.041 154.049C518.019 164.962 517.266 175.489 516.102 186.336C514.85 198.01 513.201 210.357 509.654 221.588C513.211 222.385 517.071 221.196 518.036 225.331C518.273 226.347 517.845 227.548 518.107 228.87C518.362 230.155 518.975 231.433 519.338 232.697C520.088 235.311 520.485 237.89 520.85 240.575C522.26 250.948 524.681 260.815 524.939 271.333C525.176 281.056 523.273 290.906 521.519 300.442C519.752 310.046 514.685 318.234 510.695 326.919C512.412 326.919 514.129 326.937 515.846 326.955Z" fill="black"/>
<path fill-rule="evenodd" clip-rule="evenodd" d="M290.057 304.876C288.165 305.411 279.031 306.42 279.033 309.286C279.034 311.005 288.156 310.971 289.77 311.158C289.866 309.065 289.962 306.97 290.057 304.876ZM310.219 324.653C315.482 325.654 322.627 324.247 325.992 319.606C327.564 317.438 328.31 314.14 328.822 311.553C329.311 309.087 330.82 302.933 329.793 300.622C328.533 297.783 316.439 300.75 312.917 301.076C306.773 301.643 300.42 301.71 294.271 301.309C294.271 307.657 293.947 313.844 297.68 319.308C300.374 323.251 305.433 324.181 310.219 324.653ZM309.161 332.494C303.442 330.401 297.437 331.762 293.713 325.622C292.768 324.064 291.973 322.389 291.401 320.659C291.122 319.901 290.904 319.125 290.75 318.33C291.041 316.618 290.414 316.136 288.869 316.882C285.838 316.293 282.514 318.373 279.321 317.76C271.577 316.273 272.984 305.179 278.181 301.339C279.207 300.58 280.233 300.369 281.408 299.994C283.999 299.169 285.401 300.091 287.77 299.856C289.685 299.667 290.212 297.659 292.269 296.775C293.617 296.196 295.487 296.241 296.904 296.183C304.316 295.878 311.752 295.881 319.213 295.398C322.692 295.173 326.449 295.724 329.857 295.129C331.453 294.85 331.224 293.788 332.735 294.72C334.3 295.685 333.624 299.253 333.545 300.676C333.089 308.903 332.599 317.726 328.191 324.919C324.159 331.5 316.225 332.173 309.161 332.494Z" fill="black"/>
<path fill-rule="evenodd" clip-rule="evenodd" d="M7.12646 334.761C8.9665 334.741 10.806 334.722 12.6397 334.703C10.7974 334.723 8.96192 334.742 7.12646 334.761Z" fill="black"/>
<path fill-rule="evenodd" clip-rule="evenodd" d="M518.052 159.346C518.049 157.578 518.045 155.811 518.041 154.047C518.044 155.815 518.048 157.581 518.052 159.346Z" fill="black"/>
<path fill-rule="evenodd" clip-rule="evenodd" d="M49.9981 166.604C49.9924 168.326 49.9867 170.047 49.981 171.765C49.9861 170.042 49.9918 168.323 49.9981 166.604Z" fill="black"/>
<path fill-rule="evenodd" clip-rule="evenodd" d="M202.945 332.809C204.409 332.812 205.873 332.813 207.33 332.817C205.864 332.816 204.405 332.813 202.945 332.809Z" fill="black"/>
<path fill-rule="evenodd" clip-rule="evenodd" d="M114.06 332.459C115.524 332.463 116.987 332.468 118.444 332.474C116.978 332.47 115.519 332.464 114.06 332.459Z" fill="black"/>
<path fill-rule="evenodd" clip-rule="evenodd" d="M434.114 260.954C434.05 262.116 433.984 263.277 433.92 264.437C433.985 263.274 434.05 262.114 434.114 260.954Z" fill="black"/>
<path fill-rule="evenodd" clip-rule="evenodd" d="M515.847 326.954C514.716 326.941 513.584 326.93 512.453 326.918C513.589 326.444 514.721 326.465 515.847 326.954Z" fill="black"/>
<path fill-rule="evenodd" clip-rule="evenodd" d="M415.41 332.099C416.222 332.086 417.034 332.074 417.838 332.06C417.024 332.072 416.217 332.086 415.41 332.099Z" fill="black"/>
<path fill-rule="evenodd" clip-rule="evenodd" d="M517.612 173.686C517.632 172.808 517.652 171.93 517.672 171.055C517.652 171.934 517.632 172.81 517.612 173.686Z" fill="black"/>
<path fill-rule="evenodd" clip-rule="evenodd" d="M441.684 62.5702C441.617 61.6641 441.55 60.7587 441.482 59.855C441.55 60.7616 441.617 61.6659 441.684 62.5702Z" fill="black"/>
<path fill-rule="evenodd" clip-rule="evenodd" d="M518.013 162.806C518.024 161.897 518.034 160.99 518.045 160.085C518.034 160.994 518.024 161.9 518.013 162.806Z" fill="black"/>
<path fill-rule="evenodd" clip-rule="evenodd" d="M262.681 330.973C263.403 330.984 264.125 330.994 264.841 331.003C264.118 330.992 263.399 330.983 262.681 330.973Z" fill="black"/>
<path fill-rule="evenodd" clip-rule="evenodd" d="M448.631 332.454C449.337 332.468 450.043 332.482 450.742 332.497C450.034 332.483 449.333 332.468 448.631 332.454Z" fill="black"/>
<path fill-rule="evenodd" clip-rule="evenodd" d="M524.858 268.599C524.807 267.802 524.756 267.006 524.706 266.21C524.757 267.007 524.807 267.803 524.858 268.599Z" fill="black"/>
<path fill-rule="evenodd" clip-rule="evenodd" d="M512.189 333.228C512.763 333.224 513.338 333.221 513.906 333.22C513.329 333.224 512.759 333.226 512.189 333.228Z" fill="black"/>
<path fill-rule="evenodd" clip-rule="evenodd" d="M433.925 332.49C434.494 332.476 435.062 332.462 435.625 332.449C435.054 332.463 434.489 332.477 433.925 332.49Z" fill="black"/>
<path fill-rule="evenodd" clip-rule="evenodd" d="M306.061 332.055C306.688 332.052 307.313 332.049 307.934 332.044C307.306 332.047 306.684 332.051 306.061 332.055Z" fill="black"/>
<path fill-rule="evenodd" clip-rule="evenodd" d="M161.666 332.053C162.261 332.057 162.856 332.062 163.445 332.067C162.848 332.064 162.257 332.059 161.666 332.053Z" fill="black"/>
<path fill-rule="evenodd" clip-rule="evenodd" d="M126.539 332.149C127.146 332.116 127.752 332.081 128.353 332.048C127.745 332.082 127.142 332.116 126.539 332.149Z" fill="black"/>
<path fill-rule="evenodd" clip-rule="evenodd" d="M294.711 100.863C293.808 100.785 292.905 100.708 292.002 100.629C292.906 100.693 293.863 100.158 294.711 100.863Z" fill="black"/>
<path fill-rule="evenodd" clip-rule="evenodd" d="M524.943 327.297C524.053 327.207 523.162 327.117 522.271 327.026C523.163 327.117 524.053 327.207 524.943 327.297Z" fill="black"/>
<path fill-rule="evenodd" clip-rule="evenodd" d="M462.825 106.347C462.766 107.127 462.705 107.908 462.646 108.686C462.706 107.904 462.766 107.125 462.825 106.347Z" fill="black"/>
<path fill-rule="evenodd" clip-rule="evenodd" d="M518.237 138.878C518.297 138.139 518.358 137.399 518.419 136.662C518.358 137.403 518.297 138.14 518.237 138.878Z" fill="black"/>
<path fill-rule="evenodd" clip-rule="evenodd" d="M462.47 118.45C462.406 119.229 462.342 120.008 462.278 120.784C462.342 120.004 462.406 119.227 462.47 118.45Z" fill="black"/>
<path fill-rule="evenodd" clip-rule="evenodd" d="M517.859 168.739C517.854 167.986 517.848 167.233 517.843 166.482C518.329 167.233 518.309 167.984 517.859 168.739Z" fill="black"/>
<path fill-rule="evenodd" clip-rule="evenodd" d="M434.126 276.849C434.119 277.604 434.113 278.359 434.105 279.11C433.606 278.349 433.706 277.598 434.126 276.849Z" fill="black"/>
<path fill-rule="evenodd" clip-rule="evenodd" d="M490.889 189.55C490.802 188.787 490.715 188.022 490.628 187.261C490.715 188.026 490.802 188.788 490.889 189.55Z" fill="black"/>
<path fill-rule="evenodd" clip-rule="evenodd" d="M20.8696 119.454C20.2792 120.234 19.4749 119.699 18.7729 119.794C19.4726 119.681 20.1711 119.567 20.8696 119.454Z" fill="black"/>
<path fill-rule="evenodd" clip-rule="evenodd" d="M312.846 295.939C312.1 295.94 311.354 295.941 310.608 295.942C311.355 295.941 312.1 295.94 312.846 295.939Z" fill="black"/>
<path fill-rule="evenodd" clip-rule="evenodd" d="M432.027 122.66C432.097 123.294 432.166 123.929 432.235 124.561C432.166 123.925 432.097 123.292 432.027 122.66Z" fill="black"/>
<path fill-rule="evenodd" clip-rule="evenodd" d="M63.3646 59.6439C62.6147 59.6588 61.8647 59.6736 61.1147 59.6885C61.8567 59.2518 62.6044 59.1255 63.3646 59.6439Z" fill="black"/>
<path fill-rule="evenodd" clip-rule="evenodd" d="M462.452 129.426C462.403 130.091 462.355 130.756 462.307 131.418C462.355 130.753 462.403 130.089 462.452 129.426Z" fill="black"/>
<path fill-rule="evenodd" clip-rule="evenodd" d="M441.885 47.7521C441.944 47.1456 442.001 46.5391 442.059 45.936C442.001 46.5437 441.944 47.1479 441.885 47.7521Z" fill="black"/>
<path fill-rule="evenodd" clip-rule="evenodd" d="M435.992 45.8521C435.933 46.51 435.874 47.1685 435.816 47.8241C435.875 47.1651 435.933 46.5083 435.992 45.8521Z" fill="black"/>
<path fill-rule="evenodd" clip-rule="evenodd" d="M110.232 1.89941C109.469 1.99202 108.706 2.08462 107.943 2.17665C108.706 2.08405 109.469 1.99202 110.232 1.89941Z" fill="black"/>
<path fill-rule="evenodd" clip-rule="evenodd" d="M55.1149 60.1675C54.3318 60.2475 53.5487 60.3275 52.7661 60.4076C53.5492 60.3275 54.3323 60.2475 55.1149 60.1675Z" fill="black"/>
<path fill-rule="evenodd" clip-rule="evenodd" d="M484.246 62.0962C484.294 61.484 484.341 60.8712 484.389 60.2625C484.341 60.8752 484.293 61.4857 484.246 62.0962Z" fill="black"/>
<path fill-rule="evenodd" clip-rule="evenodd" d="M29.4116 163.133C29.8626 163.14 30.3131 163.146 30.7572 163.153C30.3045 163.146 29.8581 163.14 29.4116 163.133Z" fill="black"/>
<path fill-rule="evenodd" clip-rule="evenodd" d="M436.015 238.692C435.97 239.37 435.925 240.048 435.88 240.724C435.926 240.046 435.971 239.369 436.015 238.692Z" fill="black"/>
<path fill-rule="evenodd" clip-rule="evenodd" d="M482.022 106.762C482.003 106.109 481.986 105.456 481.967 104.804C481.986 105.458 482.004 106.11 482.022 106.762Z" fill="black"/>
<path fill-rule="evenodd" clip-rule="evenodd" d="M129.442 0.353415C128.746 0.353415 128.05 0.353986 127.356 0.353986C128.052 -0.123885 128.747 -0.111881 129.442 0.353415Z" fill="black"/>
<path fill-rule="evenodd" clip-rule="evenodd" d="M315.166 154.131C314.404 154.151 313.642 154.17 312.881 154.189C313.63 153.66 314.392 153.647 315.166 154.131Z" fill="black"/>
<path fill-rule="evenodd" clip-rule="evenodd" d="M381.753 330.946C382.205 330.955 382.657 330.965 383.103 330.976C382.649 330.967 382.201 330.956 381.753 330.946Z" fill="black"/>
<path fill-rule="evenodd" clip-rule="evenodd" d="M398.763 331.74C399.214 331.724 399.665 331.708 400.109 331.693C399.657 331.709 399.21 331.725 398.763 331.74Z" fill="black"/>
<path fill-rule="evenodd" clip-rule="evenodd" d="M132.564 332.054C133.034 332.066 133.505 332.078 133.969 332.089C133.497 332.077 133.03 332.066 132.564 332.054Z" fill="black"/>
<path fill-rule="evenodd" clip-rule="evenodd" d="M524.467 261.039C524.4 260.393 524.333 259.747 524.266 259.104C524.333 259.751 524.4 260.395 524.467 261.039Z" fill="black"/>
<path fill-rule="evenodd" clip-rule="evenodd" d="M463.028 152.147C463.082 152.763 463.135 153.379 463.187 153.99C463.134 153.374 463.081 152.761 463.028 152.147Z" fill="black"/>
<path fill-rule="evenodd" clip-rule="evenodd" d="M486.672 141.578C486.599 140.925 486.526 140.272 486.453 139.622C486.526 140.275 486.599 140.926 486.672 141.578Z" fill="black"/>
<path fill-rule="evenodd" clip-rule="evenodd" d="M136.381 332.443C136.855 332.436 137.33 332.428 137.8 332.422C137.323 332.43 136.852 332.436 136.381 332.443Z" fill="black"/>
<path fill-rule="evenodd" clip-rule="evenodd" d="M309.161 332.494C309.623 332.473 310.083 332.453 310.539 332.432C310.077 332.453 309.619 332.474 309.161 332.494Z" fill="black"/>
<path fill-rule="evenodd" clip-rule="evenodd" d="M482.813 93.9112C482.792 93.2498 482.771 92.5884 482.75 91.9282C482.772 92.5902 482.792 93.2504 482.813 93.9112Z" fill="black"/>
<path fill-rule="evenodd" clip-rule="evenodd" d="M91.3926 332.875C91.8556 332.872 92.318 332.868 92.7747 332.865C92.3094 332.869 91.8516 332.872 91.3926 332.875Z" fill="black"/>
<path fill-rule="evenodd" clip-rule="evenodd" d="M482.619 332.868C483.095 332.873 483.571 332.878 484.041 332.883C483.562 332.878 483.091 332.873 482.619 332.868Z" fill="black"/>
<path fill-rule="evenodd" clip-rule="evenodd" d="M492.894 332.812C493.354 332.844 493.813 332.878 494.266 332.909C493.805 332.876 493.35 332.844 492.894 332.812Z" fill="black"/>
<path fill-rule="evenodd" clip-rule="evenodd" d="M497.044 332.804C497.512 332.817 497.98 332.832 498.442 332.842C497.972 332.828 497.508 332.816 497.044 332.804Z" fill="black"/>
<path fill-rule="evenodd" clip-rule="evenodd" d="M518.351 144.2C518.32 143.549 518.29 142.898 518.26 142.249C518.291 142.901 518.32 143.55 518.351 144.2Z" fill="black"/>
<path fill-rule="evenodd" clip-rule="evenodd" d="M204.344 324.277C205.767 324.203 207.19 324.129 208.613 324.054C207.19 324.129 205.767 324.203 204.344 324.277Z" fill="black"/>
<path fill-rule="evenodd" clip-rule="evenodd" d="M118.493 87.7441C119.728 87.8516 120.964 87.9591 122.198 88.0654C120.963 87.9585 119.728 87.851 118.493 87.7441Z" fill="black"/>
<path fill-rule="evenodd" clip-rule="evenodd" d="M467.263 141.448C467.301 142.627 467.34 143.806 467.379 144.981C467.34 143.802 467.301 142.625 467.263 141.448Z" fill="black"/>
<path fill-rule="evenodd" clip-rule="evenodd" d="M492.756 326.292C494.045 326.371 495.334 326.449 496.624 326.527C495.326 326.586 494.009 326.956 492.756 326.292Z" fill="black"/>
<path fill-rule="evenodd" clip-rule="evenodd" d="M485.125 186.872C485.134 185.748 485.144 184.623 485.153 183.502C485.143 184.627 485.134 185.749 485.125 186.872Z" fill="black"/>
<path fill-rule="evenodd" clip-rule="evenodd" d="M481.824 222.198C482.955 222.213 484.088 222.229 485.218 222.244C484.087 222.228 482.955 222.213 481.824 222.198Z" fill="black"/>
<path fill-rule="evenodd" clip-rule="evenodd" d="M196.997 202.431C196.968 203.288 196.94 204.145 196.914 204.998C196.942 204.14 196.97 203.286 196.997 202.431Z" fill="black"/>
<path fill-rule="evenodd" clip-rule="evenodd" d="M500.655 166.148C500.609 167.001 500.562 167.853 500.517 168.701C500.564 167.848 500.61 166.998 500.655 166.148Z" fill="black"/>
<path fill-rule="evenodd" clip-rule="evenodd" d="M476.516 322.499C477.339 322.443 478.162 322.387 478.984 322.334C478.365 322.83 477.742 322.871 476.516 322.499Z" fill="black"/>
<path fill-rule="evenodd" clip-rule="evenodd" d="M471.008 211.034C471.064 211.953 471.121 212.872 471.177 213.789C471.12 212.869 471.064 211.952 471.008 211.034Z" fill="black"/>
<path fill-rule="evenodd" clip-rule="evenodd" d="M163.241 65.9559C163.25 65.0682 163.258 64.1804 163.267 63.2961C163.259 64.185 163.25 65.0704 163.241 65.9559Z" fill="black"/>
<path fill-rule="evenodd" clip-rule="evenodd" d="M472.004 222.384L475.072 222.317C474.059 222.806 473.037 222.823 472.004 222.384Z" fill="black"/>
<path fill-rule="evenodd" clip-rule="evenodd" d="M500.307 228.935C499.584 228.941 498.861 228.947 498.142 228.954C498.867 228.949 499.588 228.942 500.307 228.935Z" fill="black"/>
<path fill-rule="evenodd" clip-rule="evenodd" d="M235.379 322.851C236.38 322.864 237.382 322.878 238.383 322.89C237.374 323.396 236.372 323.468 235.379 322.851Z" fill="black"/>
<path fill-rule="evenodd" clip-rule="evenodd" d="M46.7295 325.802C47.7458 325.712 48.7627 325.621 49.7791 325.53C48.7627 325.621 47.7458 325.712 46.7295 325.802Z" fill="black"/>
<path fill-rule="evenodd" clip-rule="evenodd" d="M467.615 149.018C467.665 149.941 467.715 150.863 467.764 151.783C467.715 150.859 467.665 149.939 467.615 149.018Z" fill="black"/>
<path fill-rule="evenodd" clip-rule="evenodd" d="M143.2 89.9097C144.057 89.4872 144.92 89.4164 145.793 89.8639C144.928 89.8794 144.064 89.8948 143.2 89.9097Z" fill="black"/>
<path fill-rule="evenodd" clip-rule="evenodd" d="M439.587 159.672C439.658 160.45 439.729 161.228 439.8 162.004C439.728 161.225 439.658 160.448 439.587 159.672Z" fill="black"/>
<path fill-rule="evenodd" clip-rule="evenodd" d="M511.969 141.513C511.529 140.752 511.544 139.994 511.991 139.244C511.983 140.001 511.977 140.757 511.969 141.513Z" fill="black"/>
<path fill-rule="evenodd" clip-rule="evenodd" d="M467.756 115.082C467.756 115.852 467.757 116.622 467.757 117.39C467.756 116.618 467.756 115.85 467.756 115.082Z" fill="black"/>
<path fill-rule="evenodd" clip-rule="evenodd" d="M498.471 221.83C499.353 221.56 500.235 221.177 501.113 221.839C500.232 221.837 499.352 221.833 498.471 221.83Z" fill="black"/>
<path fill-rule="evenodd" clip-rule="evenodd" d="M213.461 323.929C214.349 323.846 215.236 323.764 216.123 323.681C215.236 323.764 214.349 323.846 213.461 323.929Z" fill="black"/>
<path fill-rule="evenodd" clip-rule="evenodd" d="M91.7954 323.931C92.6082 323.573 93.4194 323.386 94.2202 323.958C93.4114 323.948 92.6037 323.94 91.7954 323.931Z" fill="black"/>
<path fill-rule="evenodd" clip-rule="evenodd" d="M258.057 322.784C258.927 322.404 259.794 322.196 260.652 322.811C259.786 322.802 258.922 322.793 258.057 322.784Z" fill="black"/>
<path fill-rule="evenodd" clip-rule="evenodd" d="M64.5723 210.333C64.6374 211.118 64.7032 211.902 64.7678 212.685C64.702 211.9 64.6369 211.116 64.5723 210.333Z" fill="black"/>
<path fill-rule="evenodd" clip-rule="evenodd" d="M266.366 165.127C267.221 164.816 268.074 164.654 268.913 165.173C268.064 165.157 267.215 165.142 266.366 165.127Z" fill="black"/>
<path fill-rule="evenodd" clip-rule="evenodd" d="M467.603 188.489C467.65 189.256 467.697 190.023 467.744 190.789C467.697 190.021 467.649 189.255 467.603 188.489Z" fill="black"/>
<path fill-rule="evenodd" clip-rule="evenodd" d="M64.0192 119.271C63.9483 119.889 63.8774 120.507 63.8071 121.122C63.878 120.503 63.9483 119.887 64.0192 119.271Z" fill="black"/>
<path fill-rule="evenodd" clip-rule="evenodd" d="M14.4537 298.467C14.4096 299.069 14.3662 299.671 14.3228 300.268C14.3679 299.666 14.4108 299.066 14.4537 298.467Z" fill="black"/>
<path fill-rule="evenodd" clip-rule="evenodd" d="M485.504 192.548C485.456 191.927 485.408 191.305 485.36 190.686C485.408 191.309 485.456 191.929 485.504 192.548Z" fill="black"/>
<path fill-rule="evenodd" clip-rule="evenodd" d="M423.227 321.623C423.989 321.628 424.75 321.634 425.512 321.639C424.75 321.634 423.988 321.628 423.227 321.623Z" fill="black"/>
<path fill-rule="evenodd" clip-rule="evenodd" d="M196.709 207.723C196.851 208.176 196.994 208.629 197.136 209.083C196.185 209.312 196.043 208.859 196.709 207.723Z" fill="black"/>
<path fill-rule="evenodd" clip-rule="evenodd" d="M253.843 164.104C254.617 164.1 255.391 164.097 256.165 164.094C255.392 164.461 254.618 164.713 253.843 164.104Z" fill="black"/>
<path fill-rule="evenodd" clip-rule="evenodd" d="M65.0059 214.048C65.0322 214.734 65.0584 215.421 65.0836 216.104C65.0567 215.418 65.031 214.733 65.0059 214.048Z" fill="black"/>
<path fill-rule="evenodd" clip-rule="evenodd" d="M73.1934 324.681C73.9405 324.68 74.687 324.68 75.4341 324.679C74.6864 324.68 73.9405 324.68 73.1934 324.681Z" fill="black"/>
<path fill-rule="evenodd" clip-rule="evenodd" d="M441.466 221.281C441.494 221.913 441.522 222.544 441.55 223.172C441.523 222.539 441.494 221.91 441.466 221.281Z" fill="black"/>
<path fill-rule="evenodd" clip-rule="evenodd" d="M57.3335 325.451C58.068 324.963 58.8043 325.006 59.5417 325.443C58.8054 325.446 58.0692 325.449 57.3335 325.451Z" fill="black"/>
<path fill-rule="evenodd" clip-rule="evenodd" d="M76.6758 110.447C76.7152 111.092 76.7552 111.737 76.7964 112.378C76.7569 111.732 76.7164 111.089 76.6758 110.447Z" fill="black"/>
<path fill-rule="evenodd" clip-rule="evenodd" d="M53.5117 325.517C54.2754 325.52 55.0391 325.524 55.8022 325.527C55.0362 326.048 54.2731 326.073 53.5117 325.517Z" fill="black"/>
<path fill-rule="evenodd" clip-rule="evenodd" d="M476.387 100.325C476.393 99.6702 476.399 99.0157 476.404 98.3623C476.398 99.0179 476.392 99.6713 476.387 100.325Z" fill="black"/>
<path fill-rule="evenodd" clip-rule="evenodd" d="M125.786 88.8701C126.517 88.9656 127.247 89.061 127.977 89.1559C127.247 89.0605 126.516 88.9656 125.786 88.8701Z" fill="black"/>
<path fill-rule="evenodd" clip-rule="evenodd" d="M61.3218 145.402C61.3315 146.014 61.3412 146.626 61.3526 147.235C61.3429 146.622 61.3326 146.012 61.3218 145.402Z" fill="black"/>
<path fill-rule="evenodd" clip-rule="evenodd" d="M481.305 145.314C481.265 144.691 481.225 144.068 481.185 143.448C481.225 144.072 481.265 144.693 481.305 145.314Z" fill="black"/>
<path fill-rule="evenodd" clip-rule="evenodd" d="M310.922 324.787C311.823 324.868 312.725 324.95 313.626 325.031C312.724 324.95 311.823 324.868 310.922 324.787Z" fill="black"/>
<path fill-rule="evenodd" clip-rule="evenodd" d="M307.91 301.452C307.423 301.46 306.936 301.467 306.453 301.477C306.942 301.471 307.426 301.461 307.91 301.452Z" fill="black"/>
<path fill-rule="evenodd" clip-rule="evenodd" d="M307.951 324.43C308.707 324.504 309.464 324.579 310.219 324.653C309.463 324.579 308.707 324.504 307.951 324.43Z" fill="black"/>
<path fill-rule="evenodd" clip-rule="evenodd" d="M171.894 273.517C172.878 279.075 164.24 284.511 163.555 276.61C163.305 273.72 165.237 271.689 167.4 269.923C170.471 267.416 172.187 269.816 171.894 273.517Z" fill="black"/>
<path fill-rule="evenodd" clip-rule="evenodd" d="M76.6789 205.702C78.7138 206.535 94.2612 211.601 86.1854 214.149C84.0476 214.824 80.8162 214.925 78.963 213.736C76.7337 212.306 74.485 208.086 76.6789 205.702Z" fill="black"/>
<path fill-rule="evenodd" clip-rule="evenodd" d="M80.5055 130.429C85.7827 129.817 90.6448 138.484 84.1387 138.203C79.4029 137.998 73.0339 130.429 80.5055 130.429Z" fill="black"/>
<path fill-rule="evenodd" clip-rule="evenodd" d="M99.3832 151.681C103.79 155.526 95.6219 164.13 92.3792 160.8C90.7232 159.099 92.2505 155.434 93.6173 154.011C95.02 152.55 97.5157 152.276 99.3832 151.681Z" fill="black"/>
<path fill-rule="evenodd" clip-rule="evenodd" d="M112.501 251.353C109.9 251.766 98.4597 255.505 100.846 248.714C101.756 246.125 104.294 246.893 106.614 247.012C110.353 247.203 112.501 247.024 112.501 251.353Z" fill="black"/>
<path fill-rule="evenodd" clip-rule="evenodd" d="M104.966 268.843C108.86 270.926 103.168 282.586 99.9397 280.105C95.461 276.663 101.586 269.89 104.966 268.843Z" fill="black"/>
<path fill-rule="evenodd" clip-rule="evenodd" d="M121.95 259.47C123.844 258.697 132.771 267.283 129.373 269.672C127.631 270.897 124.331 268.798 123.281 267.532C121.312 265.159 121.134 262.231 121.95 259.47Z" fill="black"/>
<path fill-rule="evenodd" clip-rule="evenodd" d="M70.4468 189.284C72.3823 189.602 75.724 189.703 75.8491 192.422C75.9589 194.813 72.9619 195.587 70.8521 195.775C68.6628 195.969 65.7647 195.351 65.723 192.599C65.6789 189.629 70.3782 189.808 70.4468 189.284Z" fill="black"/>
<path fill-rule="evenodd" clip-rule="evenodd" d="M118.175 307.638C120.236 308.89 129.851 313.395 125.73 316.65C124.187 317.868 119.512 315.352 118.46 314.074C117.204 312.547 115.977 308.972 118.175 307.638Z" fill="black"/>
<path fill-rule="evenodd" clip-rule="evenodd" d="M144.903 274.946C144.605 269.972 152.995 267.993 151.256 275.052C150.766 277.042 150.291 280.063 147.83 280.179C144.922 280.315 144.817 276.874 144.903 274.946Z" fill="black"/>
<path fill-rule="evenodd" clip-rule="evenodd" d="M118.984 188.465C119.043 192.238 111.814 195.564 111.758 189.585C111.708 184.241 119.254 182.677 118.984 188.465Z" fill="black"/>
<path fill-rule="evenodd" clip-rule="evenodd" d="M114.211 168.817C115.993 169.391 118.36 169.686 118.516 171.949C118.683 174.344 116.458 175.41 114.456 175.276C112.814 175.166 110.385 173.951 110.087 172.169C109.649 169.555 112.201 169.384 114.211 168.817Z" fill="black"/>
<path fill-rule="evenodd" clip-rule="evenodd" d="M81.0904 237.887C81.0601 234.774 87.2988 231.033 88.4477 234.645C88.8153 235.8 85.8749 240.983 84.8968 241.371C82.3091 242.399 81.9479 240.005 81.0904 237.887Z" fill="black"/>
<path fill-rule="evenodd" clip-rule="evenodd" d="M132.213 289.7C130.105 291.587 123.781 296.887 124.254 289.772C124.555 285.226 132.769 285.464 132.213 289.7Z" fill="black"/>
<path fill-rule="evenodd" clip-rule="evenodd" d="M235.243 310.036C235.934 307.044 245.827 312.235 242.526 316.014C241.418 317.282 238.52 316.134 237.406 315.383C235.202 313.895 235.154 312.521 235.243 310.036Z" fill="black"/>
<path fill-rule="evenodd" clip-rule="evenodd" d="M180.119 245.994C180.505 244.66 180.934 242.302 182.206 241.45C184.509 239.911 186.513 242.234 186.514 244.682C186.514 249.249 181.316 250.689 180.119 245.994Z" fill="black"/>
<path fill-rule="evenodd" clip-rule="evenodd" d="M155.598 299.394C158.167 299.982 163.887 306.227 160.57 308.774C157.377 311.225 153.131 301.259 155.598 299.394Z" fill="black"/>
<path fill-rule="evenodd" clip-rule="evenodd" d="M158.044 252.128C161.347 252.391 165.886 257.74 160.753 258.59C156.737 259.255 152.067 253.438 158.044 252.128Z" fill="black"/>
<path fill-rule="evenodd" clip-rule="evenodd" d="M187.945 276.739C188.773 273.949 196.964 276.939 196.504 280.011C196.26 281.644 192.911 282.028 191.15 281.596C188.558 280.96 187.886 279.26 187.945 276.739Z" fill="black"/>
<path fill-rule="evenodd" clip-rule="evenodd" d="M91.3894 120.914C91.4488 117.307 98.3797 115.837 98.8873 119.471C99.3463 122.755 91.3025 126.25 91.3894 120.914Z" fill="black"/>
<path fill-rule="evenodd" clip-rule="evenodd" d="M185.655 313.906C186.155 312.092 186.37 309.909 188.636 309.67C191.23 309.396 191.153 311.385 190.848 313.447C190.018 319.055 186.849 319.335 185.655 313.906Z" fill="black"/>
<path fill-rule="evenodd" clip-rule="evenodd" d="M76.2044 163.828C72.5912 164.643 65.9736 157.684 70.0184 156.191C72.8685 155.138 76.2044 161.728 76.2044 163.828Z" fill="black"/>
<path fill-rule="evenodd" clip-rule="evenodd" d="M122.289 217.882C120.45 218.748 120.027 219.273 118.614 217.852C117.384 216.615 117.438 213.167 118.494 211.88C122.538 206.95 122.443 215.887 122.289 217.882Z" fill="black"/>
<path fill-rule="evenodd" clip-rule="evenodd" d="M137.292 207.884C139.209 208.128 144.908 213.533 141.94 215.681C138.304 218.313 136.247 210.069 137.292 207.884Z" fill="black"/>
<path fill-rule="evenodd" clip-rule="evenodd" d="M178.785 209.307C177.39 214.675 173.911 211.063 174.108 207.001C174.425 200.495 178.031 206.162 178.785 209.307Z" fill="black"/>
<path fill-rule="evenodd" clip-rule="evenodd" d="M199.941 295.522C202.299 296.497 205.5 305.513 202.132 305.997C198.348 306.539 199.608 297.399 199.941 295.522Z" fill="black"/>
<path fill-rule="evenodd" clip-rule="evenodd" d="M170.488 290.457C173.187 289.546 174.176 295.239 172.607 296.296C169.156 298.623 169.884 291.8 170.488 290.457Z" fill="black"/>
<path fill-rule="evenodd" clip-rule="evenodd" d="M144.903 274.945C144.868 275.701 144.835 276.456 144.799 277.208C144.833 276.451 144.867 275.698 144.903 274.945Z" fill="black"/>
<path fill-rule="evenodd" clip-rule="evenodd" d="M235.243 310.036C235.215 310.811 235.187 311.586 235.158 312.357C235.185 311.581 235.214 310.809 235.243 310.036Z" fill="black"/>
<path fill-rule="evenodd" clip-rule="evenodd" d="M187.945 276.74C187.93 277.397 187.914 278.054 187.897 278.708C187.912 278.049 187.929 277.394 187.945 276.74Z" fill="black"/>
<path fill-rule="evenodd" clip-rule="evenodd" d="M486.441 265.427C492.036 265.247 498.278 263.142 503.775 263.812C505.289 263.996 508.773 264.377 506.348 266.622C505.188 267.696 499.636 267.141 497.956 267.497C487.683 269.672 476.022 271.075 465.489 270.893C460.558 270.809 455.591 270.414 450.663 270.153C445.738 269.892 445.253 267.891 450.795 267.254C456.551 266.594 462.457 266.839 468.241 266.832C474.322 266.824 480.372 265.833 486.441 265.427Z" fill="black"/>
<path fill-rule="evenodd" clip-rule="evenodd" d="M498.724 251.947C498.185 253.48 497.713 256.999 495.649 257.23C492.759 257.553 492.281 252.591 492.387 250.776C492.516 248.585 493.304 244.946 496.027 245.705C498.327 246.346 498.557 250.194 498.724 251.947Z" fill="black"/>
<path fill-rule="evenodd" clip-rule="evenodd" d="M481.227 250.824C481.649 249.183 481.857 245.481 484.179 245.355C486.774 245.215 487.515 249.072 487.498 250.92C487.481 252.674 486.832 255.988 484.766 256.393C481.964 256.942 481.714 252.7 481.227 250.824Z" fill="black"/>
<path fill-rule="evenodd" clip-rule="evenodd" d="M452.089 253.769C451.248 255.742 450.692 258.46 448.09 257.115C446.078 256.074 445.797 251.878 446.177 249.957C446.57 247.967 447.403 245.684 449.69 246.579C452.327 247.612 452.061 251.596 452.089 253.769Z" fill="black"/>
<path fill-rule="evenodd" clip-rule="evenodd" d="M474.154 251.947C471.674 259.465 467.15 254.379 468.868 248.765C470.664 242.898 473.926 248.597 474.154 251.947Z" fill="black"/>
<path fill-rule="evenodd" clip-rule="evenodd" d="M462.07 252.319C461.381 253.643 460.649 256.499 458.792 256.198C456.516 255.829 456.443 251.448 456.692 249.817C456.91 248.389 457.552 246.009 459.457 246.04C462.21 246.085 462.025 250.605 462.07 252.319Z" fill="black"/>
<path fill-rule="evenodd" clip-rule="evenodd" d="M511.545 253.762C509.698 257.905 507.159 254.336 507.971 251.394C509.177 247.031 511.44 250.897 511.545 253.762Z" fill="black"/>
<path fill-rule="evenodd" clip-rule="evenodd" d="M466.328 266.837C464.312 266.829 462.294 266.822 460.278 266.814C462.296 266.434 464.314 266.286 466.328 266.837Z" fill="black"/>
<path fill-rule="evenodd" clip-rule="evenodd" d="M506.399 263.794C504.649 263.806 502.901 263.816 501.153 263.828C502.899 263.304 504.647 263.293 506.399 263.794Z" fill="black"/>
<path fill-rule="evenodd" clip-rule="evenodd" d="M486.441 265.427C485.041 265.521 483.642 265.614 482.243 265.708C483.643 265.614 485.042 265.521 486.441 265.427Z" fill="black"/>
<path fill-rule="evenodd" clip-rule="evenodd" d="M452.089 253.769C452.076 252.764 452.062 251.759 452.05 250.757C452.568 251.756 452.532 252.76 452.089 253.769Z" fill="black"/>
<path fill-rule="evenodd" clip-rule="evenodd" d="M463.061 270.872C463.872 270.879 464.684 270.886 465.489 270.894C464.675 270.886 463.868 270.879 463.061 270.872Z" fill="black"/>
<path fill-rule="evenodd" clip-rule="evenodd" d="M449.43 270.153C450.252 270.153 451.075 270.153 451.891 270.153C451.066 270.153 450.248 270.153 449.43 270.153Z" fill="black"/>
<path fill-rule="evenodd" clip-rule="evenodd" d="M456.17 266.924C455.027 267.018 453.884 267.111 452.741 267.205C453.884 267.111 455.027 267.018 456.17 266.924Z" fill="black"/>
<path fill-rule="evenodd" clip-rule="evenodd" d="M471.627 266.824C470.499 266.827 469.37 266.829 468.241 266.831C469.37 266.356 470.498 266.342 471.627 266.824Z" fill="black"/>
<path fill-rule="evenodd" clip-rule="evenodd" d="M462.07 252.319C462.042 251.272 462.015 250.225 461.989 249.178C462.017 250.226 462.044 251.273 462.07 252.319Z" fill="black"/>
<path fill-rule="evenodd" clip-rule="evenodd" d="M446.177 249.957C446.171 250.979 446.164 252 446.156 253.018C446.163 251.995 446.169 250.976 446.177 249.957Z" fill="black"/>
<path fill-rule="evenodd" clip-rule="evenodd" d="M492.855 265.047C491.857 265.137 490.86 265.227 489.863 265.317C490.861 265.227 491.858 265.137 492.855 265.047Z" fill="black"/>
<path fill-rule="evenodd" clip-rule="evenodd" d="M511.545 253.762C511.512 252.87 511.48 251.978 511.448 251.087C511.481 251.98 511.512 252.871 511.545 253.762Z" fill="black"/>
<path fill-rule="evenodd" clip-rule="evenodd" d="M469.092 270.902C469.786 270.888 470.481 270.875 471.168 270.863C470.472 270.877 469.782 270.89 469.092 270.902Z" fill="black"/>
<path fill-rule="evenodd" clip-rule="evenodd" d="M498.724 251.947C498.663 251.306 498.602 250.664 498.541 250.025C498.602 250.667 498.663 251.307 498.724 251.947Z" fill="black"/>
<path fill-rule="evenodd" clip-rule="evenodd" d="M474.155 251.947C474.111 251.289 474.066 250.629 474.021 249.973C474.066 250.632 474.111 251.29 474.155 251.947Z" fill="black"/>
<path fill-rule="evenodd" clip-rule="evenodd" d="M115.96 58.4377C113.228 57.7209 112.716 53.882 113.155 51.5241C113.653 50.3877 114.151 49.2519 114.648 48.1155C114.453 47.6954 114.259 47.2752 114.065 46.8551C114.315 44.5149 113.676 43.498 116.366 44.4457C121.361 46.2074 122.16 58.2571 115.96 58.4377Z" fill="black"/>
<path fill-rule="evenodd" clip-rule="evenodd" d="M156.397 51.0153C158.647 50.8381 162.735 53.459 160.495 55.9947C159.107 57.5655 154.534 56.8224 152.668 57.1505C150.193 57.5855 147.612 58.1805 148.951 54.4742C150.002 51.5635 153.757 50.9393 156.397 51.0153Z" fill="black"/>
<path fill-rule="evenodd" clip-rule="evenodd" d="M154.029 68.4493C151.743 66.6161 152.764 58.2665 156.242 59.7687C159.821 61.3149 155.937 67.2443 154.029 68.4493Z" fill="black"/>
<path fill-rule="evenodd" clip-rule="evenodd" d="M113.155 51.5242C113.155 52.4027 113.155 53.2819 113.153 54.1565C112.676 53.2762 112.691 52.3999 113.155 51.5242Z" fill="black"/>
<path fill-rule="evenodd" clip-rule="evenodd" d="M115.96 58.4376C116.426 58.4244 116.892 58.4107 117.352 58.3987C116.884 58.4135 116.422 58.4256 115.96 58.4376Z" fill="black"/>
<path fill-rule="evenodd" clip-rule="evenodd" d="M398.213 298.898C397.999 302.696 393.921 299.888 394.21 297.347C394.735 292.736 397.342 297.293 398.213 298.898Z" fill="black"/>
</svg>
