<svg width="545" height="390" viewBox="0 0 545 390" fill="none" xmlns="http://www.w3.org/2000/svg">
<path fill-rule="evenodd" clip-rule="evenodd" d="M231.74 163.622C225.865 167.881 226.8 176.261 228.569 182.348C231.173 191.313 236.36 199.611 242.276 206.764C252.773 219.454 270.593 233.702 287.019 222.562C301.646 212.64 310.873 192.621 314.059 175.758C315.043 170.546 316.354 162.781 311.729 158.864C304.891 153.073 292.83 154.126 284.576 154.872C279.14 155.362 273.895 157.028 268.523 156.247C256.042 154.428 242.151 156.075 231.74 163.622Z" fill="#FF5678"/>
<path fill-rule="evenodd" clip-rule="evenodd" d="M484.802 230.027C472.902 245.123 452.67 247.508 434.701 247.36C423.911 247.271 413.1 246.458 402.521 244.26C396.818 243.074 391.154 241.503 385.644 239.617C382.004 238.37 376.585 237.747 375.036 233.847C370.95 223.557 373.956 210.653 375.639 200.208C376.495 194.895 377.138 189.551 377.97 184.235C378.502 180.833 378.757 177.069 380.183 173.887C381.852 170.159 383.96 170.903 387.491 171.933C392.354 173.353 397.349 173.943 402.349 174.707C414.554 176.57 425.202 180.329 436.294 185.655C447.261 190.922 457.9 196.121 467.683 203.443C472.639 207.155 476.91 211.183 480.889 215.913C483.963 219.567 488.55 225.272 484.802 230.027ZM432.783 297.077C432.687 298.703 414.037 293.795 411.583 293.245C395.479 289.633 379.056 285.519 363.853 278.993C349.663 272.902 337.16 265.933 325.993 255.11C320.788 250.066 316.106 244.754 311.626 239.096C309.381 236.261 306.313 236.59 303.809 234.191C301.557 232.032 299.83 230.346 300.534 227.118C306.162 228.601 316.553 237.922 322.388 233.215C325.713 230.532 321.101 227.729 318.972 226.175C314.969 223.251 311.547 219.645 308.365 215.859C313.828 216.919 318.913 218.964 323.667 221.812C325.779 223.078 333.019 227.665 334.705 223.292C335.742 220.6 330.833 217.216 329.302 215.726C325.544 212.07 321.486 207.8 319.491 202.883C324.425 201.739 329.075 205.552 332.435 208.657C336.164 212.106 340.736 215.725 343.863 219.698C345.477 221.747 345.828 224.167 347.088 226.378C348.506 228.864 350.774 230.996 352.942 232.835C357.119 236.381 362.005 238.992 367.019 241.151C378.478 246.084 390.759 249.576 402.973 252.025C408.966 253.227 414.81 253.78 420.892 253.984C425.619 254.143 427.71 255.556 429.515 259.911C434.399 271.696 433.512 284.659 432.783 297.077ZM292.523 207.285C289.79 209.842 286.239 211.446 283.383 213.904C280.869 216.067 277.97 218.375 275.164 220.124C272.169 221.991 269.932 220.682 267.235 218.993C264.07 217.011 260.43 216.207 257.17 214.434C245.897 208.298 232.106 193.265 234.211 179.461C235.102 173.611 238.127 167.854 243.62 165.199C248.608 162.789 255.859 161.451 261.197 163.466C264.207 164.603 266.361 167.112 268.29 169.579C270.539 172.455 271.4 172.002 273.69 169.228C277.789 164.266 284.548 159.913 291.23 160.017C294.55 160.07 297.849 160.77 300.84 162.148C301.245 162.335 301.471 162.901 301.878 163.093C302.378 163.328 303.198 162.838 303.545 163.058C304.421 163.613 305.296 165.345 305.801 166.224C307.828 169.75 311.478 176.667 307.8 179.636C307.798 179.637 307.963 183.654 307.913 184.111C307.654 186.508 306.825 188.485 305.758 190.677C302.553 197.259 297.823 202.327 292.523 207.285ZM297.972 262.981C295.383 263.785 292.595 255.672 295.078 254.377C297.446 253.142 300.316 262.252 297.972 262.981ZM257.312 253.28C256.415 256.345 256.036 259.823 253.844 262.317C251.837 259.935 251.638 255.54 253.585 253.091C254.697 251.694 258.292 249.931 257.312 253.28ZM340.155 199.585C340.141 199.663 343.27 201.16 341.744 202.796C339.657 205.031 339.944 200.681 340.155 199.585ZM353.088 174.609C353.052 177.707 346.493 176.959 346.539 173.842C346.597 170.007 353.127 171.324 353.088 174.609ZM345.258 148.711C345.907 145.874 357.317 141.927 357.006 146.872C356.851 149.351 343.881 154.743 345.258 148.711ZM228.286 244.922C227.007 246.46 225.19 247.066 223.658 248.247C222.05 249.483 220.9 251.088 219.496 252.541C215.64 256.527 210.998 259.803 206.838 263.466C199.19 270.198 191.863 277.436 183.383 283.146C168.23 293.349 150.657 298.929 133.212 303.815C131.767 304.22 127.604 305.854 126.174 304.637C124.632 303.324 125.416 298.706 125.487 296.96C125.776 289.801 126.611 282.557 126.521 275.408C126.483 272.472 125.623 268.298 127.155 265.611C128.866 262.611 133.642 261.733 136.596 260.604C145.576 257.172 154.226 251.382 162.158 246.02C171.909 239.428 181.756 232.727 191.791 226.574C201.621 220.545 212.465 216.508 223.432 213.065C223.94 214.133 218.707 217.568 218.109 218.05C215.24 220.359 212.119 222.754 209.989 225.802C208.481 227.961 206.935 232.845 211.098 232.97C213.116 233.031 216.1 231.079 217.93 230.448C220.952 229.404 224.067 228.672 227.229 228.196C224.51 231.189 215.297 236.565 216.974 241.542C218.6 246.371 228.007 240.735 231.245 240.735C230.714 242.419 229.38 243.608 228.286 244.922ZM117.15 258.403C111.126 260.521 104.95 261.726 98.7328 263.094C92.8063 264.398 87.3284 265.38 81.2579 264.616C72.8771 263.563 63.6022 260.091 62.5397 250.568C61.2796 239.284 69.2486 228.915 76.0911 220.82C84.419 210.97 93.77 202.165 103.905 194.192C114.028 186.226 124.955 179.204 136.402 173.276C145.11 168.765 154.946 166.027 164.155 162.642C165.907 161.998 170.752 159.736 172.39 161.611C173.715 163.127 171.912 165.653 171.309 167.061C170.131 169.806 169.969 172.569 169.665 175.516C168.308 188.677 166.673 201.834 165.921 215.052C165.712 218.735 165.343 222.589 165.558 226.275C165.677 228.317 166.739 230.917 166.032 232.91C164.672 236.742 158.443 239.278 155.142 240.99C149.233 244.055 142.975 246.341 137.005 249.272C130.448 252.491 124.064 255.97 117.15 258.403ZM200.701 172.887C202.355 172.66 204.832 172.209 206.307 173.281C208.229 174.678 207.725 176.621 205.949 177.635C204.547 178.436 201.265 178.655 199.88 177.928C197.52 176.69 197.919 173.27 200.701 172.887ZM209.859 203.362C208.523 205.588 203.64 207.047 204.065 202.894C204.43 199.338 212.321 199.264 209.859 203.362ZM208.047 140.663C210.195 141.495 214.093 142.207 214.731 144.971C215.323 147.543 212.886 147.373 211.127 146.665C209.681 146.084 203.236 140.619 208.047 140.663ZM544.618 238.775C543.364 233.893 544.32 228.488 543.627 223.487C542.956 218.639 541.746 214.184 540.013 209.616C536.172 199.502 531.772 190.397 525.548 181.521C513.824 164.805 500.223 150.081 483.799 137.872C467.584 125.819 449.628 116.023 430.608 109.158C410.439 101.877 390.137 99.3433 368.868 97.9477C362.516 97.5313 356.17 97.0375 349.855 96.2351C345.238 95.649 339.452 94.9266 334.888 96.3403C332.021 97.2292 330.419 99.7293 333.543 101.37C335.757 102.533 338.657 102.673 341.103 102.982C338.148 112.368 333.341 121.787 325.722 128.25C318.285 134.56 308.332 136.723 298.945 138.323C293.856 139.19 288.156 139.861 282.987 139.487C279.719 139.251 277.169 137.738 275.851 141.104C274.936 143.443 274.503 146.009 273.296 142.478C271.87 138.303 271.169 138.33 266.731 137.144C257.655 134.719 247.249 132.507 239.33 127.263C231.115 121.822 228.258 113.021 223.672 104.826C222.538 102.8 219.116 98.7004 220.864 96.3791C222.463 94.2566 227.662 94.4683 230.042 94.2469C232.555 94.0132 235.083 94.0035 237.603 93.9054C239.064 93.8493 242.001 94.4477 241.413 92.2664C240.527 88.9788 231.03 89.4003 228.672 89.3467C224.286 89.2486 219.84 89.35 215.476 89.8322C193.84 92.2251 172.009 96.6495 151.072 102.55C110.451 113.996 71.109 135.088 41.464 165.474C13.0074 194.642 3.992 243.179 21.4857 280.421C30.5773 299.777 50.307 307.728 69.4325 314.149C79.5208 317.536 90.2029 320.186 100.927 319.546C106.073 319.239 110.956 317.854 115.975 316.81C118.164 316.354 120.655 315.628 122.903 315.811C124.605 315.95 126.24 317.512 127.836 316.682C128.969 316.093 129.462 314.402 130.846 313.681C132.509 312.817 134.524 312.504 136.32 312.069C141.311 310.856 146.143 308.89 151.021 307.278C156.066 305.611 160.827 303.464 165.667 301.294C168.111 300.197 173.766 295.74 175.36 298.999C176.085 300.486 175.776 303.354 175.953 304.914C176.263 307.642 176.627 310.364 177.025 313.08C177.902 319.06 178.951 325.016 180.027 330.964C181.968 341.696 184.47 351.97 188.653 362.066C191.993 370.127 194.925 379.264 201.127 385.676C203.834 388.475 207.528 389.735 211.411 388.856C215.828 387.854 218.027 383.842 220.708 380.599C226.608 373.46 236.348 367.99 245.342 366.021C256.355 363.61 267.084 367.136 277.596 370.134C288.717 373.305 300.036 376.326 310.952 380.137C321.122 383.689 332.105 388.936 343.135 388.479C352.754 388.082 361.739 380.253 368.676 374.285C375.643 368.292 384.355 359.516 394.374 360.223C399.348 360.573 403.882 362.973 408.727 363.948C414.047 365.02 419.707 365.171 425.117 365.571C431.831 366.066 446.855 364.315 449.339 356.237C449.707 355.039 449.709 352.571 448.127 352.091C446.671 351.651 445.927 353.353 444.548 353.275C441.742 353.117 439.549 348.224 438.008 346.33C431.787 338.684 423.254 332.98 416.273 326.073C408.391 318.274 401.661 308.824 395.722 299.504C398.407 298.806 401.303 299.965 403.902 300.516C407.06 301.185 410.137 301.993 413.249 302.849C416.678 303.794 420.157 304.443 423.638 305.163C426.235 305.699 429.682 305.861 432.026 307.163C434.072 308.301 435.215 309.522 437.755 309.852C440.338 310.188 442.991 309.905 445.586 309.888C452.606 309.84 459.611 309.709 466.597 308.968C491.285 306.345 517.454 295.903 532.299 275.179C536.336 269.542 539.588 263.298 541.644 256.672C543.249 251.498 546.015 244.208 544.618 238.775Z" fill="black"/>
<path fill-rule="evenodd" clip-rule="evenodd" d="M258.923 59.5417C254.529 60.9051 249.337 59.3009 246.812 55.3794C244.244 51.392 242.487 46.7778 242.133 42.028C241.795 37.4771 242.828 32.8694 245.512 29.1331C248.368 25.1586 254.189 20.7039 259.408 22.084C260.507 22.3751 261.501 23.0755 262.487 23.7707C263.533 24.5079 264.571 25.2393 265.715 25.4678C266.009 25.5266 266.215 25.5821 266.369 25.6227C266.576 25.6783 266.687 25.708 266.785 25.6854C266.898 25.6595 266.994 25.5659 267.202 25.3652C267.32 25.2503 267.475 25.1005 267.69 24.9088C268.131 24.5144 268.558 23.9205 268.975 23.3395H268.976C269.256 22.949 269.533 22.5636 269.806 22.2492C270.334 21.6444 270.86 21.0331 271.388 20.4205C274.782 16.4828 278.241 12.4696 282.389 9.35513C290.984 2.90184 302.408 -0.146126 313.071 0.00537789C319.559 0.0972357 325.64 2.02102 331.685 4.20811C332.192 4.39164 332.703 4.5738 333.215 4.75662L333.217 4.75726C338.072 6.48991 343.079 8.27704 346.967 11.7485C354.699 18.6537 356.713 30.0865 357.978 39.8675C359.348 50.4599 355.573 59.5727 351.662 69.0135V69.0148L351.661 69.0167V69.0173C351.066 70.4543 350.468 71.8983 349.884 73.3559C345.75 83.6836 338.162 92.0502 329.143 98.4254C324.417 101.765 319.195 103.781 313.731 105.548C312.597 105.915 311.471 106.307 310.346 106.699H310.345H310.345C305.961 108.225 301.593 109.746 296.867 109.739C287.849 109.726 276.305 105.443 272.463 96.5586C270.715 92.5131 272.418 91.7868 275.917 93.9855C276.529 94.3696 277.138 94.7575 277.746 95.1449V95.1455H277.747L277.749 95.1474C282.191 97.9761 286.604 100.788 291.821 102.032C303.327 104.777 317.108 100.525 327.197 94.9138C337.282 89.3048 344.052 80.8782 348.578 70.3865C353.143 59.8012 354.917 49.3709 353.156 37.96C351.664 28.2894 348.696 19.4561 339.982 14.2067C321.169 2.87582 295.823 3.78878 279.094 18.5142C276.799 20.5328 274.531 22.4971 272.167 24.4253C270.664 25.6505 268.894 27.1204 269.112 29.239C269.16 29.7063 269.453 30.5177 269.781 31.4273C270.726 34.0507 271.968 37.4958 268.509 35.9008C267.083 35.243 265.903 34.3476 264.74 33.4652C262.823 32.0115 260.953 30.5926 258.106 30.3305C253.236 29.8812 247.429 33.6214 245.972 38.3292C244.583 42.8214 247.06 48.9674 250.94 51.5437C253.123 52.9935 255.506 52.9225 257.97 52.8489C258.218 52.8418 258.467 52.8341 258.716 52.8283C258.906 52.8238 259.144 52.8115 259.413 52.7973C261.071 52.7095 263.966 52.5572 264.737 53.7882C266.323 56.3206 260.728 58.9821 258.923 59.5417ZM317.534 79.5807C318.359 77.9598 319.175 76.3569 320.098 74.9084C320.526 74.2364 321.225 73.7723 321.894 73.3275H321.895C322.087 73.1997 322.277 73.0732 322.458 72.9441C324.714 76.4596 322.485 80.2255 320.565 83.4687C320.342 83.845 320.124 84.2142 319.917 84.5751C319.31 85.6337 318.717 86.7363 318.119 87.8485C316.84 90.2247 315.539 92.6435 314.03 94.7698C310.352 99.9521 302.35 94.3457 302.113 89.0195C301.931 84.9424 304.819 86.7169 306.673 88.2397C308.581 89.8083 309.485 90.1989 311.485 88.4857C314.174 86.1824 315.873 82.8444 317.534 79.5807ZM295.873 65.2197C296.683 59.8722 293.021 64.0249 292.238 66.4843C291.271 69.5189 290.472 73.8052 291.934 76.8165C294.618 82.3441 302.187 79.7098 305.83 76.7733C307.537 75.3964 309.93 72.5283 309.849 70.138C309.707 65.9789 306.504 68.4725 304.533 70.0063H304.532C304.281 70.2019 304.05 70.382 303.847 70.5304C303.766 70.5905 303.679 70.6544 303.588 70.7215C301.76 72.072 298.127 74.7554 295.998 73.4275C294.041 72.2082 294.826 69.3117 295.443 67.033C295.627 66.3533 295.796 65.7284 295.873 65.2197ZM306.702 43.6535C311.024 42.793 316.59 43.2365 320.35 45.6869C325.195 48.8435 318.825 51.1164 316.065 51.3991C312.725 51.7399 308.454 51.9659 305.386 50.3269C301.037 48.0036 302.487 44.4939 306.702 43.6535ZM257.357 35.638C254.052 34.9957 249.441 36.6638 251.716 40.5937C253.413 43.5269 257.596 44.514 260.87 45.2866C261.267 45.3802 261.652 45.4713 262.017 45.5616C265.656 46.4654 267.457 45.133 266.204 41.1185C264.99 37.2331 260.92 36.3313 257.357 35.638ZM326.359 76.7442C326.663 75.4745 328.437 70.7015 329.635 74.2054C329.819 74.7438 329.841 75.5339 329.865 76.3776C329.926 78.5098 329.996 80.9879 332.708 80.6277C334.108 80.4424 334.77 79.0378 335.385 77.7364C335.69 77.0915 335.982 76.4718 336.346 76.038C340.045 71.6336 338.911 79.9641 337.945 82.0491C335.814 86.644 329.852 89.8103 326.895 83.9806C325.795 81.8122 325.8 79.0752 326.359 76.7442ZM340.284 58.2203H340.285C342 60.2131 344.86 63.5356 346.736 61.1291C348.567 58.78 345.416 55.1399 343.846 53.3253C343.777 53.2466 343.712 53.1711 343.65 53.0994C343.606 53.0471 343.558 52.9916 343.508 52.9329C342.087 51.2764 338.446 47.0296 336.597 50.2107C335.441 52.2021 338.153 55.9558 339.442 57.274C339.671 57.5083 339.957 57.8401 340.284 58.2203ZM289.885 97.3099C288.115 95.2766 288.3 91.508 289.303 89.1551C290.12 87.2392 291.487 89.6108 292.279 90.9838C292.472 91.3188 292.631 91.5938 292.739 91.7333C293.094 92.1897 293.603 92.6125 294.126 93.0469C295.217 93.9519 296.366 94.906 296.292 96.3074C296.108 99.7313 291.442 99.0961 289.885 97.3099Z" fill="black"/>
<path fill-rule="evenodd" clip-rule="evenodd" d="M444.157 72.0048C442.213 71.4774 440.272 70.95 438.34 70.4072C433.847 69.1432 438.092 66.2991 440.762 66.4992C442.828 66.6535 444.846 67.3777 446.831 68.0897C447.708 68.4041 448.579 68.7165 449.445 68.9767C458.08 71.5697 466.085 74.4055 474.153 78.4304C475.356 79.0313 480.657 81.88 477.151 83.1414C475.309 83.8037 471.604 81.8103 469.01 80.4147C468.18 79.9686 467.465 79.5839 466.959 79.3657C459.635 76.2078 451.876 74.1008 444.157 72.0048ZM517.494 136.005C488.606 118.083 459.84 100.529 427.167 90.2621C425.464 89.7276 424.935 88.2087 425.828 86.704C426.769 85.118 428.579 85.1761 430.183 85.2277L430.32 85.2322C434.547 85.3658 438.676 86.7008 442.674 87.9938L443.182 88.1584C452.324 91.1104 461.03 95.2056 469.616 99.486C484.668 106.988 499.153 116.066 512.43 126.387C515.206 128.544 518.051 130.292 521.07 132.055C521.257 132.165 521.452 132.277 521.652 132.392C523.516 133.461 525.827 134.787 526.499 136.867C528.39 142.721 518.848 136.845 517.494 136.005ZM51.0235 130.678C40.4667 138.891 30.1506 147.442 20.6065 156.815C17.2085 160.152 14.3766 163.969 11.5473 167.784C10.2517 169.531 8.95612 171.277 7.60698 172.976C7.46238 173.158 7.30294 173.371 7.1293 173.603C6.0434 175.05 4.41888 177.216 2.64647 176.976C0.391013 176.673 -0.0649229 172.788 0.00698832 171.092C0.25332 165.307 5.53686 159.72 9.30471 155.736C13.5432 151.257 18.0748 146.892 22.7025 142.813C27.7976 138.323 33.3272 134.464 38.9619 130.685C41.0212 129.305 43.0481 127.844 45.0796 126.38C48.5053 123.913 51.9408 121.438 55.5538 119.327C58.2644 117.745 62.7649 117.142 61.2899 121.907C60.4281 124.69 57.0437 126.798 54.0904 128.637C52.9459 129.35 51.8666 130.022 51.0235 130.678ZM13.2114 119.291C19.1541 117.441 24.6643 114.569 30.1744 111.697C33.7648 109.826 37.3559 107.955 41.0657 106.367C43.7336 105.224 46.4403 104.179 49.1464 103.134C51.5806 102.193 54.0142 101.253 56.4201 100.243C56.6467 100.148 56.892 100.057 57.1444 99.9637C58.4044 99.4976 59.8343 98.9683 60.0047 97.4836C60.2384 95.4283 59.0383 95.4896 57.5724 95.5645H57.5717C57.4775 95.569 57.3819 95.5741 57.2851 95.578C53.9439 95.7284 50.4109 97.2092 47.0723 98.6087C45.6941 99.1871 44.3482 99.7513 43.063 100.202C41.9184 100.603 40.7726 100.995 39.6275 101.386C36.041 102.613 32.4648 103.836 28.9667 105.336C24.3125 107.33 19.5595 109.394 15.3681 112.265C15.2196 112.367 15.0647 112.471 14.9059 112.578C13.518 113.513 11.8384 114.644 11.238 116.186C10.6371 117.727 10.9682 119.99 13.2114 119.291Z" fill="black"/>
<path fill-rule="evenodd" clip-rule="evenodd" d="M259.247 79.613C259.809 77.9656 266.754 59.9543 264.036 59.4114C261.156 58.8349 257.307 69.2853 256.471 71.1735C253.386 78.1464 251.56 85.628 250.128 93.1077C249.131 98.3157 248.255 103.651 248.604 108.975C248.873 113.067 250.563 113.687 253.348 116.194C253.348 103.765 255.236 91.377 259.247 79.613Z" fill="black"/>
</svg>
